<svg width="16" height="16" viewBox="0 0 16 16" fill="none" xmlns="http://www.w3.org/2000/svg">
<g clip-path="url(#clip0_142_51)">
<rect width="16" height="16" rx="8" fill="#FDB7D5"/>
<rect x="1.32361" y="1.09596" width="13.2712" height="13.2712" rx="6.63558" fill="#FDB7D5" stroke="white" stroke-width="0.810453"/>
<path d="M10.6939 4.13855V5.07624C9.79227 4.54729 8.79447 4.27079 7.8688 4.27079C5.96936 4.27079 4.50271 5.71339 4.50271 7.63687C4.50271 9.65652 5.89723 11.0751 7.94093 11.0751C8.62616 11.0751 9.11906 10.9669 9.96058 10.6543V8.65871H8.28956V7.86528H10.8622V11.2073C9.92451 11.6641 9.01086 11.8805 7.94093 11.8805C5.00763 11.8805 3.56502 9.82482 3.56502 7.72102C3.56502 5.38881 5.28413 3.46533 7.90486 3.46533C8.84256 3.46533 9.61195 3.65768 10.6939 4.13855Z" fill="white"/>
</g>
<defs>
<clipPath id="clip0_142_51">
<rect width="16" height="16" rx="8" fill="white"/>
</clipPath>
</defs>
</svg>
