<svg width="349" height="102" viewBox="0 0 349 102" fill="none" xmlns="http://www.w3.org/2000/svg">
<path id="Allure" fill-rule="evenodd" clip-rule="evenodd" d="M347.834 54.4679C347.834 53.5287 347.435 52.7261 347.096 51.9884C346.697 51.3877 345.889 50.7813 345.889 49.8428L346.429 48.3029C346.429 47.0959 345.49 45.8234 345.086 44.7529L343.677 40.5316C343.076 39.1226 342.339 37.6483 341.601 36.4412C340.394 34.563 338.248 34.295 337.313 33.5579L336.374 31.6142C334.025 30.2097 331.48 28.6648 328.864 27.5948C328.126 27.3924 326.919 27.1904 326.116 26.8571C325.58 26.6552 324.575 26.2564 324.575 26.2564C324.04 26.1199 323.838 25.8525 323.368 25.5192C322.429 24.782 321.424 23.9737 319.682 23.9737C318.742 23.9737 318.141 24.3121 317.333 24.5096C316.797 24.6455 316.197 24.6455 315.929 24.6455L314.186 24.3127C313.58 23.9743 313.58 23.9743 312.98 23.9743C311.838 23.9743 309.893 24.1762 308.888 24.7115C308.484 24.9134 307.883 25.8525 307.55 25.9839C307.55 25.9839 305.802 25.6506 304.999 25.6506C303.994 25.7871 301.716 26.1859 301.716 26.1859C298.898 27.6603 295.55 30.0738 292.934 32.0835C292.262 32.6193 292.732 33.6943 292.196 34.1642C291.66 34.6335 290.12 34.4315 289.717 34.7649C287.772 36.6431 286.029 39.456 285.024 41.733C285.024 41.733 283.953 46.4946 283.752 46.828C283.347 47.4337 282.878 48.3678 282.812 48.7722C282.812 48.7722 281.807 50.514 281.272 51.3171C280.535 52.8626 280.332 54.0691 280.13 54.6698L280.267 57.5531C280.267 58.5583 280.802 59.093 280.802 59.093C280.802 60.0981 280.196 60.9712 280.065 61.3706C279.862 62.1783 279.66 62.7795 279.66 63.7186C279.66 64.4558 281.403 73.1663 281.403 73.1663C282.342 76.1151 283.883 78.2612 285.292 80.5383C286.232 82.1492 287.17 83.6895 287.974 85.2294C288.176 85.6332 288.509 86.3704 288.575 87.3095C288.913 88.648 289.115 89.991 289.918 90.9961C292.197 93.0717 294.61 95.0808 298.231 96.4238L300.51 96.7572C301.045 96.7572 303.055 96.8232 303.257 97.0251C303.257 97.0251 303.661 97.9642 304.262 98.4995C305.267 99.4386 306.944 100.58 306.944 100.58C309.626 101.115 312.909 101.181 313.914 101.181C314.651 101.181 315.323 100.978 316.262 100.782C316.863 100.378 317.671 100.443 318.206 100.378C319.009 100.241 319.884 99.504 321.691 100.58C322.025 100.782 322.494 100.782 322.833 100.782C324.974 100.782 328.661 98.7014 335.368 95.1513C335.566 95.1513 336.106 94.5456 336.172 94.5456L337.712 94.0103C339.122 93.4096 341.333 92.8033 342.606 90.8596C345.49 85.9666 346.293 84.4267 346.293 80.069C346.293 78.1247 345.758 76.7863 344.884 75.6452C343.278 73.7016 340.662 74.04 338.318 74.04H337.58C337.242 74.04 335.101 74.04 334.495 75.3779C334.495 75.3779 332.349 77.9273 331.01 79.4023C329.803 80.9421 329.803 81.4779 328.864 82.5479C328.328 83.0883 327.257 83.6895 326.787 84.2953C326.384 85.0979 325.045 86.2345 325.045 86.2345C324.105 86.9717 322.762 86.6383 321.56 86.7743C320.954 86.9057 320.353 86.9057 319.812 86.9717C319.414 87.1736 318.272 87.5774 317.737 87.7794C317.202 87.9768 315.995 87.7794 315.858 87.7794C315.661 87.7794 315.257 87.6429 314.722 87.239C313.717 86.5018 313.177 86.305 312.04 86.305C310.833 86.305 308.888 85.9011 308.888 85.9011C308.287 85.1639 307.479 84.3613 306.409 83.4216C305.606 82.6844 304.196 83.1543 303.126 82.8209C300.04 81.412 299.1 77.8574 299.1 77.8574C299.1 77.8574 298.701 76.317 298.701 75.7817C298.565 75.0445 298.095 73.1003 298.095 73.1003C297.691 71.9592 297.358 71.3585 297.358 69.6162C297.358 69.6162 299.837 68.2078 300.979 68.2078C301.181 68.2078 301.716 68.3438 302.186 68.4097C302.787 68.5406 303.393 68.8136 304.13 68.8136C304.868 68.8136 305.535 68.4097 306.207 68.2078C306.61 68.0764 307.348 67.8745 307.348 67.8745C308.085 67.8745 308.752 67.8745 309.292 68.2073C309.692 68.4097 310.297 68.8136 311.035 68.8136C311.772 68.8136 312.242 68.4098 313.58 67.8745C314.318 67.2681 315.727 66.9354 316.126 66.9354C316.126 66.9354 320.419 67.2681 322.161 67.5361C325.979 67.9399 327.793 68.1418 328.53 68.1418C329.131 68.1418 329.737 67.9399 331.414 67.5361C332.349 67.2027 333.692 66.9354 333.692 66.9354C334.429 66.9354 335.566 67.1373 335.97 67.2681C336.772 67.6726 337.58 67.8745 338.051 67.8745C341.131 67.8745 345.758 65.193 346.162 61.3051C346.293 60.0981 347.364 58.891 347.904 57.2858C348.303 55.8768 347.834 55.0736 347.834 54.4679ZM280.6 47.9645C280.6 46.9594 280.398 46.0253 279.862 45.0202C279.726 44.283 279.459 43.6113 279.459 43.0715C279.327 42.6721 279.327 41.9349 279.327 41.3292C279.459 39.9963 279.459 38.4509 279.191 36.906C278.655 35.5726 277.984 34.563 277.317 33.8207C276.979 33.6233 276.711 33.2849 276.711 33.0886C276.378 32.6847 276.11 32.2854 275.772 31.7501C274.368 29.0032 272.489 25.9129 270.413 25.7871C269.474 25.7871 268.802 26.1808 268.266 26.5243L267.06 26.3173C266.054 25.7211 265.519 25.3173 264.913 25.3173C263.777 25.3173 259.822 26.3173 258.347 26.8526L256.064 28.468C255.731 28.6654 255.528 29.8719 255.528 29.8719C255.528 29.8719 254.589 29.6045 254.388 29.6045C253.453 29.8014 251.241 29.8014 250.367 30.9424C250.367 30.9424 249.362 32.0784 248.958 32.5533C247.215 34.295 246.883 34.9014 245.609 34.8354C244.801 34.8354 244.604 34.6944 244.064 32.1494C243.665 29.675 242.862 25.5846 237.831 25.5192C236.695 25.3782 235.488 25.3782 234.882 25.3782L232.806 26.5243C232.069 26.5243 231.195 24.575 229.857 25.1808L221.877 25.7211C220.67 25.5192 219.331 24.9788 218.457 25.0443C217.251 25.1103 216.715 25.9129 216.245 25.9839C212.962 26.7866 210.887 30.0738 210.816 32.6187C210.685 34.7598 212.361 36.8451 213.367 37.9816C214.17 38.9207 216.983 41.6676 220.135 41.8041C221.073 41.8041 221.877 41.3946 223.22 40.799C223.619 40.592 224.225 40.1932 224.225 40.1932C224.225 40.1932 227.846 41.9349 229.452 43.2785C230.659 45.6215 230.458 48.3734 230.392 51.2512C230.255 52.1858 230.255 53.1954 230.255 54.3364L230.125 60.9667V67.4046L229.786 69.7527C229.452 70.7528 229.387 72.2322 229.452 73.4336C229.452 74.3728 229.589 75.9182 229.857 77.251C229.988 77.66 230.19 78.5991 230.19 78.7965C230.19 78.7965 229.452 83.482 228.983 85.0274C228.584 85.8351 227.377 86.4364 226.301 86.9767C225.902 87.1736 225.296 87.5774 225.296 87.5774C225.432 87.446 223.69 87.0371 223.69 87.0371C222.483 86.7043 221.811 86.6383 221.407 86.6383C220.069 86.5069 215.442 87.3755 215.24 92.6013C215.24 94.4796 215.644 95.8885 216.584 96.6917C216.584 96.6917 218.725 99.777 220.27 99.777C221.008 99.777 221.609 99.4386 223.15 98.8379C223.69 98.4995 224.089 98.9637 224.089 98.9637C224.089 98.9637 225.23 98.5649 225.498 98.6309C226.301 99.2367 227.241 99.3732 227.978 99.3732C228.715 99.3732 229.72 99.57 230.725 99.2367C231.129 99.1053 232.67 98.3681 232.67 98.3681C234.145 99.2367 235.417 99.9739 236.155 100.044H243.13C244.064 100.044 245.003 100.044 246.276 99.4386C246.817 99.2367 246.882 98.5649 247.084 98.4995L248.827 99.2367C249.548 99.5622 250.317 99.7669 251.105 99.8424C252.044 99.8424 252.847 99.504 253.585 99.3072L255.125 99.1053C255.463 98.9642 256.266 98.6963 256.873 98.7668H258.413C261.493 98.5649 263.777 94.0712 263.842 92.2026C263.842 90.6571 263.039 89.1173 261.963 88.1127C261.16 86.9768 259.822 86.3704 258.615 86.2345C257.806 86.2345 257.069 86.4364 256.332 86.6383C255.933 86.7692 254.458 86.9767 254.458 86.9767C253.251 86.8352 249.564 86.8352 247.887 86.3704C246.009 85.6332 243.796 83.6895 242.66 82.553C242.054 81.2049 242.458 77.9279 242.66 76.1151C242.66 75.3779 242.862 74.908 242.862 74.2368L242.993 72.2977C243.195 69.8131 243.326 65.193 243.326 65.193C243.326 65.193 243.326 63.7841 243.195 63.4507C243.195 63.0469 242.993 62.6481 242.993 62.4462C242.993 62.0423 242.392 59.159 243.529 58.4268C244.266 57.8205 244.064 56.816 244.872 56.1442C247.418 54.2659 248.488 53.1954 249.695 50.514C250.236 49.378 250.902 47.6362 250.902 47.6362C251.508 46.8985 254.256 45.1567 255.999 43.6113C256.802 42.4753 257.14 42.4042 257.943 41.8695C258.882 41.0618 260.019 40.9304 260.019 40.9304L260.423 41.9349C260.423 42.4753 260.221 42.9401 260.019 43.3439C259.282 45.0862 259.084 46.2222 259.084 47.1613C258.948 49.5094 262.569 54.2659 264.645 55.4781C265.584 56.0083 266.59 56.2756 267.529 56.407L267.933 56.614C268.671 57.2198 269.272 57.8211 270.277 57.8211C271.08 57.8211 272.156 57.2852 272.822 56.407C273.56 55.6038 274.367 56.407 274.766 55.6038C274.766 55.6038 275.706 54.4024 276.645 53.9986C277.585 53.4627 278.251 52.9884 278.989 52.0543C280.196 50.8529 280.6 49.1106 280.6 47.9645ZM214.508 92.0001C214.508 85.7691 209.482 85.3653 206.397 85.1634C205.457 85.0319 204.452 85.0319 204.119 84.83C203.114 84.4262 202.24 83.623 202.24 82.8858C202.24 82.8858 202.573 81.346 202.775 80.5377C203.311 78.462 202.977 77.458 202.977 76.8517C202.977 76.0491 203.311 75.1094 202.775 73.7715C202.644 73.3676 202.574 72.9689 202.442 72.7669C202.442 72.7669 202.644 71.9638 202.775 71.358C202.977 70.7567 203.114 70.1509 203.114 69.4797C203.114 68.3432 202.71 67.2021 202.306 66.197C202.174 65.8642 202.108 65.5963 201.972 65.3944L201.841 63.7835C201.972 63.3847 201.972 63.3847 201.972 62.5765C201.972 61.9758 201.841 60.5014 202.174 59.8956C202.376 59.5623 202.508 59.1584 202.71 58.8905C203.245 58.0879 203.851 56.9468 203.851 56.0128C203.851 56.0128 204.588 45.353 204.588 44.419V43.6818C204.72 41.8035 204.72 39.6574 204.452 38.117V38.5208C204.452 37.5112 204.048 36.774 203.715 36.2387L203.583 35.0317C203.447 32.956 203.447 30.6085 201.705 29.6039C199.76 28.3969 196.341 28.0641 195.538 28.0641C194.932 28.0641 194.331 28.1995 193.593 28.2655C193.058 28.2655 192.654 28.129 192.387 28.129C192.387 28.129 191.583 27.9271 191.048 27.7302C189.704 26.993 188.901 26.5892 188.099 26.5892C187.29 26.5892 187.093 27.4629 186.356 27.8616C185.952 27.9981 184.477 27.5289 184.411 27.5289L182.669 27.1244C181.528 26.7917 180.921 26.5892 180.32 26.5892C177.436 26.5892 170.8 33.7592 170.8 36.9105C170.8 38.1175 171.336 39.2586 172.345 40.2631C174.285 42.2074 177.437 43.1414 178.982 43.1414C180.118 43.1414 181.26 42.6061 181.528 42.6061L184.073 44.0805L185.013 44.2825C185.619 44.4844 185.952 44.6158 186.553 44.6158C186.891 44.7523 187.896 44.8177 188.098 44.9542L188.836 46.3581C188.836 46.3581 188.967 47.4992 187.493 48.3018L186.755 48.7057L186.422 49.5088C186.017 51.2506 186.82 52.7961 187.427 53.8012C187.628 54.1339 188.028 55.1391 188.028 55.341L187.492 57.684C187.159 58.891 186.891 60.2335 186.957 61.5719L187.76 63.6521C187.962 64.0514 188.366 64.8591 188.366 64.8591C188.366 64.8591 186.755 70.6208 185.482 72.8324C184.341 74.9125 182.8 76.7203 181.26 78.6645C180.32 79.8005 179.315 81.0075 178.376 82.28C177.638 83.4211 175.694 86.1025 174.355 86.1025H173.952C170.133 86.1025 168.856 85.9006 168.856 85.9006C166.714 84.8954 165.239 83.1537 163.497 80.8761L163.36 80.7396C162.356 79.4017 162.557 75.1094 162.623 73.1657C162.623 72.4285 162.759 71.5599 162.825 70.6208C163.159 68.1413 163.229 66.7323 162.957 65.7278V65.5258C162.557 64.5207 162.022 63.92 161.618 63.4502C161.285 63.1174 161.285 63.1174 161.285 62.713C161.285 62.1777 162.421 57.618 162.421 57.618C162.557 57.618 163.563 56.2801 163.628 56.2096L164.164 54.6038C164.502 53.4627 163.563 52.5231 162.76 51.4531C162.356 50.9172 162.022 50.3165 161.82 49.9133L161.618 49.1101V46.6306C161.618 44.7523 161.951 44.146 162.356 43.2779C162.891 42.3382 163.497 41.1972 163.497 39.0561C163.497 37.4458 163.159 34.6329 162.29 33.4264C161.886 32.8201 161.481 32.6887 160.946 32.2194C158.264 29.2706 155.118 27.3918 151.496 27.3918C150.891 27.3918 150.29 27.5943 149.148 27.7962C148.749 27.9271 148.28 28.8008 148.012 28.8008L145.664 27.6603C144.254 27.2615 143.517 27.0596 142.916 27.0596C141.977 27.0596 136.28 29.1347 136.28 32.4219C136.28 33.5579 136.144 35.1687 135.947 36.4412C135.81 37.4463 135.81 37.981 135.81 38.3195C135.81 39.6579 136.547 41.0663 137.957 42.5413C139.366 44.0811 142.043 45.8234 143.987 45.8234C144.992 45.8234 145.598 45.4241 146.068 45.0862C146.604 44.7529 147.942 47.8331 147.942 54.2005L148.144 57.4877C148.28 59.8307 148.482 61.7744 148.482 61.7744C148.346 61.9109 148.28 62.5116 148.144 62.5776C147.942 63.1179 147.811 63.5822 147.811 64.4558V76.5189C147.811 77.8619 148.613 78.5997 148.613 79.4023L149.149 80.9421C149.351 81.8818 149.755 83.2902 149.755 83.2902C149.755 83.4216 156.927 100.11 164.235 100.11C164.836 100.11 165.639 99.9739 166.31 99.9084C166.644 99.777 167.114 98.9688 167.316 98.9688C167.316 98.9688 168.053 99.9739 168.457 100.11C169.396 100.443 170.199 100.711 170.937 100.711C171.74 100.711 172.543 100.378 173.482 100.11C173.887 99.9739 174.422 99.706 174.624 99.706L175.962 100.044C176.771 100.246 177.508 100.444 178.109 100.444C179.048 100.444 179.518 100.444 180.255 100.11L180.589 99.777C181.392 99.1712 182.468 98.57 183.472 97.8988C184.679 97.0956 186.422 95.7526 186.422 95.7526C187.159 95.2168 188.7 94.5456 189.17 93.8789C189.503 93.475 189.705 93.677 189.705 93.677C189.705 93.677 190.109 94.2128 190.24 94.6821C190.442 95.2173 190.579 95.6212 190.781 95.8891L191.114 96.4238L191.518 96.6263C192.119 96.9591 193.998 97.227 194.599 97.6309C197.144 98.9688 197.952 99.2367 198.488 99.2367C199.089 99.2367 199.897 99.0393 200.094 98.9033L202.175 99.6405C204.049 100.246 204.72 100.58 205.326 100.58C207.069 100.58 207.468 99.706 209.211 97.5654L210.352 97.4289C210.352 97.4289 210.756 96.6263 211.089 96.6263C212.296 96.6263 213.034 96.02 213.438 95.4847C214.039 94.6161 214.508 93.541 214.508 92.0006L214.508 92.0001ZM64.6648 84.3404C64.56 84.2819 64.4564 84.2214 64.354 84.1588C63.3486 83.6185 63.0103 84.4217 62.1419 83.9569C61 83.4165 60.7981 83.7595 60.197 83.8864C58.7224 84.1588 59.5259 84.4217 58.5859 84.962C57.5151 85.5678 57.3792 87.1025 57.3792 87.1025C57.3792 87.1025 55.3688 88.3146 55.2375 86.1634L54.6313 84.5627C54.2986 83.4165 53.0912 82.4171 53.6918 82.0132L54.8991 79.7356C55.0356 78.9324 55.5053 78.3267 55.3029 77.453C54.8991 76.7208 54.6972 75.8426 54.5659 75.5093C54.5659 75.5093 54.0961 73.8375 54.298 73.5047C54.8337 72.7015 55.3029 72.7015 55.3029 71.8887C55.101 70.2829 54.8991 69.1469 55.5053 67.4656C56.041 66.3341 54.9696 64.3904 54.9696 64.3904C55.3029 62.5122 56.1064 62.7795 55.975 59.7597C55.8386 58.5583 56.5762 57.4116 55.6367 56.3461C55.6367 56.3461 55.101 55.7403 55.3029 55.5384L55.9756 54.2659C56.1724 53.4633 56.107 52.5236 55.7027 51.514L55.1016 50.7114L55.1675 49.5094C55.5713 48.3734 55.3034 47.4337 55.3034 46.5606C55.0361 44.283 52.2883 39.2591 52.2883 39.2591C51.5512 38.4509 51.2834 37.4463 50.5458 36.906C50.0056 36.6431 49.3391 36.5777 49.268 36.3758C49.0712 36.3098 49.0007 35.497 49.0007 35.3002C48.465 34.361 47.8645 33.6943 46.7226 33.2245C46.7226 33.2245 45.1825 32.3559 44.445 32.2854C43.9093 32.22 43.3036 32.0784 42.8999 31.8815L42.1623 31.2758C41.763 30.5436 41.0255 30.2706 40.086 30.0744C40.086 30.0744 38.9447 29.8719 37.9398 29.9424C37.3387 29.9424 36.733 29.7404 36.1973 29.8719C35.9955 30.0084 35.8641 30.0084 35.7981 30.0084L34.5203 29.5334C33.45 28.9378 32.9803 28.8622 32.1773 28.9378C30.8335 28.9378 30.3638 29.9424 29.4954 30.6796C29.2929 30.877 27.4851 30.877 27.2172 30.811C26.6815 30.7456 26.4091 30.604 25.6721 30.6796C24.9345 30.6796 24.3994 30.811 22.7928 31.5431C22.1872 31.7501 20.9145 31.7501 20.9145 31.7501C20.9145 31.7501 19.975 31.8815 19.5758 31.811C18.7677 31.6193 17.3636 31.3463 16.7574 31.3463C15.6212 31.3463 15.2174 32.8156 13.5404 33.6238C13.136 33.9623 12.399 33.8308 11.8633 34.1642C11.6614 34.295 11.2628 35.4367 11.0603 35.5726C9.31787 36.8451 8.91412 38.5874 7.43952 38.3855C7.17166 38.3855 5.89894 39.1881 5.69706 39.3849C4.48975 40.4656 3.68676 41.8041 3.68676 41.8041C2.88376 42.869 2.34805 44.6818 2.34805 45.5555C2.34805 45.692 2.27757 46.2876 2.27757 46.4946C2.27757 49.378 2.34805 52.8626 3.28244 55.0082C3.95461 56.7505 7.57542 59.4314 9.44926 59.3609C9.99004 59.3609 10.1209 58.891 10.656 58.891C11.1974 58.891 11.596 58.4923 11.8633 59.159C11.8633 59.159 12.399 59.3609 12.6714 59.4314C13.4749 59.6288 14.212 59.8307 14.8131 59.7597C16.4242 59.6942 19.172 56.4775 19.3079 55.3416C19.5758 53.6652 19.8436 50.9184 19.7726 50.1152C19.7726 48.9036 19.1061 48.1004 18.7023 47.7011C18.298 47.2273 18.1012 47.2273 18.0301 46.4946C18.0301 45.5555 18.8382 45.1567 18.9042 45.0202L21.6515 44.076C22.7928 44.076 25.2075 45.8183 26.0105 44.8888C26.0105 44.8888 26.7475 44.6818 27.0153 44.8888C28.1516 45.692 27.7529 46.2222 29.0911 46.1613C29.8286 46.1613 31.3032 45.692 32.4446 45.0202L33.6513 45.0862C34.3895 45.485 33.9197 45.8939 34.7227 46.0908C35.5257 46.2882 36.6671 46.4241 37.4701 46.5606L39.0152 46.2222C41.1568 47.1613 41.0914 50.1812 41.2933 51.8569C41.2933 52.6601 40.5557 56.4775 40.3539 58.2853L39.2125 58.8256C38.4749 59.6282 37.2022 58.3558 36.7325 58.3558C35.7276 58.3558 35.3943 58.4268 32.7124 60.4969L31.3032 61.0372C30.2984 61.436 30.167 61.502 29.6268 62.2386C29.4294 62.3757 28.2227 61.502 28.2227 61.502C26.8129 60.7699 25.4748 62.6481 24.6667 62.6481C21.9194 62.6481 21.9848 61.7693 20.4448 63.6527C20.4448 63.6527 17.0958 63.8501 16.692 63.9809C15.3482 64.5213 15.0809 63.8501 13.3385 64.6578C11.6614 65.4604 11.9998 66.6624 11.596 66.8694C11.7325 66.8694 10.5252 66.4001 10.5252 66.4001C10.3887 66.4001 9.91899 66.536 9.58572 66.536C8.58085 66.6624 6.70193 68.4707 6.70193 68.4707C3.41834 70.0855 0.0648193 78.3915 0.0648193 79.8716C0.0648193 80.6742 0.40316 81.5479 0.736425 82.3505C1.06969 82.9512 0.332672 83.4814 0.469136 84.0268C0.469136 84.6281 0.599961 85.4313 0.599961 86.1628C0.736425 87.102 0.736425 87.9052 0.802402 88.6474C0.802402 88.6474 1.80727 91.9296 3.28187 92.7373L4.22133 93.2731C4.55967 93.4745 5.56511 94.2117 5.56511 94.2117C6.49949 95.954 7.70624 97.3629 8.91355 97.8931C9.91843 98.3021 10.656 97.8271 11.6609 97.9636C12.6003 98.1611 13.8077 99.3066 13.8077 99.3066C14.146 99.504 14.6106 99.8424 15.0144 100.11C16.8933 101.311 17.9636 101.983 19.035 101.983C20.1763 101.983 20.9793 101.453 21.9188 100.983C22.0553 100.847 24.065 100.241 24.197 100.241L31.5051 99.9022C31.707 99.9022 32.1107 99.9022 32.6465 100.044C33.1816 100.175 33.7827 100.241 34.2524 100.241C35.6616 100.241 36.6005 99.7054 37.1362 99.5035L38.0757 98.7663C38.4744 98.231 39.2824 97.5649 39.6163 97.4284L40.5552 97.2214C41.5606 97.024 42.8987 96.8226 43.9092 95.8226V95.954C44.7122 95.2117 45.2474 94.4085 45.4493 94.0097C45.4493 94.0097 47.1917 94.4085 47.9947 94.9489L49.0001 96.1508C49.4039 96.7566 49.9396 97.5649 50.6112 98.1001C52.5555 99.3072 53.7629 99.9727 55.3029 99.9727C55.904 99.9727 58.4551 99.8419 58.7878 99.7765L60.3284 99.3726C61.2678 99.7765 61.3338 100.11 61.9394 100.11C62.8219 100.11 63.9909 99.178 64.6253 98.6692C65.2411 98.5869 65.9476 98.4465 66.4952 98.2259C66.8995 98.0291 67.7019 97.8271 67.9044 97.6907L69.3136 98.297C69.7122 99.0996 70.6517 99.433 71.1874 99.433C71.7936 99.3015 71.9955 99.5695 72.7325 99.2356C73.0663 99.1002 74.339 98.6958 74.6774 99.0342C76.2174 99.8368 77.021 100.372 77.9598 100.372C78.561 100.372 79.1672 100.039 80.4399 99.6349C80.8442 99.433 81.6466 99.0996 81.8491 99.0342C81.8491 99.0342 82.4502 99.367 83.5915 99.433C87.2078 99.8368 88.4146 99.9733 88.8189 99.9733C89.42 99.9733 90.0256 99.8368 90.9651 99.5695C91.1675 99.433 91.9705 99.2361 91.9705 99.2361C91.9705 99.2361 94.3141 99.6349 95.2536 99.7714C97.3998 100.307 97.1319 100.509 97.5312 100.509C98.0714 100.509 98.7379 100.17 100.284 99.5695C100.885 99.3675 103.031 99.0336 103.031 99.0336C103.567 99.2361 104.168 99.433 104.905 99.433C105.844 99.433 106.653 98.8977 107.39 98.0951C107.521 97.9586 107.723 97.7617 107.789 97.5592L108.526 97.8931C108.93 98.6958 109.936 99.0342 110.471 99.0342C111.072 98.8977 111.88 99.1656 112.617 98.8323C112.617 98.8323 113.557 98.2964 113.824 98.6303C115.365 99.433 116.168 99.9727 117.107 99.9727C117.708 99.9727 118.314 99.6349 119.587 99.2361C119.991 99.0342 120.996 98.6958 121.198 98.6303C121.198 98.6303 123.542 98.9631 124.683 99.0342C128.304 99.433 129.507 99.5695 129.91 99.5695C130.517 99.5695 131.117 99.433 132.057 99.1656C132.259 99.0342 133.062 98.8323 133.062 98.8323C133.062 98.8323 135.406 99.2361 136.345 99.3675C138.491 99.9028 138.224 100.105 138.623 100.105C139.163 100.105 139.83 99.7714 141.375 99.1656C141.976 98.9631 144.123 98.6298 144.123 98.6298C144.659 98.8323 145.259 99.0342 145.997 99.0342C146.936 99.0342 147.744 98.4984 148.481 97.6907C150.088 96.3528 151.295 93.5354 151.295 92.1969C151.295 89.9199 150.693 88.309 149.416 87.102C147.542 85.2288 147.275 85.8949 145.799 85.1583L142.512 85.2942C141.709 85.2942 139.563 85.6986 138.087 86.0974C138.087 86.0974 136.881 86.6327 136.481 86.8346C136.279 86.9711 134.941 86.5013 134.941 86.5013C133.8 86.0974 133.931 85.7641 133.33 85.7641H131.451L130.047 83.2846C129.441 80.8056 130.244 79.4621 130.178 78.6594L130.582 75.5742C131.183 73.4985 131.521 72.6254 131.521 71.9587C131.521 70.7516 131.118 69.8785 130.713 69.4797C130.517 68.8734 130.178 68.3381 130.916 65.2528C131.118 64.3188 130.784 62.506 130.784 62.506C130.784 62.304 130.446 61.37 130.38 61.1681C130.047 60.5623 129.643 59.4258 129.577 59.0879L130.178 57.4821C130.714 55.9423 131.118 55.134 131.118 54.3308C131.118 53.1898 130.713 52.4526 130.178 51.6499C129.779 50.6448 129.239 49.3723 129.239 46.6255C129.107 46.0902 129.375 42.803 129.239 39.8542L129.375 35.5675C129.375 35.5675 129.708 34.8298 129.976 34.4259C130.315 33.6887 130.713 32.8861 130.916 31.881C131.118 30.7399 131.052 29.5329 130.916 28.5283C130.784 27.9925 130.784 27.1194 130.784 27.1194C130.916 26.3167 131.32 25.2462 131.789 24.3725C132.729 21.6911 133.128 20.757 133.128 19.9493C133.128 19.1461 132.592 18.207 131.587 16.798C131.386 16.3993 131.052 15.7935 130.981 15.5966C130.981 15.5966 130.582 13.4505 130.244 12.1075C129.708 10.1633 129.239 8.22409 129.042 6.47726L128.905 5.876L128.501 5.47215C128.168 5.2753 126.426 3.39649 124.814 3.39649C123.608 3.52791 123.274 3.39649 122.269 4.33618H120.931C120.931 4.33618 120.39 3.39705 119.052 3.39705C118.046 3.39705 116.703 3.19513 116.304 3.59898L113.825 3.8009C112.082 2.79128 111.946 2.65986 111.072 2.65986C110.471 2.65986 110.067 2.86178 109.667 2.99264L107.925 2.19001C106.38 1.25089 105.642 0.982971 104.976 0.982971C100.753 1.11947 97.6676 8.55744 97.8041 11.8396C97.8041 16.6672 100.683 18.2076 102.895 19.55C103.233 19.55 104.637 19.348 104.905 19.55C105.107 19.6814 105.374 20.8884 105.577 21.2218C106.314 22.0295 106.986 21.7621 107.658 21.8276C107.658 21.8276 107.723 21.5596 108.461 21.3577C108.461 21.3577 110.405 22.5648 111.41 22.5648C112.415 22.5648 112.547 21.7621 113.355 21.1558L113.956 22.3628C114.158 23.1 114.294 23.9027 114.562 24.7109C114.562 24.7109 115.365 26.7866 116.102 27.7906L116.638 29.1341C116.304 29.7348 115.365 30.3355 115.365 31.1438C115.365 31.679 116.037 32.4817 116.168 33.0169C116.304 33.6233 116.304 34.5624 116.304 34.9612L115.769 36.3042C115.229 37.0413 114.961 37.844 114.961 38.6472C114.961 40.2581 115.966 41.3286 116.572 42.0004C117.108 42.6011 117.309 42.803 117.309 43.3383C117.309 43.3383 116.971 44.2774 116.774 44.7472C116.572 45.4844 116.234 46.1556 116.234 46.8934C115.834 48.6351 116.102 50.5089 116.435 51.7859C116.435 52.1192 116.971 54.2654 116.971 54.4673L116.774 59.1584C116.774 60.0924 116.637 60.9001 116.637 61.7033C116.5 62.5446 116.432 63.3958 116.435 64.2483C116.234 65.6572 116.037 67.1316 116.037 68.5406L117.375 69.8125C117.577 70.2169 116.572 71.4894 116.572 71.6908C116.572 72.0247 116.905 72.6959 116.572 73.2311C116.336 73.9309 116.157 74.6486 116.036 75.3773C116.036 76.5787 115.9 77.8568 115.834 78.9928C115.698 79.8005 115.632 80.6037 115.632 81.139C115.632 81.6742 114.895 82.28 114.895 82.7493C114.759 83.4865 114.693 84.8249 114.36 85.0923L112.617 84.4916C110.875 83.8858 110.471 84.2897 109.87 84.2897C109.532 84.2897 108.526 83.8858 107.991 83.9512C106.582 84.1532 105.511 84.4916 105.107 84.4916C105.107 84.4916 104.708 84.3551 104.304 84.1532C103.097 83.9512 102.562 83.9512 101.956 83.9512C100.016 83.9512 98.6071 84.9609 97.6676 86.2993C97.4658 86.2993 97.2633 86.2993 97.0665 86.4358C97.0665 86.4358 95.8598 86.9711 95.4554 87.173C95.2536 87.3039 93.9149 86.8346 93.9149 86.8346C92.7735 86.4358 92.91 86.0974 92.3038 86.0974H90.43L89.6219 83.6179C88.8843 81.139 89.2226 79.8005 89.0862 78.9928L89.4905 75.9126C90.0916 73.8318 90.43 72.9638 90.43 72.292C90.43 71.085 90.0262 70.2164 89.6924 69.8125C89.354 69.2118 89.0867 68.6715 89.8238 65.5913C90.0262 64.6521 89.6924 62.8444 89.6924 62.8444C89.6924 62.6425 89.354 61.7033 89.2886 61.5014C88.9554 60.9001 88.551 59.7591 88.4856 59.4258L89.2226 57.8154C89.6219 56.275 90.0262 55.4724 90.0262 54.6641C90.0262 53.5282 89.6219 52.791 89.2226 51.9833C88.6824 50.9782 88.2178 49.7057 88.2178 46.9588C88.2178 46.4236 88.3492 43.1414 88.3492 40.1926V35.9003C88.3492 35.9003 88.6824 35.1631 88.9554 34.7593C89.2881 34.0221 89.6924 33.2194 89.8897 32.2143C90.0916 31.0733 90.0262 29.8713 89.8897 28.8617C89.7584 28.3258 89.7584 27.4572 89.7584 27.4572C89.8897 26.6495 90.2941 25.579 90.7632 24.7104C91.7027 22.0295 92.1019 21.0904 92.1019 20.2872C92.1019 19.4795 91.5662 18.5403 90.6978 17.1365C90.3595 16.7326 90.0916 16.1319 89.9602 15.9294C89.9602 15.9294 89.5565 13.7838 89.2226 12.4453C88.6824 10.5017 88.2178 8.55744 88.0159 6.81512L87.8794 6.20935L87.4802 5.81057C87.1418 5.60865 85.3994 3.7304 83.7934 3.7304C82.5867 3.86633 82.2483 3.7304 81.2429 4.66952H79.9047C79.9047 4.66952 79.369 3.7304 78.0258 3.7304C77.021 3.7304 75.6823 3.52791 75.2785 3.93233L72.7985 4.13425C71.056 3.12914 70.253 2.9932 69.3136 2.9932C68.7074 2.9932 68.1722 3.19513 67.7685 3.33162L65.8941 2.52336C64.283 1.58931 63.546 1.31632 62.8084 1.31632C58.3186 1.45281 53.6918 8.89078 53.7578 12.178C53.8942 17.0005 56.8434 18.5403 59.1921 19.8833C59.5254 19.8833 61 20.5545 61.3338 20.7519C61.5357 20.8884 61.5357 21.2923 61.7375 21.6256C62.4751 22.4283 63.0762 22.4993 64.4195 22.4993C65.5557 22.4993 66.0254 21.4897 66.763 21.2923C66.763 21.2923 68.576 22.8981 69.7122 22.8981C70.7177 22.8981 71.4547 22.0949 72.2628 21.4891L72.8639 22.6962C73.0663 23.4334 73.2022 24.2416 73.4701 25.0443C73.4701 25.0443 74.2731 27.1194 75.0106 28.1239L75.5464 29.4674C75.2125 30.0681 74.339 30.6745 74.339 31.4771C74.339 32.0124 74.9447 32.8201 75.0761 33.3554C75.2125 33.9566 75.2785 34.8952 75.2125 35.2996L74.6768 36.6375C74.1366 37.3747 73.8693 38.1773 73.8693 38.9856C74.0052 40.5914 74.8742 41.6619 75.4804 42.3337C76.0161 42.9395 76.2174 43.1414 76.2174 43.6761C76.2174 43.6761 75.8791 44.6107 75.6823 45.0806C75.4804 45.8178 75.2785 46.489 75.142 47.2262C74.7428 48.9685 75.0106 50.8473 75.4804 52.1192C75.4804 52.4526 75.8791 54.5987 75.8791 54.8006L75.6823 59.4917C75.6823 60.4309 75.5458 61.2335 75.5458 62.0367C75.4081 62.8795 75.3406 63.7322 75.3439 64.5861C75.142 65.9906 74.9447 67.465 74.9447 68.8734L76.0815 70.1459C76.2834 70.5497 75.4144 71.8222 75.4144 72.0241C75.4144 72.3575 75.7477 73.0292 75.4144 73.5645C75.2125 74.1703 75.0106 74.9075 75.0106 75.7107C74.8742 76.9177 74.8088 78.1896 74.6774 79.3312C74.5409 80.1338 74.4749 80.9365 74.5409 81.4717C74.411 81.999 74.3432 82.5396 74.339 83.0826C74.2076 83.8198 73.536 85.1583 73.2022 85.4256L71.3239 84.8249C69.9141 84.2237 69.5814 84.623 69.0457 84.623C68.7074 84.623 67.9044 84.2237 67.5006 84.2897C66.3638 84.4916 66.5662 84.8249 66.3638 84.8249C66.3638 84.8249 65.96 84.6885 65.5557 84.4916C65.2607 84.43 64.9635 84.3792 64.6648 84.3393V84.3404ZM327.59 44.0811C329.267 44.8837 329.469 47.0959 329.469 48.7062C329.469 50.312 328.53 51.0492 327.727 52.5947C326.919 54.1345 325.444 53.4633 324.641 53.8672C321.757 55.0742 318.474 55.6749 317.202 55.6749C316.394 55.6749 312.51 54.0691 311.636 54.0691C310.63 54.0691 309.292 54.8717 308.287 54.8717C307.479 54.8717 305.737 53.6647 304.797 53.6647C303.792 53.6647 301.181 54.4024 300.176 54.4024C297.828 54.4024 297.292 53.5992 297.292 51.9229C297.292 50.2466 298.833 46.4946 301.716 45.692C302.519 45.3536 304.262 46.0248 305.338 45.1516C305.737 44.6164 306.075 42.6067 307.212 42.0714C309.762 40.4605 315.323 38.9207 316.262 38.9207C317.403 38.9207 318.944 40.1278 320.08 40.9964C320.888 41.1977 321.959 40.8644 322.631 41.1977C324.04 41.9349 326.182 43.4093 327.59 44.0811ZM42.6315 73.1663L42.0957 78.1952C42.0957 79.1953 39.6163 79.7351 38.4744 80.7402C37.6714 81.1446 35.7975 82.4825 35.7975 82.4825C35.2573 82.8209 34.3889 83.4165 31.9743 87.5115C31.8378 87.8448 31.1713 88.3146 30.9694 88.3146C30.833 88.3146 30.3632 88.1832 29.9645 88.1127C29.1615 87.9762 27.6159 87.9057 27.0802 87.9057C26.4796 87.9057 25.3377 88.2492 23.5953 88.7185C23.0601 88.8448 22.7218 89.5217 22.3885 89.6576C22.2571 89.4506 20.5801 89.1173 20.3782 88.9864C18.8376 87.9768 19.5752 87.9768 18.2974 87.9768L16.2217 87.5115C15.0804 86.9767 14.883 85.8351 13.8077 84.4922C13.4744 84.1594 13.8731 83.0228 13.4744 82.7448C12.9387 82.3511 13.8731 81.7402 13.8731 81.003C13.8731 81.003 13.2719 79.937 14.6106 78.5997C15.5501 77.2516 15.752 76.6503 15.752 76.6503L17.363 76.7208C17.363 76.7208 18.3679 75.8426 18.7017 75.7112L21.3177 74.7772C22.0553 74.2368 22.4539 73.8375 22.8583 73.5701C23.0601 73.5701 23.5953 73.3631 24.7372 73.3631C25.5402 73.3631 26.3432 72.4342 27.2826 72.5599C27.2826 72.5599 30.1664 72.8984 31.3732 72.8984C32.5754 72.8984 36.1968 71.9643 39.3484 70.7528C39.6817 70.5553 40.3533 70.4194 40.5552 70.3534C40.889 70.4899 41.1563 70.1464 41.1563 70.2226C41.6971 70.3534 41.9644 70.0861 42.0957 70.4194C42.0957 70.4194 42.5001 71.6208 42.6315 73.1663Z" fill="black"/>
</svg>
