<svg width="121" height="36" viewBox="0 0 121 36" fill="none" xmlns="http://www.w3.org/2000/svg">
<path id="allure" fill-rule="evenodd" clip-rule="evenodd" d="M120.592 19.0173C120.592 18.6919 120.454 18.4138 120.337 18.1581C120.198 17.9499 119.918 17.7398 119.918 17.4146L120.106 16.881C120.106 16.4627 119.78 16.0217 119.64 15.6508L119.152 14.1879C118.944 13.6997 118.688 13.1888 118.433 12.7705C118.014 12.1196 117.27 12.0268 116.947 11.7713L116.621 11.0977C115.807 10.6111 114.925 10.0757 114.019 9.70491C113.763 9.63474 113.345 9.56476 113.066 9.44925C112.881 9.37927 112.532 9.24108 112.532 9.24108C112.347 9.19378 112.277 9.10113 112.114 8.98562C111.789 8.73015 111.441 8.45006 110.837 8.45006C110.511 8.45006 110.303 8.56734 110.023 8.63575C109.837 8.68285 109.629 8.68285 109.536 8.68285L108.932 8.56753C108.722 8.45026 108.722 8.45026 108.514 8.45026C108.119 8.45026 107.445 8.52023 107.096 8.70572C106.956 8.7757 106.748 9.10113 106.633 9.14668C106.633 9.14668 106.027 9.03116 105.749 9.03116C105.401 9.07846 104.611 9.21665 104.611 9.21665C103.634 9.72758 102.474 10.5639 101.568 11.2604C101.335 11.4461 101.498 11.8186 101.312 11.9814C101.126 12.144 100.593 12.0741 100.453 12.1896C99.7787 12.8405 99.1749 13.8152 98.8267 14.6043C98.8267 14.6043 98.4556 16.2543 98.3857 16.3699C98.2456 16.5798 98.0828 16.9035 98.0601 17.0436C98.0601 17.0436 97.7119 17.6472 97.5262 17.9255C97.2708 18.4611 97.2007 18.8791 97.1307 19.0873L97.178 20.0865C97.178 20.4348 97.3637 20.6201 97.3637 20.6201C97.3637 20.9684 97.1534 21.271 97.1081 21.4094C97.0379 21.6893 96.968 21.8976 96.968 22.2231C96.968 22.4785 97.5718 25.497 97.5718 25.497C97.8973 26.5188 98.4312 27.2626 98.9195 28.0516C99.2451 28.6099 99.5704 29.1437 99.8489 29.6773C99.9189 29.8172 100.034 30.0727 100.057 30.3981C100.174 30.8619 100.244 31.3273 100.523 31.6756C101.312 32.3949 102.149 33.0911 103.403 33.5565L104.193 33.672C104.378 33.672 105.075 33.6949 105.145 33.7649C105.145 33.7649 105.285 34.0903 105.493 34.2758C105.842 34.6013 106.423 34.9967 106.423 34.9967C107.352 35.1824 108.49 35.205 108.838 35.205C109.093 35.205 109.326 35.1349 109.652 35.0666C109.86 34.9267 110.14 34.9494 110.325 34.9267C110.604 34.8794 110.907 34.6239 111.533 34.9967C111.649 35.0666 111.811 35.0666 111.929 35.0666C112.671 35.0666 113.948 34.3458 116.273 33.1156C116.341 33.1156 116.528 32.9057 116.551 32.9057L117.085 32.7202C117.573 32.512 118.34 32.3019 118.781 31.6283C119.78 29.9327 120.058 29.3991 120.058 27.889C120.058 27.2153 119.873 26.7514 119.57 26.356C119.013 25.6825 118.107 25.7998 117.295 25.7998H117.039C116.922 25.7998 116.18 25.7998 115.97 26.2634C115.97 26.2634 115.226 27.1469 114.762 27.658C114.344 28.1916 114.344 28.3773 114.019 28.7481C113.833 28.9353 113.462 29.1437 113.299 29.3536C113.159 29.6317 112.695 30.0256 112.695 30.0256C112.37 30.281 111.904 30.1655 111.488 30.2126C111.278 30.2582 111.069 30.2582 110.882 30.281C110.744 30.351 110.348 30.491 110.163 30.5609C109.977 30.6293 109.559 30.5609 109.512 30.5609C109.443 30.5609 109.303 30.5136 109.118 30.3737C108.77 30.1182 108.582 30.05 108.188 30.05C107.77 30.05 107.096 29.9101 107.096 29.9101C106.888 29.6546 106.608 29.3765 106.237 29.0508C105.959 28.7954 105.47 28.9582 105.099 28.8427C104.03 28.3544 103.705 27.1226 103.705 27.1226C103.705 27.1226 103.566 26.5888 103.566 26.4033C103.519 26.1479 103.356 25.4741 103.356 25.4741C103.216 25.0787 103.101 24.8705 103.101 24.2668C103.101 24.2668 103.96 23.7787 104.356 23.7787C104.426 23.7787 104.611 23.8258 104.774 23.8487C104.982 23.894 105.192 23.9886 105.448 23.9886C105.703 23.9886 105.934 23.8487 106.167 23.7787C106.307 23.7332 106.563 23.6632 106.563 23.6632C106.818 23.6632 107.049 23.6632 107.236 23.7785C107.375 23.8487 107.585 23.9886 107.84 23.9886C108.096 23.9886 108.258 23.8487 108.722 23.6632C108.978 23.4531 109.466 23.3378 109.604 23.3378C109.604 23.3378 111.092 23.4531 111.696 23.5459C113.019 23.6859 113.647 23.7558 113.903 23.7558C114.111 23.7558 114.321 23.6859 114.902 23.5459C115.226 23.4304 115.692 23.3378 115.692 23.3378C115.947 23.3378 116.341 23.4077 116.481 23.4531C116.759 23.5932 117.039 23.6632 117.202 23.6632C118.27 23.6632 119.873 22.734 120.013 21.3867C120.058 20.9684 120.429 20.5501 120.617 19.9939C120.755 19.5056 120.592 19.2273 120.592 19.0173ZM97.2935 16.7637C97.2935 16.4154 97.2236 16.0917 97.0379 15.7434C96.9908 15.4879 96.898 15.2552 96.898 15.0681C96.8525 14.9297 96.8525 14.6742 96.8525 14.4643C96.898 14.0025 96.898 13.4669 96.8052 12.9315C96.6195 12.4695 96.387 12.1196 96.1558 11.8624C96.0386 11.794 95.9458 11.6767 95.9458 11.6087C95.8305 11.4687 95.7376 11.3303 95.6204 11.1449C95.1338 10.193 94.4827 9.12205 93.7634 9.07846C93.4379 9.07846 93.2051 9.21489 93.0195 9.33393L92.6013 9.26219C92.2529 9.05559 92.0674 8.91564 91.8574 8.91564C91.4636 8.91564 90.0932 9.26219 89.5822 9.44768L88.791 10.0075C88.6757 10.0759 88.6053 10.494 88.6053 10.494C88.6053 10.494 88.28 10.4013 88.21 10.4013C87.8862 10.4695 87.1196 10.4695 86.8167 10.865C86.8167 10.865 86.4685 11.2586 86.3284 11.4232C85.7246 12.0268 85.6093 12.2369 85.168 12.214C84.888 12.214 84.8198 12.1651 84.6326 11.2832C84.4943 10.4258 84.216 9.00829 82.4727 8.98562C82.079 8.93675 81.6606 8.93675 81.4507 8.93675L80.7312 9.33393C80.4758 9.33393 80.1729 8.65842 79.7092 8.86834L76.944 9.05559C76.5256 8.98562 76.0617 8.79837 75.759 8.82104C75.3408 8.84391 75.1552 9.12205 74.9924 9.14668C73.8547 9.42481 73.1354 10.5639 73.111 11.4459C73.0654 12.1878 73.6464 12.9104 73.9948 13.3043C74.2731 13.6297 75.248 14.5816 76.3401 14.6289C76.6655 14.6289 76.944 14.487 77.4094 14.2806C77.5478 14.2089 77.7577 14.0707 77.7577 14.0707C77.7577 14.0707 79.0126 14.6742 79.5691 15.1398C79.9873 15.9518 79.9175 16.9054 79.8947 17.9026C79.8474 18.2265 79.8474 18.5764 79.8474 18.9718L79.8021 21.2694V23.5004L79.6848 24.3141C79.5691 24.6606 79.5465 25.1733 79.5691 25.5896C79.5691 25.9151 79.6164 26.4506 79.7092 26.9125C79.7548 27.0542 79.8247 27.3796 79.8247 27.4481C79.8247 27.4481 79.5691 29.0717 79.4065 29.6073C79.2682 29.8872 78.8498 30.0955 78.477 30.2828C78.3388 30.351 78.1287 30.491 78.1287 30.491C78.176 30.4454 77.5722 30.3037 77.5722 30.3037C77.154 30.1884 76.9211 30.1655 76.7812 30.1655C76.3173 30.12 74.7141 30.421 74.6442 32.2319C74.6442 32.8828 74.7841 33.371 75.1096 33.6494C75.1096 33.6494 75.8518 34.7185 76.3872 34.7185C76.6428 34.7185 76.8511 34.6013 77.385 34.3931C77.5722 34.2758 77.7104 34.4367 77.7104 34.4367C77.7104 34.4367 78.1061 34.2985 78.1989 34.3214C78.477 34.5313 78.8027 34.5786 79.0581 34.5786C79.3137 34.5786 79.6619 34.6468 80.0102 34.5313C80.1503 34.4857 80.6841 34.2303 80.6841 34.2303C81.1951 34.5313 81.6362 34.7867 81.8918 34.8112H84.3088C84.6326 34.8112 84.958 34.8112 85.3992 34.6013C85.5864 34.5313 85.6091 34.2985 85.6792 34.2758L86.2831 34.5313C86.5329 34.6441 86.7995 34.715 87.0723 34.7412C87.3979 34.7412 87.6762 34.6239 87.9317 34.5557L88.4654 34.4857C88.5827 34.4369 88.8609 34.344 89.0712 34.3685H89.6049C90.6724 34.2985 91.4636 32.7413 91.4863 32.0937C91.4863 31.5582 91.208 31.0246 90.8352 30.6764C90.5569 30.2828 90.0932 30.0727 89.6748 30.0256C89.3948 30.0256 89.1394 30.0955 88.8838 30.1655C88.7454 30.2109 88.2344 30.2828 88.2344 30.2828C87.8163 30.2337 86.5385 30.2337 85.9575 30.0727C85.3064 29.8172 84.5398 29.1437 84.1461 28.7498C83.936 28.2827 84.0759 27.1471 84.1461 26.5188C84.1461 26.2634 84.216 26.1006 84.216 25.868L84.2615 25.196C84.3315 24.335 84.3768 22.734 84.3768 22.734C84.3768 22.734 84.3768 22.2457 84.3315 22.1302C84.3315 21.9903 84.2615 21.8521 84.2615 21.7821C84.2615 21.6422 84.0532 20.643 84.4472 20.3893C84.7026 20.1791 84.6326 19.831 84.9126 19.5982C85.7947 18.9474 86.1656 18.5764 86.584 17.6472C86.7712 17.2535 87.0022 16.6499 87.0022 16.6499C87.2122 16.3943 88.1645 15.7907 88.7683 15.2552C89.0466 14.8615 89.1638 14.8369 89.4421 14.6516C89.7676 14.3717 90.1614 14.3261 90.1614 14.3261L90.3015 14.6742C90.3015 14.8615 90.2314 15.0226 90.1614 15.1625C89.906 15.7663 89.8376 16.1599 89.8376 16.4854C89.7903 17.2991 91.0452 18.9474 91.7645 19.3674C92.0901 19.5511 92.4385 19.6438 92.7641 19.6893L92.904 19.7611C93.1596 19.971 93.3679 20.1793 93.7161 20.1793C93.9944 20.1793 94.3672 19.9937 94.5982 19.6893C94.8538 19.411 95.1336 19.6893 95.272 19.411C95.272 19.411 95.5975 18.9947 95.9231 18.8547C96.2486 18.669 96.4796 18.5047 96.7352 18.181C97.1534 17.7646 97.2935 17.1609 97.2935 16.7637ZM74.3903 32.0236C74.3903 29.8643 72.6488 29.7244 71.5795 29.6544C71.254 29.6089 70.9058 29.6089 70.7901 29.5389C70.4419 29.3989 70.1392 29.1206 70.1392 28.8651C70.1392 28.8651 70.2545 28.3315 70.3246 28.0514C70.5103 27.3322 70.3946 26.9842 70.3946 26.7741C70.3946 26.496 70.5101 26.1703 70.3246 25.7067C70.2791 25.5668 70.2547 25.4286 70.2091 25.3586C70.2091 25.3586 70.2791 25.0803 70.3246 24.8703C70.3946 24.662 70.4419 24.4521 70.4419 24.2195C70.4419 23.8256 70.3019 23.4302 70.1618 23.0819C70.1163 22.9666 70.0934 22.8737 70.0463 22.8038L70.0008 22.2455C70.0463 22.1073 70.0463 22.1073 70.0463 21.8273C70.0463 21.6191 70.0008 21.1082 70.1163 20.8982C70.1863 20.7827 70.2318 20.6428 70.3019 20.5499C70.4874 20.2718 70.6975 19.8764 70.6975 19.5527C70.6975 19.5527 70.9529 15.8587 70.9529 15.535V15.2796C70.9984 14.6287 70.9984 13.885 70.9058 13.3512V13.4911C70.9058 13.1413 70.7657 12.8858 70.6502 12.7003L70.6046 12.282C70.5573 11.5627 70.5573 10.7492 69.9535 10.4011C69.2797 9.98285 68.0948 9.86753 67.8165 9.86753C67.6064 9.86753 67.3983 9.91444 67.1427 9.93731C66.9571 9.93731 66.8172 9.89001 66.7245 9.89001C66.7245 9.89001 66.4461 9.82003 66.2606 9.75182C65.795 9.49635 65.5167 9.3564 65.2386 9.3564C64.9584 9.3564 64.8902 9.65917 64.6348 9.79736C64.4947 9.84466 63.9835 9.68204 63.9608 9.68204L63.357 9.54189C62.9615 9.42657 62.7514 9.3564 62.5431 9.3564C61.5438 9.3564 59.244 11.8411 59.244 12.9331C59.244 13.3514 59.4297 13.7468 59.7794 14.0949C60.4517 14.7687 61.544 15.0923 62.0794 15.0923C62.4732 15.0923 62.8689 14.9068 62.9615 14.9068L63.8436 15.4178L64.1692 15.4877C64.3792 15.5577 64.4947 15.6033 64.703 15.6033C64.8203 15.6506 65.1685 15.6732 65.2384 15.7205L65.494 16.207C65.494 16.207 65.5396 16.6024 65.0286 16.8806L64.773 17.0205L64.6575 17.2989C64.5174 17.9024 64.7956 18.438 65.0057 18.7863C65.0757 18.9016 65.214 19.2499 65.214 19.3199L65.0284 20.1318C64.9131 20.5501 64.8203 21.0153 64.8429 21.4791L65.1212 22.2C65.1912 22.3384 65.3313 22.6183 65.3313 22.6183C65.3313 22.6183 64.773 24.6149 64.3319 25.3813C63.9364 26.1021 63.4026 26.7286 62.8687 27.4023C62.5431 27.796 62.1949 28.2143 61.8694 28.6552C61.6138 29.0506 60.94 29.9798 60.4761 29.9798H60.3362C59.013 29.9798 58.5702 29.9099 58.5702 29.9099C57.8281 29.5616 57.3171 28.958 56.7132 28.1687L56.6659 28.1214C56.3177 27.6578 56.3877 26.1703 56.4105 25.4968C56.4105 25.2413 56.4576 24.9403 56.4805 24.6149C56.596 23.7556 56.6204 23.2674 56.526 22.9193V22.8493C56.3877 22.501 56.2022 22.2928 56.0621 22.13C55.9468 22.0147 55.9468 22.0147 55.9468 21.8746C55.9468 21.6891 56.3404 20.109 56.3404 20.109C56.3877 20.109 56.7361 19.6453 56.7588 19.6209L56.9444 19.0644C57.0617 18.669 56.7361 18.3434 56.4578 17.9726C56.3177 17.7869 56.2022 17.5788 56.1323 17.439L56.0621 17.1607V16.3014C56.0621 15.6506 56.1776 15.4404 56.3177 15.1396C56.5034 14.814 56.7132 14.4186 56.7132 13.6766C56.7132 13.1186 56.596 12.1438 56.2951 11.7258C56.1549 11.5156 56.0148 11.4701 55.8294 11.3075C54.9 10.2856 53.8096 9.63454 52.5547 9.63454C52.3448 9.63454 52.1365 9.70471 51.741 9.77469C51.6026 9.82003 51.4401 10.1228 51.3471 10.1228L50.5336 9.72758C50.045 9.58939 49.7896 9.51942 49.5813 9.51942C49.2558 9.51942 47.2815 10.2385 47.2815 11.3776C47.2815 11.7713 47.2344 12.3295 47.1662 12.7705C47.1187 13.1188 47.1187 13.3041 47.1187 13.4214C47.1187 13.8852 47.3743 14.3732 47.8627 14.8844C48.351 15.418 49.2786 16.0217 49.9524 16.0217C50.3006 16.0217 50.5107 15.8834 50.6735 15.7663C50.8591 15.6508 51.3228 16.7182 51.3228 18.9247L51.3928 20.0638C51.4401 20.8758 51.51 21.5493 51.51 21.5493C51.4629 21.5966 51.4401 21.8048 51.3928 21.8276C51.3228 22.0149 51.2775 22.1758 51.2775 22.4785V26.6588C51.2775 27.1242 51.5556 27.3798 51.5556 27.658L51.7412 28.1916C51.8112 28.5172 51.9511 29.0053 51.9511 29.0053C51.9511 29.0508 54.4365 34.8339 56.969 34.8339C57.1773 34.8339 57.4556 34.7867 57.6881 34.7641C57.8038 34.7185 57.9666 34.4384 58.0366 34.4384C58.0366 34.4384 58.2922 34.7867 58.4321 34.8341C58.7576 34.9494 59.0359 35.0422 59.2915 35.0422C59.5698 35.0422 59.848 34.9269 60.1736 34.8341C60.3137 34.7867 60.4991 34.6939 60.5691 34.6939L61.033 34.8112C61.313 34.8812 61.5684 34.9496 61.7767 34.9496C62.1023 34.9496 62.2653 34.9496 62.5207 34.8341L62.6362 34.7185C62.9144 34.5086 63.2873 34.3003 63.6355 34.0677C64.0537 33.7893 64.6575 33.3239 64.6575 33.3239C64.9131 33.1383 65.447 32.9057 65.6097 32.6746C65.7252 32.5347 65.7954 32.6046 65.7954 32.6046C65.7954 32.6046 65.9353 32.7903 65.9808 32.953C66.0508 33.1384 66.0981 33.2784 66.168 33.3712L66.2835 33.5565L66.4236 33.6267C66.6319 33.742 67.283 33.8349 67.4911 33.9748C68.3732 34.4384 68.6533 34.5313 68.8389 34.5313C69.0472 34.5313 69.3272 34.4629 69.3954 34.4158L70.1165 34.6712C70.7658 34.8812 70.9986 34.9967 71.2086 34.9967C71.8125 34.9967 71.9508 34.6939 72.5546 33.9521L72.9502 33.9048C72.9502 33.9048 73.0901 33.6267 73.2056 33.6267C73.6239 33.6267 73.8795 33.4166 74.0194 33.2311C74.2278 32.9301 74.3905 32.5575 74.3905 32.0237L74.3903 32.0236ZM22.4645 29.3692C22.4282 29.3489 22.3923 29.328 22.3568 29.3063C22.0084 29.119 21.8911 29.3974 21.5902 29.2363C21.1945 29.0491 21.1246 29.1679 20.9162 29.2119C20.4052 29.3063 20.6837 29.3974 20.358 29.5846C19.9869 29.7945 19.9398 30.3264 19.9398 30.3264C19.9398 30.3264 19.2431 30.7464 19.1976 30.0009L18.9875 29.4462C18.8722 29.0491 18.4539 28.7027 18.662 28.5628L19.0804 27.7735C19.1276 27.4952 19.2904 27.2852 19.2203 26.9825C19.0804 26.7288 19.0104 26.4244 18.9649 26.3089C18.9649 26.3089 18.8021 25.7296 18.872 25.6143C19.0577 25.3359 19.2203 25.3359 19.2203 25.0543C19.1503 24.4978 19.0804 24.1042 19.2904 23.5215C19.4761 23.1294 19.1048 22.4558 19.1048 22.4558C19.2203 21.805 19.4987 21.8976 19.4532 20.8511C19.4059 20.4348 19.6615 20.0374 19.336 19.6682C19.336 19.6682 19.1503 19.4583 19.2203 19.3883L19.4534 18.9474C19.5216 18.6692 19.4989 18.3436 19.3588 17.9937L19.1505 17.7156L19.1734 17.2991C19.3133 16.9054 19.2205 16.5798 19.2205 16.2772C19.1278 15.4879 18.1756 13.747 18.1756 13.747C17.9202 13.4669 17.8274 13.1188 17.5718 12.9315C17.3846 12.8405 17.1536 12.8178 17.129 12.7478C17.0608 12.7249 17.0364 12.4433 17.0364 12.3751C16.8507 12.0496 16.6426 11.8186 16.2469 11.6558C16.2469 11.6558 15.7132 11.3548 15.4576 11.3303C15.272 11.3077 15.0621 11.2586 14.9222 11.1904L14.6666 10.9805C14.5282 10.7268 14.2727 10.6322 13.9471 10.5641C13.9471 10.5641 13.5516 10.494 13.2034 10.5184C12.9951 10.5184 12.7852 10.4484 12.5995 10.494C12.5296 10.5413 12.4841 10.5413 12.4612 10.5413L12.0184 10.3767C11.6475 10.1703 11.4847 10.1441 11.2065 10.1703C10.7408 10.1703 10.578 10.5184 10.2771 10.7739C10.2069 10.8423 9.58044 10.8423 9.48762 10.8194C9.30198 10.7967 9.20759 10.7477 8.95219 10.7739C8.69659 10.7739 8.51115 10.8194 7.95442 11.0731C7.74455 11.1449 7.3035 11.1449 7.3035 11.1449C7.3035 11.1449 6.97795 11.1904 6.8396 11.166C6.55957 11.0995 6.073 11.0049 5.86293 11.0049C5.46918 11.0049 5.32926 11.5141 4.74811 11.7942C4.608 11.9114 4.3526 11.8659 4.16696 11.9814C4.097 12.0268 3.95885 12.4224 3.88869 12.4695C3.28487 12.9104 3.14496 13.5142 2.63396 13.4442C2.54114 13.4442 2.10009 13.7224 2.03014 13.7906C1.61176 14.1651 1.3335 14.6289 1.3335 14.6289C1.05523 14.9979 0.869589 15.6261 0.869589 15.9289C0.869589 15.9762 0.845163 16.1826 0.845163 16.2543C0.845163 17.2535 0.869589 18.4611 1.19339 19.2046C1.42632 19.8084 2.68105 20.7374 3.3304 20.7129C3.5178 20.7129 3.56314 20.5501 3.74858 20.5501C3.93618 20.5501 4.07433 20.4119 4.16696 20.643C4.16696 20.643 4.3526 20.7129 4.44698 20.7374C4.72544 20.8058 4.98085 20.8758 5.18915 20.8511C5.74744 20.8285 6.69968 19.7138 6.74678 19.3201C6.8396 18.7392 6.93242 17.7873 6.9078 17.509C6.9078 17.0891 6.67682 16.8108 6.53691 16.6724C6.3968 16.5082 6.3286 16.5082 6.30398 16.2543C6.30398 15.9289 6.584 15.7907 6.60686 15.7434L7.55891 15.4162C7.95442 15.4162 8.79117 16.02 9.06944 15.6979C9.06944 15.6979 9.32484 15.6261 9.41766 15.6979C9.81141 15.9762 9.67326 16.1599 10.137 16.1388C10.3926 16.1388 10.9036 15.9762 11.2991 15.7434L11.7173 15.7663C11.9731 15.9045 11.8103 16.0462 12.0885 16.1144C12.3668 16.1828 12.7623 16.2299 13.0406 16.2772L13.576 16.1599C14.3182 16.4854 14.2955 17.5319 14.3655 18.1126C14.3655 18.3909 14.1099 19.7138 14.0399 20.3402L13.6444 20.5275C13.3888 20.8056 12.9478 20.3646 12.785 20.3646C12.4368 20.3646 12.3213 20.3893 11.3919 21.1066L10.9036 21.2938C10.5553 21.432 10.5098 21.4549 10.3226 21.7102C10.2542 21.7577 9.83603 21.4549 9.83603 21.4549C9.34751 21.2012 8.8838 21.8521 8.60377 21.8521C7.65173 21.8521 7.6744 21.5476 7.14073 22.2002C7.14073 22.2002 5.98018 22.2686 5.84027 22.3139C5.3746 22.5012 5.28198 22.2686 4.67815 22.5485C4.097 22.8266 4.21425 23.2432 4.07433 23.3149C4.12162 23.3149 3.70325 23.1523 3.70325 23.1523C3.65596 23.1523 3.49318 23.1994 3.37769 23.1994C3.02947 23.2432 2.37836 23.8698 2.37836 23.8698C1.24048 24.4294 0.0783691 27.3077 0.0783691 27.8206C0.0783691 28.0987 0.195616 28.4015 0.311104 28.6796C0.426592 28.8878 0.171189 29.0715 0.218479 29.2605C0.218479 29.4689 0.263814 29.7472 0.263814 30.0007C0.311104 30.3262 0.311104 30.6045 0.333967 30.8617C0.333967 30.8617 0.68219 31.9991 1.19319 32.279L1.51875 32.4647C1.63599 32.5345 1.98441 32.7899 1.98441 32.7899C2.30821 33.3937 2.72639 33.882 3.14476 34.0657C3.49299 34.2074 3.74858 34.0428 4.09681 34.0901C4.42236 34.1585 4.84074 34.5555 4.84074 34.5555C4.95798 34.6239 5.119 34.7412 5.25892 34.8339C5.91003 35.2502 6.28092 35.483 6.6522 35.483C7.04771 35.483 7.32598 35.2992 7.65153 35.1364C7.69882 35.0893 8.39527 34.8792 8.44099 34.8792L10.9735 34.7619C11.0435 34.7619 11.1834 34.7619 11.369 34.811C11.5545 34.8565 11.7628 34.8794 11.9256 34.8794C12.4139 34.8794 12.7393 34.6937 12.9249 34.6237L13.2505 34.3683C13.3886 34.1828 13.6686 33.9519 13.7843 33.9046L14.1097 33.8329C14.4581 33.7645 14.9218 33.6947 15.272 33.3482V33.3937C15.5503 33.1365 15.7357 32.8582 15.8057 32.72C15.8057 32.72 16.4095 32.8582 16.6877 33.0454L17.0362 33.4619C17.1761 33.6719 17.3617 33.9519 17.5944 34.1374C18.2682 34.5557 18.6866 34.7864 19.2203 34.7864C19.4286 34.7864 20.3126 34.741 20.4279 34.7183L20.9618 34.5784C21.2873 34.7183 21.3102 34.8339 21.5201 34.8339C21.8259 34.8339 22.231 34.511 22.4508 34.3347C22.6642 34.3061 22.909 34.2574 23.0988 34.181C23.2389 34.1128 23.517 34.0428 23.5871 33.9955L24.0755 34.2057C24.2136 34.4838 24.5392 34.5993 24.7248 34.5993C24.9349 34.5538 25.0048 34.6466 25.2602 34.5309C25.3759 34.484 25.817 34.3438 25.9342 34.4611C26.4679 34.7393 26.7463 34.9247 27.0717 34.9247C27.28 34.9247 27.4901 34.8094 27.9311 34.6693C28.0712 34.5993 28.3493 34.4838 28.4194 34.4611C28.4194 34.4611 28.6278 34.5764 29.0233 34.5993C30.2764 34.7393 30.6946 34.7866 30.8347 34.7866C31.043 34.7866 31.2529 34.7393 31.5785 34.6466C31.6486 34.5993 31.9269 34.5311 31.9269 34.5311C31.9269 34.5311 32.739 34.6693 33.0646 34.7166C33.8083 34.9021 33.7155 34.972 33.8538 34.972C34.041 34.972 34.272 34.8548 34.8076 34.6466C35.0159 34.5766 35.7599 34.4609 35.7599 34.4609C35.9453 34.5311 36.1536 34.5993 36.409 34.5993C36.7346 34.5993 37.0148 34.4138 37.2702 34.1357C37.3157 34.0884 37.3857 34.0202 37.4086 33.95L37.664 34.0657C37.8041 34.3438 38.1525 34.4611 38.3379 34.4611C38.546 34.4138 38.8261 34.5067 39.0817 34.3911C39.0817 34.3911 39.4072 34.2055 39.4999 34.3212C40.0337 34.5993 40.3122 34.7864 40.6375 34.7864C40.8458 34.7864 41.0559 34.6693 41.497 34.5311C41.6371 34.4611 41.9853 34.3438 42.0552 34.3212C42.0552 34.3212 42.8674 34.4365 43.2629 34.4611C44.5178 34.5993 44.9344 34.6466 45.0743 34.6466C45.2844 34.6466 45.4925 34.5993 45.8183 34.5067C45.8882 34.4611 46.1665 34.3911 46.1665 34.3911C46.1665 34.3911 46.9786 34.5311 47.3042 34.5766C48.0479 34.7621 47.9553 34.8321 48.0936 34.8321C48.2809 34.8321 48.5118 34.7166 49.0473 34.5067C49.2556 34.4365 49.9995 34.321 49.9995 34.321C50.1851 34.3911 50.3933 34.4611 50.6488 34.4611C50.9744 34.4611 51.2544 34.2754 51.5098 33.9955C52.0666 33.5319 52.4849 32.5556 52.4849 32.0918C52.4849 31.3027 52.2764 30.7445 51.8336 30.3262C51.1843 29.6771 51.0916 29.9079 50.5805 29.6526L49.4412 29.6997C49.1629 29.6997 48.4192 29.8399 47.908 29.9781C47.908 29.9781 47.4898 30.1636 47.3515 30.2335C47.2813 30.2808 46.8176 30.118 46.8176 30.118C46.4221 29.9781 46.4676 29.8626 46.2593 29.8626H45.6082L45.1216 29.0033C44.9116 28.1443 45.19 27.6787 45.1672 27.4006L45.3071 26.3314C45.5154 25.6121 45.6326 25.3095 45.6326 25.0785C45.6326 24.6602 45.4927 24.3577 45.3526 24.2195C45.2844 24.0094 45.167 23.8239 45.4228 22.7547C45.4927 22.431 45.3772 21.8028 45.3772 21.8028C45.3772 21.7328 45.26 21.4092 45.2371 21.3392C45.1216 21.1293 44.9817 20.7354 44.9589 20.6183L45.1672 20.0619C45.3528 19.5283 45.4927 19.2482 45.4927 18.9698C45.4927 18.5744 45.3526 18.319 45.1672 18.0408C45.0288 17.6925 44.8416 17.2516 44.8416 16.2997C44.7961 16.1142 44.8889 14.9751 44.8416 13.9532L44.8889 12.4677C44.8889 12.4677 45.0044 12.2121 45.0972 12.0721C45.2145 11.8166 45.3526 11.5385 45.4228 11.1902C45.4927 10.7948 45.4699 10.3765 45.4228 10.0284C45.3772 9.84271 45.3772 9.54014 45.3772 9.54014C45.4228 9.262 45.5629 8.89102 45.7255 8.58825C46.051 7.65904 46.1894 7.33536 46.1894 7.05546C46.1894 6.77713 46.0037 6.45169 45.6555 5.96344C45.5855 5.82525 45.4699 5.61532 45.4454 5.54711C45.4454 5.54711 45.3071 4.80339 45.1898 4.338C45.0044 3.66426 44.8416 2.99227 44.7734 2.38693L44.7261 2.17858L44.586 2.03863C44.4707 1.97041 43.8669 1.31934 43.3084 1.31934C42.8902 1.36488 42.7746 1.31934 42.4263 1.64497H41.9626C41.9626 1.64497 41.7752 1.31953 41.3115 1.31953C40.9631 1.31953 40.4976 1.24956 40.3593 1.38951L39.5 1.45948C38.8962 1.10961 38.8489 1.06407 38.546 1.06407C38.3379 1.06407 38.1978 1.13404 38.0595 1.17939L37.4557 0.901253C36.9202 0.575814 36.6646 0.482971 36.4337 0.482971C34.9704 0.530272 33.9011 3.10779 33.9484 4.24516C33.9484 5.91809 34.946 6.45189 35.7126 6.91708C35.8298 6.91708 36.3164 6.84711 36.409 6.91708C36.4792 6.96262 36.5718 7.3809 36.642 7.49642C36.8974 7.77632 37.1303 7.68367 37.363 7.70634C37.363 7.70634 37.3857 7.6135 37.6413 7.54352C37.6413 7.54352 38.3151 7.96181 38.6633 7.96181C39.0117 7.96181 39.0572 7.68367 39.3373 7.47355L39.5456 7.89183C39.6155 8.1473 39.6628 8.42543 39.7555 8.70553C39.7555 8.70553 40.0337 9.42481 40.2893 9.77273L40.475 10.2383C40.3593 10.4465 40.0337 10.6546 40.0337 10.9347C40.0337 11.1202 40.2666 11.3984 40.3122 11.5839C40.3593 11.794 40.3593 12.1194 40.3593 12.2576L40.1738 12.723C39.9866 12.9784 39.8938 13.2566 39.8938 13.5349C39.8938 14.0931 40.242 14.4641 40.4521 14.6969C40.6377 14.9051 40.7077 14.9751 40.7077 15.1605C40.7077 15.1605 40.5904 15.486 40.522 15.6488C40.4521 15.9043 40.3348 16.1369 40.3348 16.3925C40.1965 16.9961 40.2893 17.6454 40.4048 18.0879C40.4048 18.2034 40.5904 18.9472 40.5904 19.0171L40.522 20.6428C40.522 20.9665 40.4748 21.2463 40.4748 21.5247C40.427 21.8162 40.4036 22.1112 40.4048 22.4066C40.3348 22.8948 40.2666 23.4058 40.2666 23.894L40.7304 24.3348C40.8003 24.4749 40.4521 24.9159 40.4521 24.9857C40.4521 25.1014 40.5676 25.334 40.4521 25.5195C40.3703 25.762 40.3082 26.0107 40.2665 26.2632C40.2665 26.6795 40.2194 27.1224 40.1965 27.5161C40.1494 27.796 40.1265 28.0743 40.1265 28.2598C40.1265 28.4453 39.8709 28.6552 39.8709 28.8178C39.8238 29.0733 39.801 29.5371 39.6855 29.6298L39.0817 29.4216C38.4779 29.2117 38.3379 29.3516 38.1296 29.3516C38.0124 29.3516 37.664 29.2117 37.4785 29.2344C36.9902 29.3043 36.6191 29.4216 36.4792 29.4216C36.4792 29.4216 36.3408 29.3743 36.2009 29.3043C35.7825 29.2344 35.5971 29.2344 35.387 29.2344C34.7148 29.2344 34.2267 29.5842 33.9011 30.048C33.8312 30.048 33.761 30.048 33.6928 30.0953C33.6928 30.0953 33.2746 30.2808 33.1345 30.3508C33.0646 30.3962 32.6007 30.2335 32.6007 30.2335C32.2051 30.0953 32.2524 29.9781 32.0424 29.9781H31.393L31.113 29.1188C30.8574 28.2598 30.9746 27.796 30.9274 27.5161L31.0675 26.4487C31.2758 25.7276 31.393 25.4268 31.393 25.194C31.393 24.7757 31.2531 24.4747 31.1374 24.3348C31.0202 24.1266 30.9276 23.9394 31.183 22.872C31.2531 22.5465 31.1374 21.9201 31.1374 21.9201C31.1374 21.8501 31.0202 21.5247 30.9975 21.4547C30.882 21.2463 30.7419 20.8509 30.7192 20.7354L30.9746 20.1774C31.113 19.6436 31.2531 19.3655 31.2531 19.0854C31.2531 18.6917 31.113 18.4362 30.9746 18.1563C30.7874 17.808 30.6264 17.3671 30.6264 16.4152C30.6264 16.2297 30.672 15.0923 30.672 14.0705V12.583C30.672 12.583 30.7874 12.3276 30.882 12.1876C30.9973 11.9322 31.1374 11.654 31.2058 11.3057C31.2758 10.9103 31.2531 10.4938 31.2058 10.1439C31.1603 9.95822 31.1603 9.65721 31.1603 9.65721C31.2058 9.37732 31.3459 9.00634 31.5085 8.70533C31.8341 7.77632 31.9724 7.45088 31.9724 7.17254C31.9724 6.89265 31.7868 6.56721 31.4858 6.08071C31.3686 5.94076 31.2758 5.7326 31.2302 5.66243C31.2302 5.66243 31.0903 4.91891 30.9746 4.45508C30.7874 3.78153 30.6264 3.10779 30.5565 2.50401L30.5092 2.29409L30.3708 2.1559C30.2536 2.08593 29.6498 1.43505 29.0932 1.43505C28.675 1.48216 28.5578 1.43505 28.2094 1.76049H27.7457C27.7457 1.76049 27.56 1.43505 27.0946 1.43505C26.7463 1.43505 26.2824 1.36488 26.1425 1.50502L25.2831 1.575C24.6793 1.22669 24.401 1.17959 24.0755 1.17959C23.8654 1.17959 23.6799 1.24956 23.54 1.29686L22.8905 1.01677C22.3322 0.693089 22.0768 0.598487 21.8212 0.598487C20.2653 0.645788 18.662 3.2233 18.6848 4.36243C18.7321 6.03361 19.7541 6.56721 20.568 7.0326C20.6835 7.0326 21.1945 7.26519 21.3102 7.3336C21.3801 7.3809 21.3801 7.52085 21.4501 7.63637C21.7057 7.91451 21.914 7.93913 22.3795 7.93913C22.7732 7.93913 22.936 7.58926 23.1916 7.52085C23.1916 7.52085 23.8199 8.07732 24.2136 8.07732C24.562 8.07732 24.8174 7.79899 25.0975 7.58907L25.3058 8.00735C25.3759 8.26281 25.423 8.5429 25.5158 8.82104C25.5158 8.82104 25.7941 9.54013 26.0497 9.88825L26.2353 10.3538C26.1197 10.562 25.817 10.7721 25.817 11.0502C25.817 11.2357 26.0268 11.5156 26.0724 11.7011C26.1197 11.9095 26.1425 12.2347 26.1197 12.3749L25.934 12.8385C25.7468 13.094 25.6542 13.3721 25.6542 13.6522C25.7013 14.2087 26.0024 14.5796 26.2125 14.8124C26.3981 15.0224 26.4679 15.0923 26.4679 15.2776C26.4679 15.2776 26.3506 15.6015 26.2824 15.7643C26.2125 16.0198 26.1425 16.2524 26.0952 16.5078C25.9569 17.1116 26.0497 17.7627 26.2125 18.2034C26.2125 18.319 26.3506 19.0627 26.3506 19.1327L26.2824 20.7583C26.2824 21.0837 26.2351 21.3619 26.2351 21.6402C26.1874 21.9322 26.164 22.2278 26.1652 22.5237C26.0952 23.0104 26.0268 23.5213 26.0268 24.0094L26.4208 24.4503C26.4907 24.5903 26.1896 25.0312 26.1896 25.1012C26.1896 25.2167 26.3051 25.4495 26.1896 25.635C26.1197 25.8449 26.0497 26.1004 26.0497 26.3787C26.0024 26.797 25.9797 27.2377 25.9342 27.6334C25.8869 27.9115 25.8641 28.1896 25.8869 28.3751C25.8419 28.5578 25.8184 28.7452 25.817 28.9333C25.7714 29.1888 25.5387 29.6526 25.423 29.7453L24.7721 29.5371C24.2836 29.3288 24.1683 29.4671 23.9826 29.4671C23.8654 29.4671 23.5871 29.3288 23.4472 29.3516C23.0533 29.4216 23.1234 29.5371 23.0533 29.5371C23.0533 29.5371 22.9133 29.4898 22.7732 29.4216C22.671 29.4003 22.568 29.3827 22.4645 29.3688V29.3692ZM113.577 15.418C114.158 15.6961 114.228 16.4627 114.228 17.0207C114.228 17.5772 113.903 17.8327 113.625 18.3682C113.345 18.9018 112.834 18.6692 112.555 18.8092C111.556 19.2275 110.418 19.4356 109.977 19.4356C109.697 19.4356 108.351 18.8792 108.049 18.8792C107.7 18.8792 107.236 19.1573 106.888 19.1573C106.608 19.1573 106.004 18.739 105.679 18.739C105.33 18.739 104.426 18.9947 104.077 18.9947C103.264 18.9947 103.078 18.7163 103.078 18.1354C103.078 17.5545 103.612 16.2543 104.611 15.9762C104.889 15.8589 105.493 16.0915 105.866 15.7889C106.004 15.6035 106.122 14.907 106.515 14.7215C107.399 14.1633 109.326 13.6297 109.652 13.6297C110.047 13.6297 110.581 14.048 110.975 14.349C111.255 14.4188 111.626 14.3033 111.859 14.4188C112.347 14.6742 113.089 15.1852 113.577 15.418ZM14.8292 25.497L14.6435 27.2397C14.6435 27.5862 13.7843 27.7733 13.3886 28.1216C13.1103 28.2618 12.461 28.7254 12.461 28.7254C12.2738 28.8427 11.9729 29.0491 11.1361 30.4681C11.0888 30.5836 10.8578 30.7464 10.7879 30.7464C10.7406 30.7464 10.5778 30.7009 10.4397 30.6764C10.1614 30.6291 9.62577 30.6047 9.44013 30.6047C9.23202 30.6047 8.83631 30.7237 8.23249 30.8864C8.04704 30.9302 7.9298 31.1647 7.81431 31.2118C7.76878 31.1401 7.18763 31.0246 7.11767 30.9792C6.5838 30.6293 6.8394 30.6293 6.3966 30.6293L5.67729 30.4681C5.28178 30.2828 5.21339 29.8872 4.84074 29.4218C4.72525 29.3065 4.8634 28.9126 4.72525 28.8163C4.53961 28.6798 4.8634 28.4682 4.8634 28.2127C4.8634 28.2127 4.6551 27.8433 5.119 27.3798C5.44456 26.9127 5.51451 26.7043 5.51451 26.7043L6.0728 26.7288C6.0728 26.7288 6.42103 26.4244 6.53671 26.3789L7.44322 26.0552C7.69882 25.868 7.83698 25.7296 7.97709 25.6369C8.04704 25.6369 8.23249 25.5652 8.6282 25.5652C8.90646 25.5652 9.18473 25.2433 9.51028 25.2869C9.51028 25.2869 10.5096 25.4041 10.9278 25.4041C11.3444 25.4041 12.5993 25.0805 13.6915 24.6606C13.807 24.5922 14.0397 24.5451 14.1097 24.5222C14.2254 24.5695 14.318 24.4505 14.318 24.4769C14.5054 24.5222 14.598 24.4296 14.6435 24.5451C14.6435 24.5451 14.7837 24.9614 14.8292 25.497Z" fill="black"/>
</svg>
