<svg width="54" height="36" viewBox="0 0 54 36" fill="none" xmlns="http://www.w3.org/2000/svg">
<path id="architectural-digest" d="M0.443115 35.483H6.45911V35.118H3.62215L7.53023 24.2787H18.4762L22.3843 35.1223H19.0791V35.483H28.3917L15.7547 0.482971L3.26726 35.1095H0.443115V35.483ZM7.65421 23.9372L12.9989 9.11985L18.3436 23.9372H7.65421ZM28.2677 35.483H36.5926C46.2131 35.483 54.0037 29.7976 54.0037 18.2967C54.0037 6.94519 46.5595 1.05919 36.4943 1.05919H24.7188V1.40492H28.2592C28.2592 1.56712 28.2592 35.4744 28.2592 35.4744L28.2677 35.483ZM33.745 35.1095C33.745 34.9601 33.745 1.81681 33.745 1.41346H35.8829C38.3992 1.41346 40.5114 1.54151 42.0699 2.29486C46.2986 4.30309 47.7589 9.39728 47.7589 18.2882C47.7589 26.7266 45.6487 31.7098 42.1747 33.9699C40.5627 34.9729 38.3479 35.1095 36.3896 35.1095H33.745Z" fill="#1D1D1B"/>
</svg>
