<svg width="203" height="133" viewBox="0 0 203 133" fill="none" xmlns="http://www.w3.org/2000/svg">
<path id="architectural-digest" d="M0.0648193 132.983H22.7537V131.607H12.0543L26.7934 90.7268H68.0753L82.8143 131.623H70.3491V132.983H105.471L57.8112 0.982971L10.7159 131.574H0.0648193V132.983ZM27.261 89.4391L47.4182 33.5564L67.5754 89.4391H27.261ZM105.003 132.983H136.4C172.683 132.983 202.065 111.541 202.065 68.1662C202.065 25.3548 173.99 3.15615 136.029 3.15615H91.6189V4.46005H104.971C104.971 5.07174 104.971 132.951 104.971 132.951L105.003 132.983ZM125.66 131.574C125.66 131.011 125.66 6.01345 125.66 4.49225H133.723C143.213 4.49225 151.18 4.97516 157.057 7.81639C173.006 15.3903 178.513 34.6026 178.513 68.1339C178.513 99.9588 170.555 118.753 157.453 127.276C151.373 131.059 143.02 131.574 135.634 131.574H125.66Z" fill="#1D1D1B"/>
</svg>
