<svg width="545" height="108" viewBox="0 0 545 108" fill="none" xmlns="http://www.w3.org/2000/svg">
<g id="bon-appetit" clip-path="url(#clip0_4_9)">
<g id="Group">
<path id="Vector" d="M33.4813 80.6715C48.9609 80.6715 61.7378 67.2657 61.7378 50.7853C61.7378 35.0427 51.1723 24.3427 36.9212 24.3427C29.7956 24.3427 22.5472 28.6473 20.3358 36.1496V12.4129C20.3358 8.96917 20.4587 5.52549 20.5815 2.20481C20.5815 0.728943 19.4758 0.482966 18.7387 0.728943C13.0874 2.69676 7.06753 4.04963 1.41622 5.03354C-0.549452 5.40251 -0.303743 7.6163 1.78478 7.49331C6.57611 7.24733 8.78749 8.60021 8.78749 12.6588V67.7577C8.78749 71.4473 8.66464 75.26 8.54179 79.0726C8.54179 80.0565 8.91035 80.1795 9.27891 80.1795C9.77033 80.1795 10.2617 79.8106 10.9989 79.0726C13.0874 77.1048 15.2988 75.014 17.1416 73.2922C20.0901 77.8427 27.4614 80.6715 33.4813 80.6715ZM20.213 43.037C20.4587 35.2887 26.4786 28.6473 33.3584 28.6473C43.0639 28.6473 49.3295 36.6416 49.3295 52.2611C49.3295 67.0197 43.3096 78.2117 33.3584 78.2117C26.8471 78.2117 20.3358 73.5381 20.213 62.7151V43.037ZM124.271 52.0152C124.271 35.4117 111.985 24.3427 95.7685 24.3427C81.1488 24.3427 68.2491 37.5025 68.2491 52.9991C68.2491 69.4795 80.6574 80.6715 96.6285 80.6715C111.617 80.6715 124.271 67.5117 124.271 52.0152ZM80.6574 52.2611C80.6574 37.3795 86.923 27.0485 96.1371 27.0485C105.597 27.0485 112.108 37.2565 112.108 52.6301C112.108 67.7577 105.72 77.9657 96.5057 77.9657C86.8001 77.9657 80.6574 67.8807 80.6574 52.2611ZM135.573 35.6577V72.3083C135.573 75.7519 133.731 77.1048 128.448 77.3508C126.728 77.3508 126.482 79.8106 128.571 79.6876C136.679 79.4416 145.647 79.4416 153.879 79.6876C155.967 79.8106 155.722 77.3508 154.002 77.3508C148.842 76.9818 147.245 75.6289 147.245 72.3083V44.3899C147.367 34.4278 153.264 29.6312 159.653 29.6312C166.533 29.6312 170.587 33.9358 170.587 42.422V72.3083C170.587 75.7519 169.358 77.1048 164.199 77.3508C162.479 77.3508 162.233 79.8106 164.321 79.6876C172.43 79.4416 181.152 79.4416 189.261 79.6876C191.349 79.8106 191.104 77.3508 189.384 77.3508C184.101 76.9818 182.258 75.6289 182.258 72.3083V43.16C182.258 29.8772 175.01 24.2197 164.444 24.2197C158.056 24.2197 150.562 27.6634 147.49 36.2726V35.2887C147.49 31.845 147.613 28.4014 147.736 25.0807C147.736 23.6048 146.63 23.3588 145.893 23.6048C140.242 25.5726 134.099 27.0485 128.571 27.7864C126.605 28.1554 126.851 30.3692 128.939 30.2462C133.485 30.2462 135.573 31.3531 135.573 35.6577ZM228.697 80.9174C236.314 80.9174 243.317 76.3669 246.265 69.9715V70.5864C246.265 77.2278 250.688 80.7945 256.462 80.7945C261.254 80.7945 264.694 78.7037 266.659 75.383C267.642 73.6611 265.922 72.9232 265.185 74.0301C264.202 75.383 263.219 76.7358 261.254 76.7358C258.919 76.7358 257.691 74.891 257.691 71.3243L257.814 42.422C257.814 28.8933 248.108 24.4657 237.911 24.4657C225.257 24.4657 215.797 32.8289 215.797 40.7002C215.797 43.8979 217.886 46.6037 221.694 46.6037C224.643 46.6037 227.346 44.2669 227.346 41.4381C227.346 37.0106 222.554 37.5025 222.554 34.6738C222.554 32.46 226.854 27.2945 234.963 27.2945C242.088 27.2945 246.265 31.2301 246.265 39.1014V48.4485L230.786 54.5979C217.763 59.6404 214.815 64.437 214.815 69.6025C214.815 76.7358 221.326 80.9174 228.697 80.9174ZM226.363 68.2496C226.363 62.7151 229.434 58.0416 240.245 53.614L246.265 50.9083V63.3301C246.265 69.4795 240.491 75.6289 234.226 75.6289C229.066 75.7519 226.363 72.4312 226.363 68.2496ZM299.093 80.6715C314.573 80.6715 327.227 67.2657 327.227 50.7853C327.227 35.0427 316.661 24.3427 302.41 24.3427C295.407 24.3427 288.036 28.6473 285.825 36.1496V35.4117C285.825 31.968 285.947 28.5243 286.07 25.2037C286.07 23.7278 284.965 23.4818 284.227 23.7278C278.576 25.6956 272.556 27.1715 266.905 27.9094C264.939 28.2784 265.185 30.4922 267.273 30.3692C272.188 30.1232 274.276 31.4761 274.276 35.5347V99.6117C274.276 103.055 272.433 104.408 267.151 104.654C265.431 104.654 265.185 107.114 267.273 106.991C275.628 106.745 284.965 106.745 293.319 106.991C295.407 107.114 295.161 104.654 293.442 104.654C287.79 104.285 285.947 102.932 285.947 99.6117V76.4899C289.633 79.0726 294.793 80.6715 299.093 80.6715ZM285.947 43.037C286.193 35.2887 292.213 28.6473 299.093 28.6473C308.798 28.6473 315.064 36.6416 315.064 52.2611C315.064 67.0197 309.044 78.2117 299.093 78.2117C292.582 78.2117 286.07 73.5381 285.947 62.7151V43.037ZM363.223 80.6715C378.703 80.6715 391.357 67.2657 391.357 50.7853C391.357 35.0427 380.791 24.3427 366.54 24.3427C359.537 24.3427 352.166 28.6473 349.955 36.1496V35.4117C349.955 31.968 350.077 28.5243 350.2 25.2037C350.2 23.7278 349.095 23.4818 348.358 23.7278C342.706 25.6956 336.563 27.1715 331.035 27.9094C329.069 28.2784 329.315 30.4922 331.404 30.3692C336.195 30.1232 338.406 31.4761 338.406 35.5347V99.6117C338.406 103.055 336.564 104.408 331.281 104.654C329.561 104.654 329.315 107.114 331.404 106.991C339.758 106.745 349.095 106.745 357.449 106.991C359.537 107.114 359.292 104.654 357.572 104.654C351.92 104.285 350.077 102.932 350.077 99.6117V76.4899C353.763 79.0726 358.8 80.6715 363.223 80.6715ZM350.077 43.037C350.323 35.2887 356.343 28.6473 363.223 28.6473C372.928 28.6473 379.194 36.6416 379.194 52.2611C379.194 67.0197 373.174 78.2117 363.223 78.2117C356.712 78.2117 350.2 73.5381 350.077 62.7151V43.037ZM416.296 19.0542C423.299 17.5784 429.687 15.1186 434.97 12.4129C438.901 10.322 440.253 7.73929 440.253 5.52549C440.253 2.81975 438.287 0.97492 435.584 0.97492C433.373 0.97492 431.653 2.08182 429.073 5.64848C425.142 11.306 421.825 14.9956 416.05 17.4554C415.436 17.7014 415.19 18.1933 415.313 18.5623C415.313 19.0542 415.805 19.1772 416.296 19.0542ZM424.527 80.7945C434.479 80.7945 443.201 74.891 446.518 66.1588C446.887 65.1749 445.658 64.314 444.921 65.2979C441.113 70.3404 435.584 72.9232 428.336 72.9232C416.788 72.9232 409.785 62.7151 409.785 49.8014C409.785 47.9565 409.908 46.2347 410.153 44.6358L445.044 44.3899C446.641 44.3899 447.01 43.406 446.887 41.9301C446.027 31.3531 435.339 24.4657 425.142 24.4657C410.031 24.4657 398.236 37.7485 398.236 52.8761C398.114 68.8646 409.908 80.7945 424.527 80.7945ZM424.773 27.0485C431.162 27.0485 435.707 31.5991 435.707 38.3634C435.707 40.3312 434.724 41.4381 432.267 41.5611L410.768 42.0531C412.61 33.0749 417.77 27.0485 424.773 27.0485ZM468.141 80.7945C473.792 80.7945 478.583 78.0887 481.655 72.8002C482.515 71.3243 480.918 70.4634 480.058 71.8163C478.829 73.7841 476.618 75.506 474.161 75.506C470.598 75.506 468.755 72.5542 468.755 69.1105V30.4922H479.812C481.778 30.4922 481.778 27.7864 479.812 27.7864H468.755V14.9956C468.755 13.6427 467.158 13.3968 466.544 14.7496C462.735 22.8669 456.101 27.1715 449.344 28.4014C448.115 28.6473 448.115 30.4922 449.59 30.4922H457.33V69.6025C457.33 76.4899 461.998 80.7945 468.141 80.7945ZM505.12 7.98526C505.12 4.04963 501.803 0.851932 497.994 0.851932C494.063 0.851932 490.869 4.17262 490.869 7.98526C490.869 11.7979 494.186 15.1186 497.994 15.1186C501.926 15.2416 505.12 12.0439 505.12 7.98526ZM492.097 35.6577V72.3083C492.097 75.7519 490.255 77.1048 484.972 77.3508C483.252 77.3508 483.006 79.8106 485.095 79.6876C493.203 79.4416 502.54 79.4416 510.648 79.6876C512.737 79.8106 512.491 77.3508 510.771 77.3508C505.489 76.9818 503.646 75.6289 503.646 72.3083V35.4117C503.646 31.968 503.769 28.5243 503.891 25.2037C503.891 23.7278 502.786 23.4818 502.049 23.7278C496.766 25.6956 490.746 27.1715 485.463 27.9094C483.498 28.2784 483.743 30.4922 485.832 30.3692C490.255 30.2462 492.097 31.3531 492.097 35.6577ZM529.691 80.7945C535.342 80.7945 540.134 78.0887 543.205 72.8002C544.065 71.3243 542.468 70.4634 541.608 71.8163C540.379 73.7841 538.168 75.506 535.711 75.506C532.148 75.506 530.305 72.5542 530.305 69.1105V30.4922H541.362C543.328 30.4922 543.328 27.7864 541.362 27.7864H530.305V14.9956C530.305 13.6427 528.708 13.3968 528.094 14.7496C524.285 22.8669 517.283 27.1715 510.403 28.4014C509.174 28.6473 509.174 30.4922 510.648 30.4922H518.88V69.6025C519.003 76.4899 523.548 80.7945 529.691 80.7945Z" fill="black"/>
</g>
</g>
<defs>
<clipPath id="clip0_4_9">
<rect width="544" height="107" fill="white" transform="translate(0.0648193 0.482971)"/>
</clipPath>
</defs>
</svg>
