<svg width="179" height="36" viewBox="0 0 179 36" fill="none" xmlns="http://www.w3.org/2000/svg">
<g id="bon-appetit" clip-path="url(#clip0_4_9)">
<g id="Group">
<path id="Vector" d="M11.5764 26.7129C16.6398 26.7129 20.8192 22.3278 20.8192 16.937C20.8192 11.7876 17.3632 8.28757 12.7016 8.28757C10.3708 8.28757 7.99983 9.69562 7.27648 12.1496V4.38527C7.27648 3.25883 7.31666 2.1324 7.35685 1.04619C7.35685 0.563431 6.99517 0.482972 6.75406 0.563431C4.9055 1.20711 2.93638 1.64964 1.08782 1.97148C0.444843 2.09217 0.525215 2.8163 1.20838 2.77608C2.77564 2.69562 3.49898 3.13814 3.49898 4.46573V22.4887C3.49898 23.6956 3.4588 24.9427 3.41861 26.1899C3.41861 26.5117 3.53917 26.5519 3.65973 26.5519C3.82047 26.5519 3.98122 26.4312 4.22233 26.1899C4.9055 25.5462 5.62885 24.8623 6.23164 24.2991C7.1961 25.7876 9.60727 26.7129 11.5764 26.7129ZM7.23629 14.4025C7.31666 11.868 9.28578 9.69562 11.5362 9.69562C14.7109 9.69562 16.7604 12.3106 16.7604 17.4198C16.7604 22.2473 14.7913 25.9083 11.5362 25.9083C9.40634 25.9083 7.27648 24.3795 7.23629 20.8393V14.4025ZM41.2739 17.3393C41.2739 11.9083 37.2553 8.28757 31.9507 8.28757C27.1686 8.28757 22.949 12.5922 22.949 17.6611C22.949 23.0519 27.0078 26.7129 32.232 26.7129C37.1347 26.7129 41.2739 22.4083 41.2739 17.3393ZM27.0078 17.4198C27.0078 12.5519 29.0573 9.17263 32.0713 9.17263C35.1656 9.17263 37.2955 12.5117 37.2955 17.5404C37.2955 22.4887 35.2058 25.8278 32.1918 25.8278C29.0171 25.8278 27.0078 22.5289 27.0078 17.4198ZM44.971 11.9887V23.9772C44.971 25.1037 44.3682 25.5462 42.6402 25.6267C42.0776 25.6267 41.9972 26.4312 42.6804 26.391C45.3327 26.3106 48.2663 26.3106 50.9587 26.391C51.6419 26.4312 51.5615 25.6267 50.9989 25.6267C49.3111 25.506 48.7887 25.0634 48.7887 23.9772V14.845C48.8289 11.5864 50.7578 10.0175 52.8475 10.0175C55.0979 10.0175 56.424 11.4255 56.424 14.2014V23.9772C56.424 25.1037 56.0222 25.5462 54.3344 25.6267C53.7718 25.6267 53.6914 26.4312 54.3746 26.391C57.0268 26.3106 59.88 26.3106 62.5323 26.391C63.2155 26.4312 63.1351 25.6267 62.5725 25.6267C60.8445 25.506 60.2417 25.0634 60.2417 23.9772V14.4427C60.2417 10.0979 57.8707 8.24734 54.4147 8.24734C52.3251 8.24734 49.8737 9.37378 48.8691 12.1899V11.868C48.8691 10.7416 48.9092 9.61516 48.9494 8.52895C48.9494 8.04619 48.5878 7.96573 48.3466 8.04619C46.4981 8.68987 44.4888 9.17263 42.6804 9.41401C42.0374 9.5347 42.1178 10.2588 42.801 10.2186C44.2878 10.2186 44.971 10.5807 44.971 11.9887ZM75.4321 26.7933C77.9236 26.7933 80.2142 25.3048 81.1787 23.2129V23.414C81.1787 25.5864 82.6254 26.7531 84.5141 26.7531C86.0814 26.7531 87.2066 26.0692 87.8496 24.983C88.171 24.4198 87.6084 24.1784 87.3673 24.5404C87.0458 24.983 86.7243 25.4255 86.0814 25.4255C85.3178 25.4255 84.916 24.8221 84.916 23.6554L84.9562 14.2014C84.9562 9.77608 81.7815 8.3278 78.446 8.3278C74.3068 8.3278 71.2125 11.0634 71.2125 13.6381C71.2125 14.6841 71.8957 15.5692 73.1414 15.5692C74.1059 15.5692 74.99 14.8048 74.99 13.8795C74.99 12.4312 73.4228 12.5922 73.4228 11.6669C73.4228 10.9427 74.8293 9.25309 77.4815 9.25309C79.8123 9.25309 81.1787 10.5404 81.1787 13.1152V16.1726L76.1152 18.1841C71.8555 19.8335 70.891 21.4025 70.891 23.0922C70.891 25.4255 73.0209 26.7933 75.4321 26.7933ZM74.6685 22.6496C74.6685 20.8393 75.6732 19.3106 79.2095 17.8623L81.1787 16.9772V21.0404C81.1787 23.0519 79.2899 25.0634 77.2404 25.0634C75.5526 25.1037 74.6685 24.0175 74.6685 22.6496ZM98.4587 26.7129C103.522 26.7129 107.661 22.3278 107.661 16.937C107.661 11.7876 104.205 8.28757 99.5437 8.28757C97.2531 8.28757 94.8419 9.69562 94.1186 12.1496V11.9083C94.1186 10.7818 94.1588 9.65539 94.199 8.56918C94.199 8.08642 93.8373 8.00596 93.5962 8.08642C91.7476 8.7301 89.7785 9.21286 87.9299 9.45424C87.2869 9.57493 87.3673 10.2991 88.0505 10.2588C89.6579 10.1784 90.3411 10.6209 90.3411 11.9485V32.9083C90.3411 34.0347 89.7383 34.4772 88.0103 34.5577C87.4477 34.5577 87.3673 35.3623 88.0505 35.3221C90.7831 35.2416 93.8373 35.2416 96.5699 35.3221C97.2531 35.3623 97.1727 34.5577 96.6101 34.5577C94.7616 34.437 94.1588 33.9945 94.1588 32.9083V25.345C95.3643 26.1899 97.0522 26.7129 98.4587 26.7129ZM94.1588 14.4025C94.2391 11.868 96.2083 9.69562 98.4587 9.69562C101.633 9.69562 103.683 12.3106 103.683 17.4198C103.683 22.2473 101.714 25.9083 98.4587 25.9083C96.3288 25.9083 94.199 24.3795 94.1588 20.8393V14.4025ZM119.436 26.7129C124.499 26.7129 128.638 22.3278 128.638 16.937C128.638 11.7876 125.182 8.28757 120.521 8.28757C118.23 8.28757 115.819 9.69562 115.096 12.1496V11.9083C115.096 10.7818 115.136 9.65539 115.176 8.56918C115.176 8.08642 114.814 8.00596 114.573 8.08642C112.725 8.7301 110.715 9.21286 108.907 9.45424C108.264 9.57493 108.344 10.2991 109.028 10.2588C110.595 10.1784 111.318 10.6209 111.318 11.9485V32.9083C111.318 34.0347 110.715 34.4772 108.987 34.5577C108.425 34.5577 108.344 35.3623 109.028 35.3221C111.76 35.2416 114.814 35.2416 117.547 35.3221C118.23 35.3623 118.15 34.5577 117.587 34.5577C115.739 34.437 115.136 33.9945 115.136 32.9083V25.345C116.341 26.1899 117.989 26.7129 119.436 26.7129ZM115.136 14.4025C115.216 11.868 117.185 9.69562 119.436 9.69562C122.611 9.69562 124.66 12.3106 124.66 17.4198C124.66 22.2473 122.691 25.9083 119.436 25.9083C117.306 25.9083 115.176 24.3795 115.136 20.8393V14.4025ZM136.796 6.55768C139.087 6.07493 141.176 5.27033 142.904 4.38527C144.19 3.70136 144.632 2.85653 144.632 2.1324C144.632 1.24734 143.99 0.643891 143.105 0.643891C142.382 0.643891 141.819 1.00596 140.976 2.17263C139.69 4.0232 138.605 5.2301 136.716 6.0347C136.515 6.11516 136.435 6.27608 136.475 6.39676C136.475 6.55768 136.635 6.59791 136.796 6.55768ZM139.489 26.7531C142.744 26.7531 145.597 24.8221 146.682 21.9657C146.803 21.6439 146.401 21.3623 146.16 21.6841C144.914 23.3335 143.105 24.1784 140.734 24.1784C136.957 24.1784 134.666 20.8393 134.666 16.6152C134.666 16.0117 134.707 15.4485 134.787 14.9255L146.2 14.845C146.722 14.845 146.843 14.5232 146.803 14.0404C146.521 10.5807 143.025 8.3278 139.69 8.3278C134.747 8.3278 130.889 12.6726 130.889 17.6209C130.849 22.8508 134.707 26.7531 139.489 26.7531ZM139.569 9.17263C141.659 9.17263 143.146 10.6611 143.146 12.8738C143.146 13.5175 142.824 13.8795 142.02 13.9198L134.988 14.0807C135.591 11.1439 137.278 9.17263 139.569 9.17263ZM153.755 26.7531C155.603 26.7531 157.171 25.868 158.175 24.1381C158.456 23.6554 157.934 23.3738 157.653 23.8163C157.251 24.46 156.528 25.0232 155.724 25.0232C154.558 25.0232 153.956 24.0577 153.956 22.9312V10.2991H157.572C158.215 10.2991 158.215 9.41401 157.572 9.41401H153.956V5.2301C153.956 4.78757 153.433 4.70711 153.232 5.14964C151.987 7.80481 149.816 9.21286 147.606 9.61516C147.204 9.69562 147.204 10.2991 147.687 10.2991H150.218V23.0922C150.218 25.345 151.745 26.7531 153.755 26.7531ZM165.851 2.93699C165.851 1.64964 164.766 0.603661 163.52 0.603661C162.234 0.603661 161.189 1.68987 161.189 2.93699C161.189 4.18412 162.274 5.27033 163.52 5.27033C164.806 5.31056 165.851 4.26458 165.851 2.93699ZM161.591 11.9887V23.9772C161.591 25.1037 160.988 25.5462 159.26 25.6267C158.698 25.6267 158.617 26.4312 159.3 26.391C161.953 26.3106 165.007 26.3106 167.659 26.391C168.342 26.4312 168.262 25.6267 167.699 25.6267C165.971 25.506 165.368 25.0634 165.368 23.9772V11.9083C165.368 10.7818 165.409 9.65539 165.449 8.56918C165.449 8.08642 165.087 8.00596 164.846 8.08642C163.118 8.7301 161.149 9.21286 159.421 9.45424C158.778 9.57493 158.858 10.2991 159.542 10.2588C160.988 10.2186 161.591 10.5807 161.591 11.9887ZM173.888 26.7531C175.737 26.7531 177.304 25.868 178.308 24.1381C178.59 23.6554 178.067 23.3738 177.786 23.8163C177.384 24.46 176.661 25.0232 175.857 25.0232C174.692 25.0232 174.089 24.0577 174.089 22.9312V10.2991H177.706C178.349 10.2991 178.349 9.41401 177.706 9.41401H174.089V5.2301C174.089 4.78757 173.566 4.70711 173.366 5.14964C172.12 7.80481 169.829 9.21286 167.579 9.61516C167.177 9.69562 167.177 10.2991 167.659 10.2991H170.352V23.0922C170.392 25.345 171.879 26.7531 173.888 26.7531Z" fill="black"/>
</g>
</g>
<defs>
<clipPath id="clip0_4_9">
<rect width="177.944" height="35" fill="white" transform="translate(0.645752 0.482971)"/>
</clipPath>
</defs>
</svg>
