<svg width="135" height="36" viewBox="0 0 135 36" fill="none" xmlns="http://www.w3.org/2000/svg">
<g id="Clever" clip-path="url(#clip0_4_100)">
<path id="Vector" fill-rule="evenodd" clip-rule="evenodd" d="M25.4865 24.3267C23.7132 27.0077 20.6951 28.8767 17.2468 28.8767C11.7372 28.8767 7.71301 24.2795 7.71301 18.5815C7.71301 12.8362 11.7372 8.23897 17.2468 8.23897C20.6477 8.23897 23.5218 9.96272 25.2934 12.5492L30.9943 8.62047C28.1202 4.40997 23.1391 1.63272 17.2468 1.63272C7.80957 1.63272 0.672424 9.19622 0.672424 18.5815C0.672424 27.8705 7.80957 35.483 17.2468 35.483C23.2339 35.483 28.2641 32.6095 31.1383 28.2537L25.4865 24.3267ZM34.7956 0.482971V35.0035H41.4534V0.482971H34.7956ZM61.9097 27.6307L66.7486 30.9347C64.4977 34.286 60.3295 35.483 56.5459 35.483C50.1268 35.483 44.8578 30.7912 44.8578 23.7527C44.8578 16.7142 50.1251 12.166 56.5459 12.166C62.9157 12.166 67.9934 16.905 67.9934 23.9435C67.9934 24.5192 67.946 25.4275 67.8986 26.0032H51.5156C51.8492 28.588 54.676 29.7377 57.0234 29.7377C58.8442 29.7377 60.8088 29.0675 61.9097 27.6307ZM51.6104 21.8382H61.2882C60.9528 19.1082 58.4614 18.0057 56.5933 18.0057C54.7251 18.0057 52.1863 19.012 51.6104 21.8382ZM76.3648 30.3572L79.1618 35.483L82.064 30.3572L91.5504 12.6455H84.4132L79.239 23.646L74.0192 12.6455H66.9294L76.3648 30.3572ZM107.679 27.6307L112.518 30.9347C110.267 34.286 106.099 35.483 102.315 35.483C95.8959 35.483 90.6269 30.7912 90.6269 23.7527C90.6269 16.7142 95.8941 12.166 102.315 12.166C108.685 12.166 113.762 16.905 113.762 23.9435C113.762 24.5192 113.715 25.4275 113.668 26.0032H97.2847C97.62 28.588 100.445 29.7377 102.794 29.7377C104.613 29.7377 106.578 29.0675 107.679 27.6307ZM97.3813 21.8382H107.055C106.722 19.1082 104.23 18.0057 102.362 18.0057C100.494 18.0057 97.9554 19.012 97.3813 21.8382ZM123.584 27.2002C123.584 21.3115 125.31 18.2927 129.141 18.2927C130.195 18.2927 131.345 18.3907 132.542 18.9647L133.739 12.9797C132.686 12.453 131.489 12.166 129.908 12.166C127.608 12.166 124.734 13.8897 123.584 18.0547V12.6437H116.926V35.0035H123.584V27.2002Z" fill="black"/>
</g>
<defs>
<clipPath id="clip0_4_100">
<rect width="133.438" height="35" fill="white" transform="translate(0.672424 0.482971)"/>
</clipPath>
</defs>
</svg>
