<svg width="306" height="81" viewBox="0 0 306 81" fill="none" xmlns="http://www.w3.org/2000/svg">
<g id="Clever" clip-path="url(#clip0_4_100)">
<path id="Vector" fill-rule="evenodd" clip-rule="evenodd" d="M56.7828 54.983C52.7295 61.111 45.8309 65.383 37.949 65.383C25.3557 65.383 16.1576 54.875 16.1576 41.851C16.1576 28.719 25.3557 18.211 37.949 18.211C45.7225 18.211 52.2921 22.151 56.3413 28.063L69.3721 19.083C62.8025 9.45897 51.4172 3.11097 37.949 3.11097C16.3783 3.11097 0.0648193 20.399 0.0648193 41.851C0.0648193 63.083 16.3783 80.483 37.949 80.483C51.6339 80.483 63.1316 73.915 69.7011 63.959L56.7828 54.983ZM78.0605 0.482971V79.387H93.2784V0.482971H78.0605ZM140.036 62.535L151.096 70.087C145.951 77.747 136.424 80.483 127.776 80.483C113.103 80.483 101.06 69.759 101.06 53.671C101.06 37.583 113.099 27.187 127.776 27.187C142.335 27.187 153.941 38.019 153.941 54.107C153.941 55.423 153.833 57.499 153.725 58.815H116.278C117.04 64.723 123.502 67.351 128.867 67.351C133.029 67.351 137.519 65.819 140.036 62.535ZM116.495 49.295H138.615C137.849 43.055 132.154 40.535 127.884 40.535C123.614 40.535 117.811 42.835 116.495 49.295ZM173.076 68.767L179.469 80.483L186.103 68.767L207.786 28.283H191.472L179.646 53.427L167.714 28.283H151.509L173.076 68.767ZM244.651 62.535L255.711 70.087C250.566 77.747 241.039 80.483 232.391 80.483C217.718 80.483 205.675 69.759 205.675 53.671C205.675 37.583 217.714 27.187 232.391 27.187C246.95 27.187 258.556 38.019 258.556 54.107C258.556 55.423 258.448 57.499 258.34 58.815H220.893C221.659 64.723 228.117 67.351 233.486 67.351C237.644 67.351 242.134 65.819 244.651 62.535ZM221.114 49.295H243.226C242.464 43.055 236.769 40.535 232.499 40.535C228.229 40.535 222.426 42.835 221.114 49.295ZM281.006 61.551C281.006 48.091 284.951 41.191 293.708 41.191C296.115 41.191 298.744 41.415 301.481 42.727L304.218 29.047C301.81 27.843 299.073 27.187 295.461 27.187C290.204 27.187 283.635 31.127 281.006 40.647V28.279H265.788V79.387H281.006V61.551Z" fill="black"/>
</g>
<defs>
<clipPath id="clip0_4_100">
<rect width="305" height="80" fill="white" transform="translate(0.0648193 0.482971)"/>
</clipPath>
</defs>
</svg>
