<svg width="170" height="36" viewBox="0 0 170 36" fill="none" xmlns="http://www.w3.org/2000/svg">
<g id="epicurious" clip-path="url(#clip0_4_18)">
<path id="Vector" d="M28.4294 24.8668C27.6175 24.8668 27.1538 24.5168 26.9212 24.0492V11.5668C27.385 11.2168 27.9657 10.983 28.662 10.983C31.099 10.983 31.6797 14.133 31.6797 17.633C31.6797 22.883 30.1701 24.8668 28.4294 24.8668ZM31.3316 8.06677C30.486 8.05684 29.6493 8.2408 28.8851 8.60469C28.1209 8.96857 27.4493 9.5028 26.9212 10.1668L26.8056 8.41677H20.422V35.483H27.0368V26.4992C27.9657 27.3168 29.2427 27.6668 30.6353 27.6668C35.0442 27.6668 38.2945 23.4668 38.2945 17.8668C38.1775 12.6168 35.9731 8.06677 31.3316 8.06677ZM104.442 8.53297H110.94V27.1992H104.442V8.53297ZM102.702 12.033C102.702 14.2492 101.425 15.6492 99.4514 15.6492C97.4795 15.6492 96.4351 14.2492 96.4351 12.8492C96.4351 12.383 96.5507 11.4492 97.0144 10.7492C96.2025 10.283 93.8811 11.2168 93.0692 13.8992V27.1992H86.57V8.53297H92.9536L93.0692 11.683C94.2292 9.46677 96.0869 8.18297 98.2914 8.18297C101.192 8.06677 102.702 9.93297 102.702 12.033ZM77.4026 8.53297H84.0174V27.1992H77.4026V22.9992C76.7063 24.8668 75.1981 27.5492 71.7166 27.5492C68.2352 27.5492 66.4944 24.7492 66.4944 21.833V11.2168C66.4944 9.81677 66.1463 9.11677 65.5656 8.88297V8.53297H72.9922V20.083C72.9922 22.883 74.2692 23.1168 74.9655 23.1168C76.01 23.1168 76.8219 22.183 77.287 20.8992C77.4026 16.8168 77.4026 8.53297 77.4026 8.53297ZM168.85 21.133C168.85 24.8668 165.484 27.5492 160.725 27.5492C158.173 27.5492 155.736 26.2668 154.459 26.2668C153.414 26.2668 153.183 26.4992 153.183 26.4992L152.951 21.3668H153.531C156.199 24.8668 157.94 26.383 160.725 26.383C162.466 26.383 163.976 25.4492 163.976 24.0492C163.976 22.4168 162.466 22.0668 160.377 21.483C154.691 19.9668 153.066 17.5168 153.066 14.2492C153.066 10.5168 156.316 8.06677 160.262 8.06677C161.654 8.06677 162.931 8.29917 163.859 8.64917C164.439 8.88297 166.18 9.58297 167.457 9.58297V14.5992H166.876C164.672 11.333 162.699 9.23297 160.262 9.23297C158.753 9.23297 157.825 10.1668 157.825 11.4492C157.825 12.9668 159.217 13.433 161.77 14.133C166.528 15.533 168.85 17.283 168.85 21.133ZM144.362 8.53297H150.977V27.1992H144.362V22.9992C143.666 24.8668 142.158 27.5492 138.676 27.5492C135.195 27.5492 133.454 24.7492 133.454 21.833V11.2168C133.454 9.81677 133.106 9.11677 132.525 8.88297V8.53297H139.953V20.083C139.953 22.883 141.229 23.1168 141.925 23.1168C142.97 23.1168 143.783 22.183 144.247 20.8992C144.362 16.8168 144.362 8.53297 144.362 8.53297ZM122.198 26.4992C120.34 26.4992 119.644 23.933 119.644 17.8668C119.644 11.7992 120.34 9.23297 122.198 9.23297C124.054 9.23297 124.751 11.7992 124.751 17.8668C124.751 23.933 124.054 26.4992 122.198 26.4992ZM122.198 8.06677C116.279 8.06677 112.798 12.383 112.798 17.8668C112.798 23.233 116.279 27.6668 122.198 27.6668C128.116 27.6668 131.598 23.3492 131.598 17.8668C131.598 12.383 128.116 8.06677 122.198 8.06677ZM40.0352 8.53297H46.5331V27.1992H39.9183L40.0352 8.53297ZM64.5211 21.0168L64.9849 21.133C64.5211 23.583 62.1997 27.6668 57.0944 27.6668C51.2915 27.6668 48.5064 23.1168 48.5064 17.8668C48.5064 12.2668 52.2204 8.06677 57.6738 8.06677C61.7359 8.06677 64.2886 10.283 64.2886 12.6168C64.2886 14.0168 63.2441 15.183 61.6204 15.183C60.4589 15.183 59.2989 14.133 59.2989 12.733C59.2989 11.333 60.1108 10.633 61.0397 10.5168C60.6915 9.93297 60.1108 9.46677 59.0664 9.46677C57.3256 9.46677 55.2367 11.683 55.2367 17.0492C55.2367 20.5492 56.9775 23.6992 60.4589 23.6992C63.2441 23.6992 64.5211 21.0168 64.5211 21.0168ZM104.442 3.51677C104.442 1.88297 105.835 0.482971 107.691 0.482971C109.548 0.482971 110.94 1.76677 110.94 3.51677C110.94 5.14917 109.548 6.54917 107.691 6.54917C105.951 6.43297 104.442 5.14917 104.442 3.51677ZM40.1508 3.51677C40.1508 1.88297 41.5434 0.482971 43.3997 0.482971C45.0249 0.482971 46.5331 1.76677 46.5331 3.51677C46.5331 5.26677 45.1405 6.54917 43.2841 6.54917C41.5434 6.43297 40.1508 5.14917 40.1508 3.51677ZM8.12128 18.2168C7.54057 14.133 8.70199 9.69917 10.3257 9.69917C11.9509 9.69917 12.6472 13.083 12.6472 16.933L8.12128 18.2168ZM10.3257 8.18297C4.29166 8.18297 0.810188 12.733 0.810188 17.983C0.810188 21.133 2.08719 23.933 4.29166 25.7992C5.68425 27.083 7.65755 27.783 9.9776 27.783C16.0131 27.783 18.102 22.7668 18.4501 21.2492V21.133L17.985 21.0168C17.985 21.0168 15.8961 23.6992 12.8798 23.6992C11.9509 23.6992 11.022 23.3492 10.2102 22.7668C9.28131 22.0668 8.70199 20.8992 8.46943 19.733L18.7983 16.8168V16.6992C18.5657 11.7992 14.9686 8.18297 10.3257 8.18297Z" fill="#EB0000"/>
</g>
<defs>
<clipPath id="clip0_4_18">
<rect width="169.896" height="35" fill="white" transform="translate(0.113892 0.482971)"/>
</clipPath>
</defs>
</svg>
