<svg width="467" height="97" viewBox="0 0 467 97" fill="none" xmlns="http://www.w3.org/2000/svg">
<g id="epicurious" clip-path="url(#clip0_4_18)">
<path id="Vector" d="M77.7302 67.8642C75.5034 67.8642 74.2314 66.9042 73.5935 65.6216V31.3842C74.8655 30.4242 76.4583 29.7829 78.3681 29.7829C85.0525 29.7829 86.6453 38.4229 86.6453 48.0229C86.6453 62.4229 82.5048 67.8642 77.7302 67.8642ZM85.6904 21.7842C83.3712 21.7569 81.0764 22.2615 78.9802 23.2596C76.8841 24.2577 75.0419 25.723 73.5935 27.5442L73.2765 22.7442H55.7671V96.9829H73.9106V72.3416C76.4583 74.5842 79.9609 75.5442 83.7806 75.5442C95.8737 75.5442 104.789 64.0242 104.789 48.6642C104.468 34.2642 98.4214 21.7842 85.6904 21.7842ZM286.223 23.0629H304.046V74.2616H286.223V23.0629ZM281.449 32.6629C281.449 38.7416 277.946 42.5816 272.534 42.5816C267.125 42.5816 264.26 38.7416 264.26 34.9016C264.26 33.6229 264.577 31.0616 265.849 29.1416C263.622 27.8629 257.255 30.4242 255.028 37.7816V74.2616H237.202V23.0629H254.711L255.028 31.7029C258.21 25.6242 263.305 22.1029 269.352 22.1029C277.308 21.7842 281.449 26.9029 281.449 32.6629ZM212.057 23.0629H230.2V74.2616H212.057V62.7416C210.147 67.8642 206.01 75.2216 196.461 75.2216C186.912 75.2216 182.137 67.5416 182.137 59.5429V30.4242C182.137 26.5842 181.182 24.6642 179.589 24.0229V23.0629H199.96V54.7429C199.96 62.4229 203.462 63.0642 205.372 63.0642C208.237 63.0642 210.464 60.5029 211.74 56.9816C212.057 45.7842 212.057 23.0629 212.057 23.0629ZM462.883 57.6229C462.883 67.8642 453.651 75.2216 440.599 75.2216C433.598 75.2216 426.913 71.7042 423.411 71.7042C420.546 71.7042 419.912 72.3416 419.912 72.3416L419.274 58.2642H420.867C428.185 67.8642 432.96 72.0229 440.599 72.0229C445.374 72.0229 449.514 69.4616 449.514 65.6216C449.514 61.1442 445.374 60.1842 439.644 58.5829C424.048 54.4242 419.591 47.7042 419.591 38.7416C419.591 28.5042 428.506 21.7842 439.327 21.7842C443.147 21.7842 446.649 22.4216 449.193 23.3816C450.786 24.0229 455.561 25.9429 459.063 25.9429V39.7016H457.471C451.424 30.7429 446.012 24.9829 439.327 24.9829C435.19 24.9829 432.643 27.5442 432.643 31.0616C432.643 35.2242 436.462 36.5029 443.464 38.4229C456.516 42.2629 462.883 47.0629 462.883 57.6229ZM395.718 23.0629H413.861V74.2616H395.718V62.7416C393.808 67.8642 389.671 75.2216 380.122 75.2216C370.573 75.2216 365.798 67.5416 365.798 59.5429V30.4242C365.798 26.5842 364.844 24.6642 363.251 24.0229V23.0629H383.625V54.7429C383.625 62.4229 387.124 63.0642 389.034 63.0642C391.898 63.0642 394.129 60.5029 395.401 56.9816C395.718 45.7842 395.718 23.0629 395.718 23.0629ZM334.924 72.3416C329.829 72.3416 327.919 65.3029 327.919 48.6642C327.919 32.0216 329.829 24.9829 334.924 24.9829C340.016 24.9829 341.925 32.0216 341.925 48.6642C341.925 65.3029 340.016 72.3416 334.924 72.3416ZM334.924 21.7842C318.69 21.7842 309.141 33.6229 309.141 48.6642C309.141 63.3829 318.69 75.5442 334.924 75.5442C351.158 75.5442 360.707 63.7016 360.707 48.6642C360.707 33.6229 351.158 21.7842 334.924 21.7842ZM109.563 23.0629H127.386V74.2616H109.243L109.563 23.0629ZM176.725 57.3042L177.997 57.6229C176.725 64.3429 170.357 75.5442 156.354 75.5442C140.438 75.5442 132.798 63.0642 132.798 48.6642C132.798 33.3042 142.986 21.7842 157.943 21.7842C169.085 21.7842 176.087 27.8629 176.087 34.2642C176.087 38.1042 173.222 41.3029 168.768 41.3029C165.583 41.3029 162.401 38.4229 162.401 34.5829C162.401 30.7429 164.628 28.8229 167.175 28.5042C166.221 26.9029 164.628 25.6242 161.763 25.6242C156.988 25.6242 151.259 31.7029 151.259 46.4216C151.259 56.0216 156.034 64.6616 165.583 64.6616C173.222 64.6616 176.725 57.3042 176.725 57.3042ZM286.223 9.30419C286.223 4.82291 290.043 0.98291 295.135 0.98291C300.226 0.98291 304.046 4.50419 304.046 9.30419C304.046 13.7816 300.226 17.6216 295.135 17.6216C290.36 17.3029 286.223 13.7816 286.223 9.30419ZM109.88 9.30419C109.88 4.82291 113.7 0.98291 118.792 0.98291C123.249 0.98291 127.386 4.50419 127.386 9.30419C127.386 14.1042 123.566 17.6216 118.475 17.6216C113.7 17.3029 109.88 13.7816 109.88 9.30419ZM22.0279 49.6242C20.4351 38.4229 23.6208 26.2616 28.0745 26.2616C32.532 26.2616 34.4419 35.5429 34.4419 46.1029L22.0279 49.6242ZM28.0745 22.1029C11.5239 22.1029 1.97467 34.5829 1.97467 48.9829C1.97467 57.6229 5.47731 65.3029 11.5239 70.4216C15.3435 73.9429 20.756 75.8629 27.1196 75.8629C43.674 75.8629 49.4035 62.1042 50.3585 57.9416V57.6229L49.0827 57.3042C49.0827 57.3042 43.3532 64.6616 35.0798 64.6616C32.532 64.6616 29.9843 63.7016 27.7575 62.1042C25.2097 60.1842 23.6208 56.9816 22.9829 53.7829L51.3134 45.7842V45.4616C50.6755 32.0216 40.8093 22.1029 28.0745 22.1029Z" fill="#EB0000"/>
</g>
<defs>
<clipPath id="clip0_4_18">
<rect width="466" height="96" fill="white" transform="translate(0.0648193 0.98291)"/>
</clipPath>
</defs>
</svg>
