<svg width="475" height="120" viewBox="0 0 475 120" fill="none" xmlns="http://www.w3.org/2000/svg">
<g id="glamour">
<g id="Group">
<path id="Vector" d="M141.455 94.636H129.188V19.904H113.586V99.158H129.545H141.455V94.636Z" fill="black"/>
<g id="Group_2">
<path id="Vector_2" d="M163.011 19.904L144.551 99.158H149.315L157.294 64.886H173.015L179.565 99.158H195.286L177.66 19.904H163.011ZM158.366 60.245L165.988 27.758L172.181 60.245H158.366Z" fill="black"/>
</g>
<path id="Vector_3" d="M240.423 19.904L227.799 74.525L216.485 19.904H203.742L199.097 20.023V99.158H203.742V30.852L206.6 42.157L219.462 99.158H226.132H226.846L241.852 35.255V99.158H257.573V19.904H240.423Z" fill="black"/>
<path id="Vector_4" d="M278.415 45.251C278.415 45.251 278.295 55.604 278.295 59.769C278.295 63.934 278.415 73.811 278.415 73.811C278.415 85.473 281.273 94.517 289.133 94.517C296.993 94.517 299.852 85.473 299.852 73.811C299.852 73.811 299.971 63.934 299.971 59.769C299.971 55.604 299.852 45.251 299.852 45.251C299.852 33.589 296.993 24.545 289.133 24.545C281.273 24.545 278.415 33.589 278.415 45.251ZM315.691 59.531C315.691 97.968 293.421 99.158 289.133 99.158C284.846 99.158 262.575 97.968 262.575 59.531C262.575 21.094 284.846 19.904 289.133 19.904C293.421 19.904 315.691 21.094 315.691 59.531Z" fill="black"/>
<path id="Vector_5" d="M348.562 93.684C360.71 93.684 359.638 72.026 359.638 72.026C359.638 66.076 359.638 20.38 359.638 19.904H364.163C364.163 20.38 364.64 66.076 364.64 72.026C364.64 72.74 364.64 73.454 364.64 74.168C364.521 80.832 363.568 88.567 358.923 93.565C358.685 93.922 358.328 94.16 357.97 94.517C352.73 99.039 344.393 99.634 337.962 98.682C331.412 97.73 325.338 94.16 322.837 87.377C320.932 82.26 320.813 76.667 320.813 71.312V19.904H336.414V76.905V77.024C336.414 77.143 336.176 93.684 348.562 93.684Z" fill="black"/>
<path id="Vector_6" d="M404.775 63.696C407.038 62.744 409.181 61.792 410.73 59.888C415.613 54.057 415.613 47.631 415.613 41.919C415.613 31.09 410.491 23.712 400.964 20.737C400.845 20.737 400.726 20.618 400.607 20.618C400.607 20.618 400.607 20.618 400.487 20.618C400.368 20.618 400.249 20.618 400.13 20.499C400.011 20.499 399.892 20.499 399.773 20.38C399.773 20.38 399.773 20.38 399.654 20.38C399.535 20.38 399.416 20.38 399.296 20.38C399.177 20.38 399.058 20.38 398.939 20.38C398.939 20.38 398.939 20.38 398.82 20.38C398.701 20.38 398.582 20.38 398.463 20.38C398.344 20.38 398.225 20.38 398.106 20.38C398.106 20.38 398.106 20.38 397.986 20.38C397.867 20.38 397.748 20.38 397.629 20.38C397.51 20.38 397.391 20.38 397.272 20.38C397.153 20.38 397.034 20.38 396.915 20.38C396.795 20.38 396.795 20.38 396.676 20.38C396.557 20.38 396.557 20.38 396.438 20.38C396.438 20.38 396.319 20.38 396.2 20.38C396.2 20.38 396.081 20.38 395.962 20.38H395.843H395.724C395.724 20.38 395.724 20.38 395.605 20.38H386.553H371.071V99.634H386.791V64.886H390.722L400.845 99.039V99.158H417.399L404.775 63.696ZM389.173 60.245C388.935 60.245 385.6 60.245 385.6 60.245C385.6 55.723 385.6 24.664 385.6 24.783C386.911 24.783 388.578 24.902 390.007 25.14C398.344 26.806 401.44 35.374 401.559 42.633C401.559 46.441 401.44 50.606 400.011 54.176C399.654 55.128 398.939 56.08 398.225 56.913C397.51 57.746 396.795 58.579 395.843 59.174C393.818 60.245 391.317 60.245 389.173 60.245Z" fill="black"/>
<path id="Vector_7" d="M102.63 29.9C104.654 32.994 106.917 40.015 106.917 50.011C102.987 50.011 96.5558 50.011 93.2211 50.011V49.178C93.2211 45.965 93.2211 45.37 93.2211 45.37C93.2211 33.589 90.601 24.664 84.7653 24.664C77.3814 24.664 74.7613 33.589 74.7613 45.37V68.575C74.7613 71.907 74.7613 74.644 74.7613 74.644C74.7613 86.663 77.8578 95.112 85.3608 95.112C92.8638 95.112 95.1266 86.663 95.1266 74.644V74.049C95.1266 71.312 95.2457 69.051 95.1266 64.886C91.4347 64.886 87.0282 64.886 83.3362 64.886C83.3362 63.815 83.3362 61.316 83.3362 60.364C91.4347 60.364 99.6523 60.364 107.751 60.364C107.751 74.049 107.751 85.592 107.751 99.277C104.654 99.277 101.081 99.277 97.9849 99.277C97.8658 86.068 98.104 90.471 97.8658 86.068C97.1513 90.947 94.6503 95.945 90.3628 98.682C85.7181 101.538 79.5251 101.419 74.6422 99.158C69.7593 96.778 65.9483 92.494 63.5663 87.615C61.1844 82.736 59.9935 77.262 59.2789 71.788C58.9216 67.266 58.6834 62.744 58.9216 58.103C59.2789 47.036 61.6608 33.946 70.3548 26.092C74.1658 22.284 79.2869 19.904 85.0035 19.904C90.2437 19.904 95.0076 21.927 98.6995 25.259C98.6995 25.259 98.6995 25.259 98.8186 25.378C100.129 26.687 101.558 28.115 102.63 29.9Z" fill="black"/>
</g>
</g>
</svg>
