<svg width="140" height="36" viewBox="0 0 140 36" fill="none" xmlns="http://www.w3.org/2000/svg">
<g id="glamour">
<g id="Group">
<path id="Vector" d="M41.564 28.028H37.9561V6.04797H33.3674V29.358H38.0612H41.564V28.028Z" fill="black"/>
<g id="Group_2">
<path id="Vector_2" d="M47.9041 6.04797L42.4747 29.358H43.8759L46.2227 19.278H50.8464L52.773 29.358H57.3967L52.2125 6.04797H47.9041ZM46.538 17.913L48.7798 8.35797L50.6012 17.913H46.538Z" fill="black"/>
</g>
<path id="Vector_3" d="M70.6723 6.04797L66.9593 22.113L63.6317 6.04797H59.8837L58.5176 6.08297V29.358H59.8837V9.26797L60.7243 12.593L64.5074 29.358H66.469H66.6791L71.0927 10.563V29.358H75.7164V6.04797H70.6723Z" fill="black"/>
<path id="Vector_4" d="M81.8463 13.503C81.8463 13.503 81.8113 16.548 81.8113 17.773C81.8113 18.998 81.8463 21.903 81.8463 21.903C81.8463 25.333 82.687 27.993 84.9988 27.993C87.3107 27.993 88.1514 25.333 88.1514 21.903C88.1514 21.903 88.1864 18.998 88.1864 17.773C88.1864 16.548 88.1514 13.503 88.1514 13.503C88.1514 10.073 87.3107 7.41297 84.9988 7.41297C82.687 7.41297 81.8463 10.073 81.8463 13.503ZM92.8101 17.703C92.8101 29.008 86.2598 29.358 84.9988 29.358C83.7378 29.358 77.1876 29.008 77.1876 17.703C77.1876 6.39797 83.7378 6.04797 84.9988 6.04797C86.2598 6.04797 92.8101 6.39797 92.8101 17.703Z" fill="black"/>
<path id="Vector_5" d="M102.478 27.748C106.051 27.748 105.735 21.378 105.735 21.378C105.735 19.628 105.735 6.18797 105.735 6.04797H107.067C107.067 6.18797 107.207 19.628 107.207 21.378C107.207 21.588 107.207 21.798 107.207 22.008C107.172 23.968 106.891 26.243 105.525 27.713C105.455 27.818 105.35 27.888 105.245 27.993C103.704 29.323 101.252 29.498 99.3603 29.218C97.4338 28.938 95.6474 27.888 94.9118 25.893C94.3513 24.388 94.3163 22.743 94.3163 21.168V6.04797H98.905V22.813V22.848C98.905 22.883 98.8349 27.748 102.478 27.748Z" fill="black"/>
<path id="Vector_6" d="M119.011 18.928C119.677 18.648 120.307 18.368 120.762 17.808C122.199 16.093 122.199 14.203 122.199 12.523C122.199 9.33797 120.692 7.16797 117.89 6.29297C117.855 6.29297 117.82 6.25797 117.785 6.25797C117.785 6.25797 117.785 6.25797 117.75 6.25797C117.715 6.25797 117.68 6.25797 117.645 6.22297C117.61 6.22297 117.575 6.22297 117.54 6.18797C117.54 6.18797 117.54 6.18797 117.505 6.18797C117.47 6.18797 117.435 6.18797 117.4 6.18797C117.365 6.18797 117.33 6.18797 117.295 6.18797C117.295 6.18797 117.295 6.18797 117.26 6.18797C117.225 6.18797 117.19 6.18797 117.155 6.18797C117.12 6.18797 117.085 6.18797 117.05 6.18797C117.05 6.18797 117.05 6.18797 117.014 6.18797C116.979 6.18797 116.944 6.18797 116.909 6.18797C116.874 6.18797 116.839 6.18797 116.804 6.18797C116.769 6.18797 116.734 6.18797 116.699 6.18797C116.664 6.18797 116.664 6.18797 116.629 6.18797C116.594 6.18797 116.594 6.18797 116.559 6.18797C116.559 6.18797 116.524 6.18797 116.489 6.18797C116.489 6.18797 116.454 6.18797 116.419 6.18797H116.384H116.349C116.349 6.18797 116.349 6.18797 116.314 6.18797H113.652H109.098V29.498H113.722V19.278H114.878L117.855 29.323V29.358H122.724L119.011 18.928ZM114.422 17.913C114.352 17.913 113.372 17.913 113.372 17.913C113.372 16.583 113.372 7.44797 113.372 7.48297C113.757 7.48297 114.247 7.51797 114.668 7.58797C117.12 8.07797 118.03 10.598 118.065 12.733C118.065 13.853 118.03 15.078 117.61 16.128C117.505 16.408 117.295 16.688 117.085 16.933C116.874 17.178 116.664 17.423 116.384 17.598C115.789 17.913 115.053 17.913 114.422 17.913Z" fill="black"/>
<path id="Vector_7" d="M30.1449 8.98797C30.7403 9.89797 31.4059 11.963 31.4059 14.903C30.2499 14.903 28.3584 14.903 27.3776 14.903V14.658C27.3776 13.713 27.3776 13.538 27.3776 13.538C27.3776 10.073 26.607 7.44797 24.8906 7.44797C22.7189 7.44797 21.9483 10.073 21.9483 13.538V20.363C21.9483 21.343 21.9483 22.148 21.9483 22.148C21.9483 25.683 22.859 28.168 25.0658 28.168C27.2726 28.168 27.9381 25.683 27.9381 22.148V21.973C27.9381 21.168 27.9731 20.503 27.9381 19.278C26.8522 19.278 25.5562 19.278 24.4703 19.278C24.4703 18.963 24.4703 18.228 24.4703 17.948C26.8522 17.948 29.2692 17.948 31.6511 17.948C31.6511 21.973 31.6511 25.368 31.6511 29.393C30.7403 29.393 29.6895 29.393 28.7788 29.393C28.7437 25.508 28.8138 26.803 28.7437 25.508C28.5336 26.943 27.798 28.413 26.537 29.218C25.1709 30.058 23.3494 30.023 21.9133 29.358C20.4771 28.658 19.3562 27.398 18.6556 25.963C17.9551 24.528 17.6048 22.918 17.3946 21.308C17.2896 19.978 17.2195 18.648 17.2896 17.283C17.3946 14.028 18.0952 10.178 20.6522 7.86797C21.7731 6.74797 23.2794 6.04797 24.9607 6.04797C26.5019 6.04797 27.9031 6.64297 28.9889 7.62297C28.9889 7.62297 28.9889 7.62297 29.024 7.65797C29.4093 8.04297 29.8296 8.46297 30.1449 8.98797Z" fill="black"/>
</g>
</g>
</svg>
