<svg width="251" height="133" viewBox="0 0 251 133" fill="none" xmlns="http://www.w3.org/2000/svg">
<g id="gq" clip-path="url(#clip0_4_34)">
<path id="Vector" d="M205.102 74.8486L201.708 70.2304H161.253L177.706 94.0875C160.589 97.4462 144.432 83.0727 144.653 66.353C144.899 49.2629 158.622 36.4697 175.05 36.5935C193.076 36.6921 211.053 56.2027 205.102 74.8486ZM229.375 104.164C229.375 104.164 241.376 88.4319 241.425 67.9582C241.524 27.7272 213.463 1.598 174.312 1.52391C151.637 1.49921 132.382 12.6128 120.7 28.8632C125.545 35.7784 128.373 42.4465 129.529 46.8672H111.601C110.691 49.7073 109.978 52.6216 109.461 55.6097H131.594C132.111 58.8945 132.382 62.2532 132.382 65.6863C132.382 79.4671 128.078 92.2351 120.749 102.756C132.16 119.229 151.072 131.182 174.533 131.182C190.1 131.182 201.093 124.514 203.085 123.452L207.217 128.91H247.057L229.375 104.164Z" fill="#C6A348"/>
<path id="Vector_2" d="M71.8354 86.1375H88.3125C88.3125 86.8785 79.8772 95.1272 67.1875 95.1272C53.2434 95.1272 37.455 84.063 37.1352 66.3553C36.8156 48.0058 52.604 35.9785 67.1875 36.4969C79.0164 36.917 83.5169 40.3249 90.1323 46.845C90.1323 46.845 99.6744 46.8449 109.364 46.8698H129.505C128.349 42.4488 125.521 35.7808 120.676 28.8658C120.258 28.2977 119.865 27.7049 119.422 27.1368C109.733 14.1711 92.8867 1.03245 66.6955 0.98306C35.9303 0.933666 12.1983 21.6049 4.37783 46.8698C4.27948 47.1661 4.18111 47.4871 4.10732 47.7834C4.10732 47.808 4.10732 47.808 4.08273 47.8329C2.48421 53.4884 1.59888 59.4649 1.59888 65.6146C1.64806 71.517 2.41043 77.1726 3.81221 82.5072C8.75533 100.956 21.5927 116.169 38.537 124.343C38.6847 124.417 38.8076 124.467 38.955 124.541C39.0287 124.59 39.1272 124.615 39.2256 124.665C47.7591 128.567 57.3504 130.74 67.5563 130.814C89.1486 130.641 108.257 120.022 120.037 103.771C120.283 103.425 120.504 103.08 120.75 102.734C128.079 92.2131 132.382 79.4448 132.382 65.664C132.382 62.231 132.112 58.8722 131.595 55.5877H71.8354V86.1375Z" fill="black"/>
</g>
<defs>
<clipPath id="clip0_4_34">
<rect width="250" height="132" fill="white" transform="translate(0.0648193 0.982971)"/>
</clipPath>
</defs>
</svg>
