<svg width="67" height="36" viewBox="0 0 67 36" fill="none" xmlns="http://www.w3.org/2000/svg">
<g id="gq" clip-path="url(#clip0_4_34)">
<path id="Vector" d="M54.5947 20.0686L53.6948 18.844H42.9681L47.3305 25.1698C42.7921 26.0603 38.5079 22.2492 38.5666 17.8159C38.6318 13.2845 42.2704 9.89234 46.6262 9.92514C51.406 9.95129 56.1727 15.1246 54.5947 20.0686ZM61.0307 27.8415C61.0307 27.8415 64.2128 23.6702 64.2258 18.2416C64.2519 7.57424 56.8118 0.646045 46.4307 0.626399C40.4185 0.619851 35.3127 3.56663 32.2154 7.87545C33.4999 9.70904 34.2498 11.4771 34.5563 12.6492H29.8027C29.5614 13.4023 29.3723 14.175 29.2354 14.9673H35.104C35.241 15.8383 35.3128 16.7289 35.3128 17.6391C35.3128 21.2931 34.1716 24.6786 32.2284 27.4682C35.254 31.836 40.2686 35.0055 46.4894 35.0055C50.617 35.0055 53.5318 33.2374 54.06 32.9558L55.1554 34.403H65.7191L61.0307 27.8415Z" fill="#C6A348"/>
<path id="Vector_2" d="M19.2589 23.0618H23.6278C23.6278 23.2583 21.3911 25.4455 18.0264 25.4455C14.3292 25.4455 10.1428 22.5118 10.058 17.8165C9.97329 12.9511 14.1596 9.76209 18.0264 9.89955C21.1629 10.0109 22.3562 10.9145 24.1103 12.6433C24.1103 12.6433 26.6404 12.6433 29.2096 12.6499H34.55C34.2436 11.4777 33.4937 9.70966 32.2091 7.87614C32.0983 7.7255 31.9939 7.56834 31.8765 7.41771C29.3073 3.97983 24.8406 0.496091 17.896 0.482995C9.73854 0.469898 3.44597 5.9509 1.37237 12.6499C1.34629 12.7285 1.3202 12.8136 1.30064 12.8922C1.30064 12.8987 1.30064 12.8987 1.29412 12.9053C0.870269 14.4049 0.635521 15.9895 0.635521 17.6201C0.648563 19.1852 0.850706 20.6848 1.22239 22.0992C2.53307 26.9909 5.93691 31.0247 10.4297 33.1922C10.4689 33.2118 10.5015 33.2249 10.5406 33.2446C10.5601 33.2577 10.5862 33.2642 10.6123 33.2774C12.875 34.312 15.4181 34.8882 18.1242 34.9079C23.8495 34.862 28.9161 32.0462 32.0396 27.7374C32.1048 27.6457 32.1635 27.554 32.2287 27.4623C34.1718 24.6728 35.313 21.2872 35.313 17.6332C35.313 16.723 35.2413 15.8324 35.1043 14.9615H19.2589V23.0618Z" fill="black"/>
</g>
<defs>
<clipPath id="clip0_4_34">
<rect width="66.2879" height="35" fill="white" transform="translate(0.22876 0.482971)"/>
</clipPath>
</defs>
</svg>
