<svg width="454" height="74" viewBox="0 0 454 74" fill="none" xmlns="http://www.w3.org/2000/svg">
<g id="hive" clip-path="url(#clip0_4_102)">
<path id="Vector" d="M438.886 0.982971V5.34332H416.433V27.7487H430.557V17.3041H451.384V13.1487L438.886 0.982971ZM322.549 0.982971L296.844 63.5384L307.918 72.6634H308.02L333.725 10.5123L322.853 0.982971H322.549ZM274.593 0.982971L296.844 50.6623H296.945L303.754 34.4422L296.132 17.408L274.796 0.982971H274.593ZM163.946 0.982971V62.0194H158.561L173.09 73.983H179.694V13.9601L163.946 0.982971ZM48.7263 0.982971V62.0194H43.341L56.855 73.8819H63.8638V13.2498L48.7263 0.982971ZM6.05147 0.982971V28.2569H21.3944V13.758L6.05147 0.982971ZM438.174 32.5134H416.332V57.7601H430.456V43.9744H450.672V39.409L438.278 27.8498V32.5162L438.174 32.5134ZM6.05147 33.0215V62.1205H0.564819L14.7907 73.983H21.6954V44.884H43.5407V33.0215H6.05147ZM439.902 62.0222H410.64L424.154 73.8847H452.299V69.0134L439.902 57.353V62.0222Z" fill="#221F20"/>
</g>
<defs>
<clipPath id="clip0_4_102">
<rect width="453" height="73" fill="white" transform="translate(0.564819 0.982971)"/>
</clipPath>
</defs>
</svg>
