<svg width="219" height="36" viewBox="0 0 219 36" fill="none" xmlns="http://www.w3.org/2000/svg">
<g id="hive" clip-path="url(#clip0_4_102)">
<path id="Vector" d="M211.041 0.482971V2.57355H200.275V13.3159H207.047V8.30816H217.033V6.31586L211.041 0.482971ZM155.263 0.482971L142.938 30.4753L148.248 34.8503H148.296L160.621 5.05182L155.408 0.482971H155.263ZM132.27 0.482971L142.938 24.3018H142.987L146.251 16.5251L142.597 8.35797L132.367 0.482971H132.27ZM79.22 0.482971V29.747H76.638L83.6043 35.483H86.7704V6.70489L79.22 0.482971ZM23.9777 0.482971V29.747H21.3957L27.875 35.4345H31.2354V6.36432L23.9777 0.482971ZM3.51718 0.482971V13.5595H10.8734V6.60797L3.51718 0.482971ZM210.699 15.6003H200.227V27.7049H206.999V21.0953H216.692V18.9064L210.749 13.3643V15.6016L210.699 15.6003ZM3.51718 15.8439V29.7955H0.886597L7.70723 35.483H11.0177V21.5314H21.4915V15.8439H3.51718ZM211.528 29.7484H197.498L203.977 35.4359H217.471V33.1003L211.528 27.5097V29.7484Z" fill="#221F20"/>
</g>
<defs>
<clipPath id="clip0_4_102">
<rect width="217.192" height="35" fill="white" transform="translate(0.886597 0.482971)"/>
</clipPath>
</defs>
</svg>
