<svg width="104" height="36" viewBox="0 0 104 36" fill="none" xmlns="http://www.w3.org/2000/svg">
<g id="house-garden" clip-path="url(#clip0_4_104)">
<path id="Vector" d="M103.166 12.6873C103.025 14.9171 102.619 16.0898 100.835 16.0898C100.023 16.0898 99.0948 15.3842 98.1795 14.3963C99.474 12.8228 99.8461 11.8759 100.392 10.5267C101.1 8.77538 101.721 8.24335 103.571 8.12762V7.73671H97.7706V8.1375C99.0977 8.1375 100.034 8.47338 100.034 9.40761C100.034 10.6086 98.9916 12.621 97.8598 14.0647C96.909 12.9794 95.9852 11.6501 95.234 10.5634C94.4962 9.53209 93.8234 8.45607 93.2194 7.34157C96.6402 5.73558 97.7466 4.8211 97.7466 3.29274C97.7466 1.50047 96.0984 0.494263 93.8574 0.494263C91.1694 0.494263 88.9553 2.46999 88.9553 4.90578C88.9553 5.96279 89.425 7.22443 90.0249 8.40987C87.9339 9.52475 85.6193 11.166 85.6193 13.5397C85.6193 16.6303 87.873 18.0373 91.1298 18.0373C92.8588 18.0466 94.5488 17.5243 95.9697 16.5414C96.96 17.4093 98.0918 18.0373 99.3 18.0373C102.353 18.0373 103.608 15.7299 103.646 12.6986L103.166 12.6873ZM93.873 0.849894C95.2057 0.849894 95.6329 1.59926 95.6329 3.28145C95.6329 5.31786 95.0798 5.89788 93.0256 6.93231C92.4059 5.69042 91.9065 4.33564 91.9065 3.17561C91.9065 2.07343 92.3818 0.849894 93.873 0.849894ZM93.184 17.0367C90.8143 17.0367 88.8761 15.4844 88.8761 12.4714C88.8761 10.8584 89.3854 9.79006 90.3389 8.96307C90.9395 10.0352 91.6082 11.068 92.3408 12.0551C93.0284 12.9907 94.18 14.8183 95.6315 16.2069C94.8718 16.7404 94.1121 17.0367 93.184 17.0367Z" fill="black"/>
<path id="Vector_2" d="M18.1823 1.49765C18.4356 1.24363 18.8897 1.18859 19.9012 1.18859H20.6765V0.823082H11.8046V1.18859H12.4497C13.4655 1.18859 13.9112 1.24363 14.1701 1.49765C14.5082 1.83494 14.5676 2.31334 14.5676 4.59108V8.87699H6.64502V4.59108C6.64502 2.31334 6.70161 1.83494 7.04398 1.49765C7.29864 1.24363 7.75136 1.18859 8.76432 1.18859H9.40945V0.823082H0.537537V1.18859H1.31141C2.3272 1.18859 2.77426 1.24363 3.03174 1.49765C3.37129 1.83494 3.42646 2.31334 3.42646 4.59108V13.9292C3.42646 16.2083 3.37129 16.6853 3.0275 17.024C2.77426 17.2767 2.32012 17.3331 1.30716 17.3331H0.537537V17.6986H9.40945V17.3331H8.76432C7.74853 17.3331 7.30288 17.2767 7.04398 17.024C6.70586 16.6853 6.64502 16.2083 6.64502 13.9292V9.32717H14.5676V13.9292C14.5676 16.2083 14.5125 16.6853 14.1701 17.024C13.9154 17.2767 13.4627 17.3331 12.4497 17.3331H11.8046V17.6986H20.6765V17.3331H19.9012C18.8869 17.3331 18.4398 17.2767 18.1823 17.024C17.8428 16.6853 17.7834 16.2083 17.7834 13.9292V4.59108C17.7834 2.31334 17.8385 1.83494 18.1823 1.49765Z" fill="black"/>
<path id="Vector_3" d="M66.4466 14.601C66.4466 12.0396 64.4589 11.4962 61.7935 10.6749C58.7291 9.72514 55.6987 8.91227 55.7101 5.29104C55.7101 2.45305 57.8322 0.492851 60.8414 0.492851C63.4643 0.492851 65.1083 2.0565 66.0689 2.0565C66.6602 2.0565 66.9177 1.60773 66.9432 0.820257H67.3082V6.77284H66.9432C66.3165 3.00767 63.8534 0.858361 60.8654 0.858361C58.5254 0.858361 57.7077 2.28935 57.7077 3.527C57.7077 5.83578 59.9529 6.49059 62.3891 7.25689C65.2596 8.15303 68.6296 9.09855 68.6296 12.5829C68.6296 15.8753 66.6588 18.0331 62.7357 18.0331C59.7973 18.0331 58.6754 16.4003 57.2182 16.4003C56.5999 16.4003 56.2279 16.9648 56.1755 17.6944H55.7723V10.4731H56.1387C56.5066 13.7359 58.79 17.6704 62.7371 17.6704C65.6388 17.6704 66.4466 16.4285 66.4466 14.601Z" fill="black"/>
<path id="Vector_4" d="M29.0151 18.0331C33.7828 18.0331 37.4484 14.1832 37.4484 9.26084C37.4484 4.33846 33.7828 0.487206 29.0151 0.487206C24.2473 0.487206 20.5817 4.33846 20.5817 9.26084C20.5817 14.1832 24.2473 18.0331 29.0151 18.0331ZM29.0151 17.6676C25.7725 17.6676 23.9658 14.6518 23.9658 9.26084C23.9658 3.86993 25.7795 0.852715 29.0151 0.852715C32.2506 0.852715 34.0657 3.88405 34.0657 9.26084C34.0657 14.6376 32.2577 17.6704 29.0151 17.6704V17.6676Z" fill="black"/>
<path id="Vector_5" d="M43.0834 4.59108C43.0834 2.31334 43.1414 1.83635 43.4823 1.49765C43.737 1.24504 44.1897 1.18859 45.2027 1.18859H45.9765V0.823082H36.9759V1.18859H37.7512C38.7655 1.18859 39.214 1.24363 39.4701 1.49765C39.8111 1.83353 39.8691 2.31334 39.8691 4.59108V12.0819C39.8691 14.4161 40.7957 18.0331 46.9697 18.0331C50.0241 18.0331 52.9668 17.0763 52.9668 12.1638V5.04126C52.9668 2.0692 53.8567 1.18859 55.8883 1.18859V0.823082H49.529V1.18859C51.545 1.18859 52.449 2.0692 52.449 5.04126V12.1962C52.449 17.0833 49.2559 17.5589 47.5257 17.5589C44.7047 17.5589 43.0749 15.8795 43.0749 12.5335L43.0834 4.59108Z" fill="black"/>
<path id="Vector_6" d="M83.5793 11.1646C83.3812 14.6249 81.4317 17.3331 78.0193 17.3331H74.8983V9.02517H76.2862C78.4281 9.02517 79.6406 9.76748 79.9235 12.9456H80.29V4.65035H79.9235C79.6406 7.82844 78.4281 8.5764 76.2862 8.5764H74.9012V1.18859H77.933C81.0638 1.18859 82.7842 3.27863 83.1506 6.48072H83.5156V0.823082H68.788V1.18859H69.5647C70.5791 1.18859 71.0262 1.24363 71.2836 1.49765C71.6232 1.83494 71.6826 2.31334 71.6826 4.59249V13.9292C71.6826 16.2083 71.6274 16.6853 71.2836 17.024C71.0304 17.2767 70.5763 17.3331 69.5647 17.3331H68.788V17.6986H83.9443V11.1646H83.5793Z" fill="black"/>
<path id="Vector_7" d="M78.3673 19.6052C81.4967 19.6052 83.2128 21.4765 83.5793 24.6786H83.9443V19.2411H68.788V19.6052H69.5647C70.5791 19.6052 71.0262 19.6602 71.2836 19.9142C71.6232 20.2515 71.6826 20.7285 71.6826 23.0077V31.4539C71.6826 33.733 71.6274 34.21 71.2836 34.5487C71.0304 34.8013 70.5763 34.8578 69.5647 34.8578H68.788V35.2233H83.9443V29.0139H83.575C83.377 32.4742 81.4317 34.8564 78.0193 34.8564H74.8983V26.9309H76.2862C78.4281 26.9309 79.6406 27.4559 79.9235 30.634H80.29V22.7734H79.9235C79.6406 25.9515 78.4281 26.4835 76.2862 26.4835H74.9012V19.6052H78.3673Z" fill="black"/>
<path id="Vector_8" d="M51.2211 31.0912C51.2211 32.7621 50.9381 34.608 49.7582 34.608C49.2248 34.608 49.0423 33.9024 48.949 33.455C48.7976 32.7297 48.7594 31.9563 48.5868 30.9049C48.2034 28.5708 46.7589 27.4192 44.692 26.9859C47.8766 26.5075 49.2192 25.0808 49.2192 23.1756C49.2192 20.9727 47.7535 19.2354 43.6734 19.2354H34.6218V19.5995H34.9755C35.9431 19.5995 36.4072 19.6842 36.6109 19.9241C36.9038 20.2699 36.9858 20.7807 36.9858 25.6283V28.9673C36.9858 33.8149 36.9038 34.1621 36.6109 34.5078C36.4072 34.7463 35.9431 34.8522 34.9755 34.8522H34.6218V35.2177H42.8061V34.8522H42.2077C41.24 34.8522 40.7759 34.7463 40.5708 34.5078C40.2794 34.1621 40.2044 33.8149 40.2044 28.9673V27.1765H42.144C44.1247 27.1765 44.6906 27.9117 44.8476 29.663C44.9098 30.3884 44.9579 30.8203 45.0442 31.8053C45.2282 33.8742 46.418 35.4322 48.5005 35.4322C51.2324 35.4322 51.6129 33.4564 51.6129 31.0912H51.2211ZM43.0155 26.7249H40.21V19.6461C40.9301 19.6193 42.2628 19.6137 42.8768 19.6137C45.0669 19.6137 45.7785 20.912 45.7785 23.1855C45.7728 25.1796 45.5224 26.7249 43.0141 26.7249H43.0155Z" fill="black"/>
<path id="Vector_9" d="M60.3066 35.2233H51.8633V34.8592H52.4618C53.4295 34.8592 53.8935 34.752 54.0987 34.5135C54.3915 34.1677 54.4721 33.6794 54.4721 28.8318V25.634C54.4721 20.7864 54.3915 20.2713 54.0987 19.9298C53.8935 19.6899 53.4295 19.6052 52.4618 19.6052H51.8633V19.2411H60.2995C65.7336 19.2411 68.4711 23.0232 68.4711 27.2329C68.4711 31.4426 65.7718 35.2233 60.3023 35.2233M59.6247 19.6108C58.9555 19.6108 58.1915 19.6108 57.685 19.6419V34.8056C58.1929 34.8324 58.9583 34.8324 59.6275 34.8324C63.3922 34.8324 64.9696 31.9718 64.9696 27.2329C64.9696 22.494 63.3907 19.6122 59.6247 19.6122" fill="black"/>
<path id="Vector_10" d="M16.2865 30.8753C16.2865 28.9574 16.4124 28.5566 16.6332 28.3181C16.8539 28.0796 17.308 27.971 18.2686 27.971H18.6449V27.6012H10.7223V27.9724H11.1467C12.1088 27.9724 12.5176 28.081 12.7383 28.3195C12.959 28.558 13.0835 28.9588 13.0835 30.8767C13.0835 32.9018 11.9107 35.1189 9.1958 35.1189C5.91074 35.1189 4.44223 31.1293 4.44223 27.2385C4.44223 22.2047 6.39317 19.1324 9.65418 19.1324C12.7794 19.1324 14.6737 22.1271 15.2071 24.8155H15.5848V18.9278H15.2057C15.1264 19.728 14.6666 20.3136 14.1941 20.3136C13.4202 20.3136 12.1908 18.7613 9.65418 18.7613C4.28802 18.7613 1.06097 22.7579 1.06097 27.2287C1.06097 31.5132 4.46911 35.4759 9.1958 35.4759C12.1866 35.4759 12.8911 33.6413 14.0668 33.6413C14.8576 33.6413 15.6485 34.1141 15.9343 35.1048H16.2766L16.2865 30.8753Z" fill="black"/>
<path id="Vector_11" d="M98.0352 19.2411V19.6038C99.9055 19.7096 100.636 20.7751 100.636 23.2518V30.2798L91.5655 19.2411H86.1555V19.6052C87.4118 19.6306 88.1362 20.1697 88.8025 21.0277L88.9709 21.2295V31.2323C88.9709 33.7091 88.2508 34.8578 86.3706 34.8578V35.2233H92.0946V34.8578C90.213 34.8578 89.4943 33.7091 89.4943 31.2323V21.8575L100.718 35.3362H101.142L101.166 23.2518C101.166 20.7751 101.897 19.7096 103.766 19.6038V19.2411H98.0352Z" fill="black"/>
<path id="Vector_12" d="M31.3692 31.8857L26.1643 18.9221H26.0129L20.8279 31.8942C20.0554 33.8262 19.1641 34.8578 17.4664 34.8578V35.2233H23.042V34.8578C21.8069 34.8578 21.0231 34.3681 21.0231 33.5976C21.0193 33.1299 21.1082 32.6661 21.2848 32.2329L22.2115 29.8338H26.9651L27.9908 32.4446C28.1581 32.817 28.249 33.2191 28.2582 33.6272C28.2582 34.2129 27.9469 34.8522 26.7415 34.8522H26.2039V35.2177H34.2383V34.8522C33.0429 34.8578 32.3199 34.1381 31.3692 31.8857ZM22.3841 29.3907L24.5713 23.7457L26.7882 29.3907H22.3841Z" fill="black"/>
<path id="Vector_13" d="M103.308 21.4327C103.192 21.4333 103.079 21.3995 102.982 21.3357C102.885 21.2719 102.81 21.181 102.765 21.0743C102.72 20.9677 102.708 20.8502 102.73 20.7368C102.752 20.6233 102.808 20.5189 102.889 20.4369C102.971 20.3548 103.075 20.2988 103.189 20.2758C103.303 20.2529 103.42 20.2641 103.528 20.308C103.635 20.352 103.727 20.4266 103.791 20.5226C103.856 20.6185 103.891 20.7315 103.891 20.8471C103.891 21.0017 103.83 21.15 103.72 21.2597C103.611 21.3694 103.463 21.4316 103.308 21.4327ZM103.308 20.3461C103.208 20.3458 103.111 20.3751 103.028 20.4302C102.945 20.4853 102.88 20.5637 102.842 20.6556C102.803 20.7474 102.793 20.8486 102.812 20.9461C102.832 21.0437 102.88 21.1334 102.95 21.2037C103.021 21.2741 103.111 21.322 103.209 21.3413C103.306 21.3606 103.408 21.3506 103.5 21.3124C103.592 21.2742 103.671 21.2096 103.726 21.1267C103.781 21.0439 103.81 20.9466 103.81 20.8471C103.811 20.7812 103.799 20.7158 103.774 20.6548C103.749 20.5938 103.712 20.5385 103.665 20.4922C103.618 20.4459 103.563 20.4095 103.501 20.3854C103.44 20.3613 103.374 20.3498 103.308 20.3517V20.3461ZM103.393 20.8767L103.591 21.1717H103.509L103.321 20.8753H103.166V21.1717H103.091V20.5154H103.374C103.547 20.5154 103.604 20.5789 103.604 20.6961C103.604 20.8132 103.513 20.8682 103.389 20.8767H103.393ZM103.357 20.5818H103.166V20.809H103.365C103.441 20.809 103.52 20.7934 103.52 20.6947C103.52 20.5959 103.434 20.5818 103.353 20.5818H103.357Z" fill="black"/>
</g>
<defs>
<clipPath id="clip0_4_104">
<rect width="103.349" height="35" fill="white" transform="translate(0.537537 0.482971)"/>
</clipPath>
</defs>
</svg>
