<svg width="314" height="107" viewBox="0 0 314 107" fill="none" xmlns="http://www.w3.org/2000/svg">
<g id="house-garden" clip-path="url(#clip0_4_104)">
<path id="Vector" d="M311.384 37.4447C310.955 44.1977 309.726 47.7494 304.323 47.7494C301.863 47.7494 299.053 45.6124 296.28 42.6206C300.201 37.855 301.328 34.9871 302.982 30.9012C305.124 25.5971 307.005 23.9858 312.609 23.6353V22.4514H295.042V23.6653C299.061 23.6653 301.898 24.6825 301.898 27.5119C301.898 31.1491 298.74 37.2438 295.312 41.6162C292.433 38.3294 289.635 34.3033 287.36 31.0123C285.125 27.8889 283.088 24.6301 281.258 21.2547C291.619 16.3909 294.969 13.6213 294.969 8.99255C294.969 3.56454 289.978 0.517166 283.191 0.517166C275.05 0.517166 268.344 6.5008 268.344 13.8778C268.344 17.079 269.767 20.9 271.584 24.4902C265.251 27.8666 258.241 32.8373 258.241 40.0262C258.241 49.3863 265.067 53.6475 274.93 53.6475C280.166 53.6757 285.285 52.0938 289.588 49.1171C292.587 51.7456 296.015 53.6475 299.674 53.6475C308.92 53.6475 312.721 46.6595 312.836 37.4789L311.384 37.4447ZM283.238 1.59422C287.274 1.59422 288.568 3.86372 288.568 8.95836C288.568 15.1258 286.893 16.8824 280.671 20.0153C278.795 16.2541 277.282 12.1511 277.282 8.63781C277.282 5.2998 278.722 1.59422 283.238 1.59422ZM281.151 50.6172C273.974 50.6172 268.104 45.9158 268.104 36.7908C268.104 31.9056 269.647 28.6701 272.535 26.1656C274.354 29.4126 276.379 32.5405 278.598 35.5299C280.68 38.3636 284.168 43.8985 288.564 48.1041C286.263 49.7197 283.962 50.6172 281.151 50.6172Z" fill="black"/>
<path id="Vector_2" d="M54.0033 3.556C54.7703 2.78667 56.1457 2.61999 59.2092 2.61999H61.5572V1.51302H34.688V2.61999H36.6418C39.7182 2.61999 41.0679 2.78667 41.852 3.556C42.876 4.57749 43.056 6.02638 43.056 12.9247V25.9049H19.0618V12.9247C19.0618 6.02638 19.2332 4.57749 20.2701 3.556C21.0413 2.78667 22.4124 2.61999 25.4802 2.61999H27.434V1.51302H0.564819V2.61999H2.90854C5.98494 2.61999 7.33889 2.78667 8.11871 3.556C9.14703 4.57749 9.31413 6.02638 9.31413 12.9247V41.2059C9.31413 48.1084 9.14703 49.553 8.10585 50.5788C7.3389 51.3438 5.96351 51.5148 2.89568 51.5148H0.564819V52.6218H27.434V51.5148H25.4802C22.4038 51.5148 21.0541 51.3438 20.2701 50.5788C19.246 49.553 19.0618 48.1084 19.0618 41.2059V27.2683H43.056V41.2059C43.056 48.1084 42.8889 49.553 41.852 50.5788C41.0807 51.3438 39.7096 51.5148 36.6418 51.5148H34.688V52.6218H61.5572V51.5148H59.2092C56.1371 51.5148 54.7831 51.3438 54.0033 50.5788C52.975 49.553 52.795 48.1084 52.795 41.2059V12.9247C52.795 6.02638 52.9621 4.57749 54.0033 3.556Z" fill="black"/>
<path id="Vector_3" d="M200.175 43.2403C200.175 35.4829 194.155 33.8374 186.083 31.35C176.802 28.4735 167.624 26.0117 167.659 15.0446C167.659 6.44951 174.086 0.512894 183.199 0.512894C191.143 0.512894 196.122 5.24851 199.031 5.24851C200.822 5.24851 201.602 3.88937 201.679 1.50447H202.784V19.5323H201.679C199.781 8.1292 192.321 1.61987 183.272 1.61987C176.185 1.61987 173.709 5.95372 173.709 9.70204C173.709 16.6943 180.508 18.6775 187.887 20.9983C196.58 23.7123 206.786 26.5759 206.786 37.1284C206.786 47.0997 200.818 53.6347 188.936 53.6347C180.037 53.6347 176.639 48.6897 172.226 48.6897C170.354 48.6897 169.227 50.3993 169.068 52.6089H167.847V30.7388H168.957C170.071 40.6203 176.986 52.5363 188.941 52.5363C197.729 52.5363 200.175 48.7751 200.175 43.2403Z" fill="black"/>
<path id="Vector_4" d="M86.8111 53.6347C101.25 53.6347 112.352 41.9752 112.352 27.0674C112.352 12.1596 101.25 0.495789 86.8111 0.495789C72.3717 0.495789 61.2701 12.1596 61.2701 27.0674C61.2701 41.9752 72.3717 53.6347 86.8111 53.6347ZM86.8111 52.5277C76.9906 52.5277 71.5191 43.3941 71.5191 27.0674C71.5191 10.7406 77.012 1.60276 86.8111 1.60276C96.6101 1.60276 102.107 10.7834 102.107 27.0674C102.107 43.3514 96.6316 52.5363 86.8111 52.5363V52.5277Z" fill="black"/>
<path id="Vector_5" d="M129.418 12.9247C129.418 6.02638 129.594 4.58176 130.626 3.556C131.397 2.79095 132.769 2.61999 135.836 2.61999H138.18V1.51302H110.921V2.61999H113.269C116.341 2.61999 117.699 2.78667 118.475 3.556C119.507 4.57321 119.683 6.02638 119.683 12.9247V35.6112C119.683 42.6804 122.49 53.6347 141.188 53.6347C150.439 53.6347 159.351 50.7369 159.351 35.8591V14.2881C159.351 5.28698 162.046 2.61999 168.199 2.61999V1.51302H148.939V2.61999C155.045 2.61999 157.783 5.28698 157.783 14.2881V35.9574C157.783 50.7583 148.112 52.1986 142.872 52.1986C134.328 52.1986 129.392 47.1125 129.392 36.9788L129.418 12.9247Z" fill="black"/>
<path id="Vector_6" d="M252.063 32.833C251.463 43.3129 245.558 51.5148 235.224 51.5148H225.772V26.3536H229.975C236.462 26.3536 240.134 28.6018 240.991 38.2269H242.101V13.1042H240.991C240.134 22.7293 236.462 24.9945 229.975 24.9945H225.78V2.61999H234.962C244.444 2.61999 249.655 8.94981 250.764 18.6476H251.87V1.51302H207.266V2.61999H209.619C212.691 2.61999 214.045 2.78667 214.824 3.556C215.853 4.57749 216.033 6.02638 216.033 12.9289V41.2059C216.033 48.1084 215.866 49.553 214.824 50.5788C214.057 51.3438 212.682 51.5148 209.619 51.5148H207.266V52.6218H253.168V32.833H252.063Z" fill="black"/>
<path id="Vector_7" d="M236.278 58.396C245.756 58.396 250.953 64.0633 252.063 73.7611H253.168V57.2933H207.266V58.396H209.619C212.691 58.396 214.045 58.5626 214.824 59.332C215.853 60.3535 216.033 61.7981 216.033 68.7006V94.2806C216.033 101.183 215.866 102.628 214.824 103.654C214.057 104.419 212.682 104.59 209.619 104.59H207.266V105.697H253.168V86.8909H252.05C251.45 97.3708 245.558 104.585 235.224 104.585H225.772V80.5824H229.975C236.462 80.5824 240.134 82.1723 240.991 91.7974H242.101V67.9911H240.991C240.134 77.6162 236.462 79.2275 229.975 79.2275H225.78V58.396H236.278Z" fill="black"/>
<path id="Vector_8" d="M154.063 93.1822C154.063 98.2427 153.206 103.833 149.633 103.833C148.018 103.833 147.465 101.696 147.182 100.341C146.724 98.1444 146.608 95.8022 146.085 92.618C144.924 85.5488 140.55 82.0612 134.29 80.7491C143.934 79.3002 148.001 74.9792 148.001 69.2092C148.001 62.5375 143.562 57.2762 131.205 57.2762H103.791V58.3789H104.862C107.793 58.3789 109.199 58.6353 109.816 59.3619C110.702 60.409 110.951 61.9562 110.951 76.6375V86.7498C110.951 101.431 110.702 102.482 109.816 103.53C109.199 104.252 107.793 104.572 104.862 104.572H103.791V105.679H128.578V104.572H126.766C123.835 104.572 122.43 104.252 121.808 103.53C120.926 102.482 120.699 101.431 120.699 86.7498V81.3261H126.573C132.571 81.3261 134.285 83.5528 134.761 88.8569C134.949 91.0538 135.095 92.3616 135.357 95.3449C135.914 101.611 139.517 106.329 145.824 106.329C154.098 106.329 155.25 100.345 155.25 93.1822H154.063ZM129.212 79.9584H120.716V58.5199C122.897 58.4387 126.933 58.4216 128.792 58.4216C135.425 58.4216 137.58 62.3537 137.58 69.2391C137.563 75.2783 136.805 79.9584 129.208 79.9584H129.212Z" fill="black"/>
<path id="Vector_9" d="M181.58 105.697H156.009V104.594H157.821C160.752 104.594 162.157 104.269 162.778 103.547C163.665 102.5 163.91 101.021 163.91 86.3395V76.6546C163.91 61.9733 163.665 60.4133 162.778 59.379C162.157 58.6524 160.752 58.396 157.821 58.396H156.009V57.2933H181.558C198.016 57.2933 206.306 68.7476 206.306 81.497C206.306 94.2464 198.131 105.697 181.567 105.697M179.514 58.4131C177.488 58.4131 175.174 58.4131 173.64 58.5071V104.431C175.178 104.513 177.496 104.513 179.523 104.513C190.924 104.513 195.702 95.8492 195.702 81.497C195.702 67.1449 190.92 58.4173 179.514 58.4173" fill="black"/>
<path id="Vector_10" d="M48.2619 92.5283C48.2619 86.7199 48.6432 85.5061 49.3116 84.7838C49.98 84.0615 51.3554 83.7324 54.2647 83.7324H55.4044V82.6126H31.4102V83.7366H32.6956C35.6092 83.7366 36.8475 84.0657 37.5159 84.788C38.1843 85.5103 38.5613 86.7242 38.5613 92.5326C38.5613 98.6658 35.0093 105.38 26.787 105.38C16.838 105.38 12.3905 93.2976 12.3905 81.5141C12.3905 66.2687 18.2991 56.9642 28.1753 56.9642C37.6401 56.9642 43.3773 66.0336 44.9926 74.1756H46.1367V56.3444H44.9884C44.7484 58.7678 43.3559 60.5415 41.9248 60.5415C39.5811 60.5415 35.8577 55.8401 28.1753 55.8401C11.9235 55.8401 2.15015 67.9441 2.15015 81.4842C2.15015 94.4601 12.4719 106.462 26.787 106.462C35.8449 106.462 37.9786 100.905 41.5392 100.905C43.9343 100.905 46.3295 102.337 47.195 105.338H48.2319L48.2619 92.5283Z" fill="black"/>
<path id="Vector_11" d="M295.843 57.2933V58.3917C301.508 58.7122 303.719 61.9391 303.719 69.44V90.7247L276.25 57.2933H259.865V58.396C263.67 58.4729 265.863 60.1056 267.882 62.7042L268.391 63.3154V93.6096C268.391 101.111 266.211 104.59 260.516 104.59V105.697H277.852V104.59C272.153 104.59 269.977 101.111 269.977 93.6096V65.2173L303.967 106.038H305.253L305.325 69.44C305.325 61.9391 307.541 58.7122 313.201 58.3917V57.2933H295.843Z" fill="black"/>
<path id="Vector_12" d="M93.9408 95.5885L78.1775 56.3273H77.719L62.0157 95.6141C59.6762 101.465 56.9769 104.59 51.8353 104.59V105.697H68.7212V104.59C64.9807 104.59 62.6069 103.106 62.6069 100.773C62.5953 99.3566 62.8647 97.9519 63.3996 96.6399L66.2061 89.3741H80.6026L83.709 97.281C84.2158 98.409 84.4912 99.6268 84.5188 100.863C84.5188 102.636 83.5762 104.572 79.9256 104.572H78.2974V105.679H102.63V104.572C99.0096 104.59 96.8201 102.41 93.9408 95.5885ZM66.7288 88.032L73.3529 70.9359L80.067 88.032H66.7288Z" fill="black"/>
<path id="Vector_13" d="M311.812 63.9308C311.461 63.9325 311.118 63.8303 310.825 63.6371C310.532 63.4439 310.304 63.1684 310.168 62.8454C310.032 62.5225 309.996 62.1667 310.063 61.823C310.13 61.4793 310.298 61.1632 310.545 60.9148C310.792 60.6663 311.108 60.4966 311.452 60.4271C311.796 60.3577 312.153 60.3916 312.478 60.5246C312.802 60.6576 313.08 60.8837 313.276 61.1743C313.472 61.4649 313.577 61.8069 313.578 62.1571C313.578 62.6253 313.392 63.0745 313.061 63.4068C312.731 63.7391 312.282 63.9274 311.812 63.9308ZM311.812 60.6398C311.51 60.639 311.215 60.7276 310.963 60.8945C310.712 61.0613 310.516 61.2989 310.4 61.5771C310.284 61.8553 310.253 62.1616 310.312 62.4572C310.371 62.7527 310.516 63.0242 310.73 63.2373C310.943 63.4503 311.215 63.5953 311.512 63.6539C311.808 63.7125 312.115 63.682 312.394 63.5663C312.673 63.4506 312.911 63.2549 313.078 63.004C313.245 62.7532 313.334 62.4584 313.333 62.1571C313.337 61.9577 313.3 61.7596 313.225 61.5748C313.149 61.3901 313.037 61.2225 312.895 61.0823C312.753 60.942 312.583 60.832 312.397 60.7589C312.211 60.6858 312.012 60.6511 311.812 60.6569V60.6398ZM312.069 62.2468L312.669 63.1401H312.421L311.851 62.2426H311.384V63.1401H311.157V61.1527H312.014C312.536 61.1527 312.708 61.345 312.708 61.6998C312.708 62.0545 312.434 62.2212 312.057 62.2468H312.069ZM311.962 61.3536H311.384V62.0417H311.984C312.215 62.0417 312.455 61.9947 312.455 61.6955C312.455 61.3963 312.194 61.3536 311.949 61.3536H311.962Z" fill="black"/>
</g>
<defs>
<clipPath id="clip0_4_104">
<rect width="313" height="106" fill="white" transform="translate(0.564819 0.482971)"/>
</clipPath>
</defs>
</svg>
