<svg width="125" height="36" viewBox="0 0 125 36" fill="none" xmlns="http://www.w3.org/2000/svg">
<path id="la-cucina-italiana" d="M106.285 31.2504L109.223 24.5217L111.835 31.2504H106.285ZM102.096 35.4287H106.448C106.666 35.4287 106.721 35.2659 106.394 35.2117C105.143 35.0489 104.925 34.2892 105.306 33.3124L105.959 31.8473H112.053L112.597 33.3124C112.978 34.2892 112.76 34.8861 111.345 35.2117C111.128 35.2659 111.128 35.4287 111.345 35.4287H117.385C117.548 35.4287 117.548 35.2659 117.385 35.2117C116.188 34.9403 115.372 34.1806 114.991 33.2582L111.128 23.3822C110.801 22.6225 110.747 21.8628 110.964 21.3202C111.073 21.1031 111.019 20.9946 110.801 20.9946H107.156C106.938 20.9946 106.884 21.0489 106.884 21.1031C106.884 21.1574 106.884 21.2117 107.101 21.2659C107.754 21.5372 108.244 22.2427 108.734 23.4365L104.381 33.2039C103.946 34.1264 103.184 34.8861 102.041 35.1574C101.933 35.2659 101.932 35.4287 102.096 35.4287ZM85.9361 21.2659C86.6434 21.5372 87.2963 22.1341 87.8948 22.8396V33.1496C87.8948 34.1806 87.4051 34.9403 86.2625 35.2117C86.0993 35.2659 86.0993 35.4287 86.2625 35.4287H90.3977C90.5609 35.4287 90.5609 35.2659 90.3977 35.2117C89.2006 34.9403 88.7654 34.1806 88.7654 33.1496V24.0334L96.9812 35.3202C97.09 35.4287 97.1989 35.483 97.3077 35.483H100.463C100.572 35.483 100.572 35.3202 100.463 35.2659C99.9193 35.1031 99.3752 34.6148 98.8856 34.0721V23.3279C98.8856 22.2969 99.3752 21.5372 100.518 21.2659C100.681 21.2117 100.681 21.0489 100.518 21.0489H96.3827C96.2195 21.0489 96.2195 21.2117 96.3827 21.2659C97.5797 21.5372 98.015 22.2969 98.015 23.3279V32.8783L89.5271 21.2117C89.4183 21.1031 89.3095 21.0489 89.2007 21.0489H85.9361C85.8273 21.0489 85.8273 21.2117 85.9361 21.2659ZM48.067 23.3279V33.1496C48.067 34.1806 47.5773 34.9403 46.4347 35.2117C46.2715 35.2659 46.2715 35.4287 46.4347 35.4287H56.7725C56.8813 35.4287 56.9358 35.3744 57.0446 35.2117L57.8063 32.607C57.9151 32.3357 57.8063 32.2814 57.6975 32.2814C57.5887 32.2814 57.5343 32.3899 57.4799 32.4985C56.7181 34.0721 55.7932 34.5605 53.3991 34.6148L50.3522 34.7233V23.3279C50.3522 22.2969 50.8419 21.5372 51.9845 21.2659C52.1477 21.2117 52.1477 21.0489 51.9845 21.0489H46.4347C46.2715 21.0489 46.2715 21.2117 46.4347 21.2659C47.5773 21.5372 48.067 22.2969 48.067 23.3279ZM8.72884 23.3279V33.1496C8.72884 34.1806 8.23916 34.9403 7.09656 35.2117C6.93333 35.2659 6.93333 35.4287 7.09656 35.4287H12.7007C12.864 35.4287 12.864 35.2659 12.7007 35.2117C11.5037 34.9403 11.0685 34.1806 11.0685 33.1496V23.3279C11.0685 22.2969 11.5581 21.5372 12.7007 21.2659C12.864 21.2117 12.864 21.0489 12.7007 21.0489H7.09656C6.93333 21.0489 6.93333 21.2117 7.09656 21.2659C8.23916 21.5372 8.72884 22.2969 8.72884 23.3279ZM10.0347 15.1341L10.47 11.9868C10.5244 11.7155 10.2523 11.6613 10.1435 11.9868C9.49058 13.7775 8.29357 14.483 6.82451 14.5372L4.04962 14.5915V3.19615C4.04962 2.16514 4.5393 1.40545 5.68191 1.13413C5.84513 1.07987 5.84513 0.91708 5.68191 0.91708H0.132126C-0.0311026 0.91708 -0.0311026 1.07987 0.132126 1.13413C1.32914 1.40545 1.76441 2.16514 1.76441 3.19615V13.0179C1.76441 14.0489 1.27473 14.8086 0.132126 15.0799C-0.0311026 15.1341 -0.0311026 15.2969 0.132126 15.2969H9.87145C9.92586 15.3512 10.0347 15.2969 10.0347 15.1341ZM22.0592 11.1729H16.5094L19.4475 4.44421L22.0592 11.1729ZM27.6634 15.1341C26.4664 14.8628 25.6502 14.1031 25.2694 13.1806L21.4063 3.30468C21.0798 2.54499 21.0254 1.7853 21.2431 1.24266C21.3519 1.02561 21.2975 0.91708 21.0798 0.91708H17.4344C17.2167 0.91708 17.1623 0.971343 17.1623 1.02561C17.1623 1.07987 17.1623 1.13413 17.38 1.1884C18.0329 1.45972 18.5226 2.16514 19.0123 3.35894L14.6595 13.1264C14.2242 14.0489 13.4625 14.8086 12.3199 15.0799C12.1566 15.1341 12.1566 15.2969 12.3199 15.2969H16.6726C16.8903 15.2969 16.9447 15.1341 16.6182 15.0799C15.3668 14.9171 15.1492 14.1574 15.53 13.2349L16.183 11.7698H22.2768L22.8209 13.2349C23.2018 14.2117 22.9842 14.8086 21.5695 15.0799C21.3519 15.1341 21.3519 15.2969 21.5695 15.2969H27.609C27.8266 15.3512 27.8266 15.1341 27.6634 15.1341ZM28.0987 23.9791L27.9354 21.2659C27.9354 21.1031 27.8266 21.0489 27.7178 21.0489H16.4006C16.2918 21.0489 16.183 21.1574 16.183 21.2659L16.0197 23.9791C16.0197 24.1961 16.0197 24.3047 16.1286 24.3047C16.2374 24.3047 16.2374 24.1962 16.2918 24.0876C16.9447 22.5682 18.1417 21.7543 20.4813 21.7543H20.8622V33.1496C20.8622 34.1806 20.3725 34.9403 19.2299 35.2117C19.0667 35.2659 19.0667 35.4287 19.2299 35.4287H24.8341C24.9973 35.4287 24.9973 35.2659 24.8341 35.2117C23.6371 34.9403 23.2018 34.1806 23.2018 33.1496V21.7543H23.5827C25.9767 21.7543 27.1737 22.5682 27.7722 24.0876C27.8266 24.2504 27.881 24.3047 27.9354 24.3047C28.0987 24.3047 28.1531 24.1961 28.0987 23.9791ZM35.6616 24.5217L38.2733 31.2504H32.7235L35.6616 24.5217ZM37.3483 21.0489H33.7029C33.4852 21.0489 33.4308 21.1031 33.4308 21.1574C33.4308 21.2117 33.4308 21.2659 33.6484 21.3202C34.3014 21.5915 34.791 22.2969 35.2807 23.4907L30.928 33.2582C30.4927 34.1806 29.731 34.9403 28.5883 35.2117C28.4251 35.2659 28.4251 35.4287 28.5883 35.4287H32.9411C33.1588 35.4287 33.2132 35.2659 32.8867 35.2117C31.6353 35.0489 31.4176 34.2892 31.7985 33.3124L32.4514 31.8473H38.5453L39.0894 33.3124C39.4703 34.2892 39.2526 34.8861 37.838 35.2117C37.6203 35.2659 37.6203 35.4287 37.838 35.4287H43.8774C44.0407 35.4287 44.0407 35.2659 43.8774 35.2117C42.6804 34.9403 41.8643 34.1806 41.4834 33.2582L37.6203 23.3822C37.2939 22.6225 37.2395 21.8628 37.4571 21.3202C37.6203 21.1031 37.5659 21.0489 37.3483 21.0489ZM48.339 12.3667C48.4479 12.2582 48.3934 12.1496 48.2846 12.0411L46.87 10.793C46.7612 10.6845 46.7068 10.7388 46.6523 10.8473C45.7818 13.2892 44.1495 14.8086 42.2452 14.8086C38.9806 14.8086 36.6954 11.3357 36.6954 7.5915C36.7498 4.49848 38.2733 1.56824 41.157 1.56824C42.6804 1.56824 44.2039 2.43646 45.5641 4.33568C45.673 4.44421 45.7274 4.44421 45.8362 4.38995L47.5229 3.08762C47.6317 2.9791 47.6317 2.87057 47.5773 2.8163C46.2171 1.24266 44.3671 0.482971 42.4084 0.482971C38.4365 0.482971 34.1925 3.52173 34.1925 8.45972C34.1925 13.0179 37.6748 15.6768 41.4834 15.6768C43.8775 15.6225 46.4347 14.5915 48.339 12.3667ZM65.7501 0.91708H61.3973C61.2341 0.91708 61.2341 1.07987 61.3973 1.13413C62.5944 1.40545 63.0296 2.16514 63.0296 3.19615V9.54499C63.0296 13.0179 61.2341 14.7543 58.6225 14.7543C56.4461 14.7543 54.3241 13.3434 54.3241 10.3589V3.19615C54.3241 2.16514 54.8138 1.40545 55.9564 1.13413C56.1196 1.07987 56.1196 0.91708 55.9564 0.91708H50.4066C50.2434 0.91708 50.2434 1.07987 50.4066 1.13413C51.6036 1.40545 52.0389 2.16514 52.0389 3.19615V10.1961C52.0389 13.7233 54.2697 15.6225 58.4048 15.6225C61.7238 15.6225 64.0634 13.5605 64.0634 9.43646V3.19615C64.0634 2.16514 64.5531 1.40545 65.6957 1.13413C65.9133 1.13413 65.9133 0.91708 65.7501 0.91708ZM64.1722 33.1496V23.3279C64.1722 22.2969 64.6619 21.5372 65.8045 21.2659C65.9678 21.2117 65.9678 21.0489 65.8045 21.0489H60.2003C60.0371 21.0489 60.0371 21.2117 60.2003 21.2659C61.3973 21.5372 61.8326 22.2969 61.8326 23.3279V33.1496C61.8326 34.1806 61.3429 34.9403 60.2003 35.2117C60.0371 35.2659 60.0371 35.4287 60.2003 35.4287H65.8045C65.9678 35.4287 65.9678 35.2659 65.8045 35.2117C64.6619 34.9403 64.1722 34.1806 64.1722 33.1496ZM81.8009 12.3667C81.9098 12.2582 81.8554 12.1496 81.7465 12.0411L80.3319 10.793C80.2231 10.6845 80.1687 10.7388 80.1142 10.8473C79.2437 13.2892 77.6114 14.8086 75.7071 14.8086C72.4425 14.8086 70.1573 11.3357 70.1573 7.5915C70.1573 4.49848 71.6808 1.56824 74.6189 1.56824C76.1423 1.56824 77.6658 2.43646 79.0261 4.33568C79.1349 4.44421 79.1893 4.44421 79.2981 4.38995L80.9848 3.08762C81.0936 2.9791 81.0936 2.87057 81.0392 2.8163C79.679 1.24266 77.7746 0.482971 75.8159 0.482971C71.844 0.482971 67.6 3.52173 67.6 8.45972C67.6 13.0179 71.0823 15.6768 74.8909 15.6768C77.3394 15.6225 79.8966 14.5915 81.8009 12.3667ZM78.3731 31.2504H72.8234L75.7615 24.5217L78.3731 31.2504ZM83.9773 35.2117C82.7803 34.9403 81.9642 34.1806 81.5833 33.2582L77.7202 23.3822C77.3938 22.6225 77.3394 21.8628 77.557 21.3202C77.6658 21.1031 77.6114 20.9946 77.3938 20.9946H73.7483C73.5307 20.9946 73.4763 21.0489 73.4763 21.1031C73.4763 21.1574 73.4763 21.2117 73.6939 21.2659C74.3468 21.5372 74.8365 22.2427 75.3262 23.4365L70.9734 33.2039C70.5382 34.1264 69.7764 34.8861 68.6338 35.1574C68.4706 35.2117 68.4706 35.3744 68.6338 35.3744H72.9866C73.2042 35.3744 73.2586 35.2117 72.9322 35.1574C71.6808 34.9946 71.4631 34.2349 71.844 33.2582L72.4969 31.7931H78.5908L79.1349 33.2582C79.5157 34.2349 79.2981 34.8318 77.8835 35.1574C77.6658 35.2117 77.6658 35.3744 77.8835 35.3744H83.9229C84.195 35.4287 84.195 35.2659 83.9773 35.2117ZM88.1669 13.0721V3.19615C88.1669 2.16514 88.6566 1.40545 89.7992 1.13413C89.9624 1.07987 89.9624 0.91708 89.7992 0.91708H84.195C84.0317 0.91708 84.0317 1.07987 84.195 1.13413C85.392 1.40545 85.8273 2.16514 85.8273 3.19615V13.0179C85.8273 14.0489 85.3376 14.8086 84.195 15.0799C84.0317 15.1341 84.0317 15.2969 84.195 15.2969H89.7992C89.9624 15.2969 89.9624 15.1341 89.7992 15.0799C88.6021 14.8628 88.1669 14.1031 88.1669 13.0721ZM107.918 0.91708H103.782C103.619 0.91708 103.619 1.07987 103.782 1.13413C104.979 1.40545 105.415 2.16514 105.415 3.19615V12.7465L96.9268 1.07987C96.818 0.971343 96.7092 0.91708 96.6004 0.91708H93.3358C93.227 0.91708 93.227 1.07987 93.3358 1.13413C94.0431 1.40545 94.696 2.00235 95.2945 2.70778V13.0179C95.2945 14.0489 94.8048 14.8086 93.6622 15.0799C93.499 15.1341 93.499 15.2969 93.6622 15.2969H97.7974C97.9606 15.2969 97.9606 15.1341 97.7974 15.0799C96.6004 14.8086 96.1651 14.0489 96.1651 13.0179V3.90158L104.381 15.1884C104.49 15.2969 104.599 15.3512 104.707 15.3512H107.863C107.972 15.3512 107.972 15.1884 107.863 15.1341C107.319 14.9713 106.775 14.483 106.285 13.9403V3.19615C106.285 2.16514 106.775 1.40545 107.918 1.13413C108.081 1.13413 108.081 0.91708 107.918 0.91708ZM119.289 11.1729H113.685L116.623 4.44421L119.289 11.1729ZM124.893 15.1341C123.696 14.8628 122.88 14.1031 122.499 13.1806L118.636 3.30468C118.31 2.54499 118.255 1.7853 118.473 1.24266C118.582 1.02561 118.527 0.91708 118.31 0.91708H114.664C114.447 0.91708 114.392 0.971343 114.392 1.02561C114.392 1.07987 114.392 1.13413 114.61 1.1884C115.263 1.45972 115.753 2.16514 116.242 3.35894L111.889 13.1264C111.454 14.0489 110.692 14.8086 109.55 15.0799C109.387 15.1341 109.387 15.2969 109.55 15.2969H113.903C114.12 15.2969 114.175 15.1341 113.848 15.0799C112.597 14.9171 112.379 14.1574 112.76 13.2349L113.413 11.7698H119.507L120.051 13.2349C120.432 14.2117 120.214 14.8086 118.799 15.0799C118.582 15.1341 118.582 15.2969 118.799 15.2969H124.839C125.057 15.3512 125.057 15.1341 124.893 15.1341Z" fill="black"/>
</svg>
