<svg width="351" height="99" viewBox="0 0 351 99" fill="none" xmlns="http://www.w3.org/2000/svg">
<path id="la-cucina-italiana" d="M297.636 87.1317L305.863 68.2914L313.176 87.1317H297.636ZM285.906 98.831H298.093C298.703 98.831 298.855 98.3752 297.941 98.2232C294.437 97.7674 293.828 95.6403 294.894 92.9054L296.722 88.8031H313.785L315.309 92.9054C316.375 95.6403 315.766 97.3116 311.805 98.2232C311.195 98.3752 311.195 98.831 311.805 98.831H328.715C329.172 98.831 329.172 98.3752 328.715 98.2232C325.364 97.4635 323.078 95.3364 322.012 92.7535L311.195 65.1007C310.281 62.9736 310.129 60.8465 310.738 59.3271C311.043 58.7193 310.891 58.4155 310.281 58.4155H300.074C299.465 58.4155 299.312 58.5674 299.312 58.7193C299.312 58.8713 299.312 59.0232 299.922 59.1752C301.75 59.9348 303.121 61.91 304.492 65.2527L292.304 92.6015C291.085 95.1845 288.953 97.3116 285.753 98.0713C285.449 98.3752 285.449 98.831 285.906 98.831ZM240.659 59.1752C242.639 59.9348 244.467 61.6062 246.143 63.5814V92.4496C246.143 95.3364 244.772 97.4635 241.573 98.2232C241.116 98.3752 241.116 98.831 241.573 98.831H253.151C253.608 98.831 253.608 98.3752 253.151 98.2232C249.799 97.4635 248.581 95.3364 248.581 92.4496V66.924L271.585 98.5271C271.89 98.831 272.194 98.9829 272.499 98.9829H281.335C281.64 98.9829 281.64 98.5271 281.335 98.3752C279.812 97.9193 278.288 96.5519 276.917 95.0325V64.9488C276.917 62.062 278.288 59.9348 281.488 59.1752C281.945 59.0232 281.945 58.5674 281.488 58.5674H269.909C269.452 58.5674 269.452 59.0232 269.909 59.1752C273.261 59.9348 274.48 62.062 274.48 64.9488V91.6899L250.714 59.0232C250.409 58.7193 250.104 58.5674 249.799 58.5674H240.659C240.354 58.5674 240.354 59.0232 240.659 59.1752ZM134.625 64.9488V92.4496C134.625 95.3364 133.254 97.4635 130.055 98.2232C129.598 98.3752 129.598 98.831 130.055 98.831H159.001C159.305 98.831 159.458 98.679 159.762 98.2232L161.895 90.9302C162.2 90.1705 161.895 90.0186 161.591 90.0186C161.286 90.0186 161.134 90.3224 160.981 90.6263C158.848 95.0325 156.258 96.4 149.555 96.5519L141.024 96.8558V64.9488C141.024 62.062 142.395 59.9348 145.594 59.1752C146.051 59.0232 146.051 58.5674 145.594 58.5674H130.055C129.598 58.5674 129.598 59.0232 130.055 59.1752C133.254 59.9348 134.625 62.062 134.625 64.9488ZM24.4784 64.9488V92.4496C24.4784 95.3364 23.1073 97.4635 19.908 98.2232C19.451 98.3752 19.451 98.831 19.908 98.831H35.5997C36.0568 98.831 36.0568 98.3752 35.5997 98.2232C32.2481 97.4635 31.0293 95.3364 31.0293 92.4496V64.9488C31.0293 62.062 32.4004 59.9348 35.5997 59.1752C36.0568 59.0232 36.0568 58.5674 35.5997 58.5674H19.908C19.451 58.5674 19.451 59.0232 19.908 59.1752C23.1073 59.9348 24.4784 62.062 24.4784 64.9488ZM28.1347 42.0062L29.3535 33.1938C29.5059 32.4341 28.7441 32.2821 28.4394 33.1938C26.6113 38.2077 23.2596 40.1829 19.1463 40.3348L11.3766 40.4868V8.57981C11.3766 5.69299 12.7477 3.56586 15.947 2.80617C16.404 2.65423 16.404 2.19841 15.947 2.19841H0.4076C-0.0494408 2.19841 -0.0494408 2.65423 0.4076 2.80617C3.75923 3.56586 4.97801 5.69299 4.97801 8.57981V36.0806C4.97801 38.9674 3.60688 41.0945 0.4076 41.8542C-0.0494408 42.0062 -0.0494408 42.462 0.4076 42.462H27.6777C27.83 42.6139 28.1347 42.462 28.1347 42.0062ZM61.8034 30.9147H46.264L54.4907 12.0744L61.8034 30.9147ZM77.4951 42.0062C74.1435 41.2465 71.8583 39.1193 70.7919 36.5364L59.9752 8.88369C59.0612 6.75655 58.9088 4.62942 59.5182 3.11004C59.8229 2.50229 59.6705 2.19841 59.0612 2.19841H48.8539C48.2445 2.19841 48.0922 2.35035 48.0922 2.50229C48.0922 2.65423 48.0922 2.80617 48.7016 2.9581C50.5297 3.71779 51.9008 5.69299 53.272 9.03562L41.0842 36.3845C39.8654 38.9674 37.7326 41.0945 34.5333 41.8542C34.0763 42.0062 34.0763 42.462 34.5333 42.462H46.7211C47.3304 42.462 47.4828 42.0062 46.5687 41.8542C43.0647 41.3984 42.4553 39.2713 43.5218 36.6883L45.3499 32.586H62.4128L63.9363 36.6883C65.0027 39.4232 64.3933 41.0945 60.4323 41.8542C59.8229 42.0062 59.8229 42.462 60.4323 42.462H77.3428C77.9522 42.6139 77.9522 42.0062 77.4951 42.0062ZM78.7139 66.7721L78.2569 59.1752C78.2569 58.7193 77.9522 58.5674 77.6475 58.5674H45.9593C45.6546 58.5674 45.3499 58.8713 45.3499 59.1752L44.8929 66.7721C44.8929 67.3798 44.8929 67.6837 45.1976 67.6837C45.5023 67.6837 45.5023 67.3798 45.6546 67.0759C47.4828 62.8217 50.8344 60.5426 57.3853 60.5426H58.4518V92.4496C58.4518 95.3364 57.0806 97.4635 53.8814 98.2232C53.4243 98.3752 53.4243 98.831 53.8814 98.831H69.5731C70.0301 98.831 70.0301 98.3752 69.5731 98.2232C66.2215 97.4635 65.0027 95.3364 65.0027 92.4496V60.5426H66.0691C72.7724 60.5426 76.124 62.8217 77.7998 67.0759C77.9522 67.5317 78.1045 67.6837 78.2569 67.6837C78.7139 67.6837 78.8663 67.3798 78.7139 66.7721ZM99.8901 68.2914L107.203 87.1317H91.6634L99.8901 68.2914ZM104.613 58.5674H94.4056C93.7962 58.5674 93.6439 58.7193 93.6439 58.8713C93.6439 59.0232 93.6439 59.1752 94.2533 59.3271C96.0815 60.0868 97.4526 62.062 98.8237 65.4046L86.6359 92.7535C85.4172 95.3364 83.2843 97.4635 80.085 98.2232C79.628 98.3752 79.628 98.831 80.085 98.831H92.2728C92.8822 98.831 93.0345 98.3752 92.1204 98.2232C88.6165 97.7674 88.0071 95.6403 89.0735 92.9054L90.9017 88.8031H107.965L109.488 92.9054C110.554 95.6403 109.945 97.3116 105.984 98.2232C105.375 98.3752 105.375 98.831 105.984 98.831H122.895C123.352 98.831 123.352 98.3752 122.895 98.2232C119.543 97.4635 117.258 95.3364 116.191 92.7535L105.375 65.1007C104.461 62.9736 104.308 60.8465 104.918 59.3271C105.375 58.7193 105.222 58.5674 104.613 58.5674ZM135.387 34.2573C135.692 33.9535 135.539 33.6496 135.235 33.3457L131.274 29.8511C130.969 29.5473 130.817 29.6992 130.664 30.0031C128.227 36.8403 123.656 41.0945 118.324 41.0945C109.183 41.0945 102.785 31.3705 102.785 20.8868C102.937 12.2263 107.203 4.02167 115.277 4.02167C119.543 4.02167 123.809 6.45268 127.617 11.7705C127.922 12.0744 128.074 12.0744 128.379 11.9224L133.102 8.27593C133.406 7.97206 133.406 7.66818 133.254 7.51624C129.445 3.11004 124.266 0.98291 118.781 0.98291C107.66 0.98291 95.7768 9.49144 95.7768 23.3178C95.7768 36.0806 105.527 43.5255 116.191 43.5255C122.895 43.3736 130.055 40.4868 135.387 34.2573ZM184.138 2.19841H171.95C171.493 2.19841 171.493 2.65423 171.95 2.80617C175.302 3.56586 176.521 5.69299 176.521 8.57981V26.3566C176.521 36.0806 171.493 40.9426 164.181 40.9426C158.087 40.9426 152.145 36.9922 152.145 28.6356V8.57981C152.145 5.69299 153.516 3.56586 156.716 2.80617C157.173 2.65423 157.173 2.19841 156.716 2.19841H141.176C140.719 2.19841 140.719 2.65423 141.176 2.80617C144.528 3.56586 145.747 5.69299 145.747 8.57981V28.1798C145.747 38.0558 151.993 43.3736 163.571 43.3736C172.864 43.3736 179.415 37.6 179.415 26.0527V8.57981C179.415 5.69299 180.786 3.56586 183.986 2.80617C184.595 2.80617 184.595 2.19841 184.138 2.19841ZM179.72 92.4496V64.9488C179.72 62.062 181.091 59.9348 184.29 59.1752C184.747 59.0232 184.747 58.5674 184.29 58.5674H168.599C168.142 58.5674 168.142 59.0232 168.599 59.1752C171.95 59.9348 173.169 62.062 173.169 64.9488V92.4496C173.169 95.3364 171.798 97.4635 168.599 98.2232C168.142 98.3752 168.142 98.831 168.599 98.831H184.29C184.747 98.831 184.747 98.3752 184.29 98.2232C181.091 97.4635 179.72 95.3364 179.72 92.4496ZM229.08 34.2573C229.385 33.9535 229.233 33.6496 228.928 33.3457L224.967 29.8511C224.662 29.5473 224.51 29.6992 224.358 30.0031C221.92 36.8403 217.35 41.0945 212.017 41.0945C202.877 41.0945 196.478 31.3705 196.478 20.8868C196.478 12.2263 200.744 4.02167 208.971 4.02167C213.236 4.02167 217.502 6.45268 221.311 11.7705C221.615 12.0744 221.768 12.0744 222.072 11.9224L226.795 8.27593C227.1 7.97206 227.1 7.66818 226.947 7.51624C223.139 3.11004 217.807 0.98291 212.322 0.98291C201.201 0.98291 189.318 9.49144 189.318 23.3178C189.318 36.0806 199.068 43.5255 209.732 43.5255C216.588 43.3736 223.748 40.4868 229.08 34.2573ZM219.482 87.1317H203.943L212.17 68.2914L219.482 87.1317ZM235.174 98.2232C231.823 97.4635 229.537 95.3364 228.471 92.7535L217.654 65.1007C216.74 62.9736 216.588 60.8465 217.197 59.3271C217.502 58.7193 217.35 58.4155 216.74 58.4155H206.533C205.924 58.4155 205.771 58.5674 205.771 58.7193C205.771 58.8713 205.771 59.0232 206.381 59.1752C208.209 59.9348 209.58 61.91 210.951 65.2527L198.763 92.6015C197.544 95.1845 195.412 97.3116 192.212 98.0713C191.755 98.2232 191.755 98.679 192.212 98.679H204.4C205.009 98.679 205.162 98.2232 204.248 98.0713C200.744 97.6155 200.134 95.4883 201.201 92.7535L203.029 88.6511H220.092L221.615 92.7535C222.682 95.4883 222.072 97.1597 218.111 98.0713C217.502 98.2232 217.502 98.679 218.111 98.679H235.022C235.784 98.831 235.784 98.3752 235.174 98.2232ZM246.905 36.2325V8.57981C246.905 5.69299 248.276 3.56586 251.475 2.80617C251.932 2.65423 251.932 2.19841 251.475 2.19841H235.784C235.327 2.19841 235.327 2.65423 235.784 2.80617C239.135 3.56586 240.354 5.69299 240.354 8.57981V36.0806C240.354 38.9674 238.983 41.0945 235.784 41.8542C235.327 42.0062 235.327 42.462 235.784 42.462H251.475C251.932 42.462 251.932 42.0062 251.475 41.8542C248.124 41.2465 246.905 39.1193 246.905 36.2325ZM302.207 2.19841H290.628C290.171 2.19841 290.171 2.65423 290.628 2.80617C293.98 3.56586 295.199 5.69299 295.199 8.57981V35.3209L271.433 2.65423C271.128 2.35035 270.823 2.19841 270.519 2.19841H261.378C261.073 2.19841 261.073 2.65423 261.378 2.80617C263.358 3.56586 265.187 5.23717 266.862 7.21237V36.0806C266.862 38.9674 265.491 41.0945 262.292 41.8542C261.835 42.0062 261.835 42.462 262.292 42.462H273.87C274.327 42.462 274.327 42.0062 273.87 41.8542C270.519 41.0945 269.3 38.9674 269.3 36.0806V10.555L292.304 42.1581C292.609 42.462 292.914 42.6139 293.218 42.6139H302.054C302.359 42.6139 302.359 42.1581 302.054 42.0062C300.531 41.5504 299.008 40.1829 297.636 38.6635V8.57981C297.636 5.69299 299.008 3.56586 302.207 2.80617C302.664 2.80617 302.664 2.19841 302.207 2.19841ZM334.047 30.9147H318.356L326.582 12.0744L334.047 30.9147ZM349.739 42.0062C346.387 41.2465 344.102 39.1193 343.036 36.5364L332.219 8.88369C331.305 6.75655 331.153 4.62942 331.762 3.11004C332.067 2.50229 331.914 2.19841 331.305 2.19841H321.098C320.488 2.19841 320.336 2.35035 320.336 2.50229C320.336 2.65423 320.336 2.80617 320.945 2.9581C322.774 3.71779 324.145 5.69299 325.516 9.03562L313.328 36.3845C312.109 38.9674 309.976 41.0945 306.777 41.8542C306.32 42.0062 306.32 42.462 306.777 42.462H318.965C319.574 42.462 319.727 42.0062 318.813 41.8542C315.309 41.3984 314.699 39.2713 315.766 36.6883L317.594 32.586H334.657L336.18 36.6883C337.247 39.4232 336.637 41.0945 332.676 41.8542C332.067 42.0062 332.067 42.462 332.676 42.462H349.587C350.196 42.6139 350.196 42.0062 349.739 42.0062Z" fill="black"/>
</svg>
