<svg width="734" height="179" viewBox="0 0 734 179" fill="none" xmlns="http://www.w3.org/2000/svg">
<g id="new-yorker">
<path id="Vector" fill-rule="evenodd" clip-rule="evenodd" d="M6.44443 68.7209H18.691L70.6163 133.795V68.7209H78.6177V170.038L14.2823 88.3721V168.749H6.11786L6.44443 68.7209ZM92.3336 68.7209H129.4L134.625 80.3181C134.625 80.3181 128.42 74.1977 116.827 74.1977H107.846V109.473H122.869C130.543 109.473 131.686 108.668 134.625 105.768V120.587C134.625 120.587 131.359 115.594 122.869 115.594H107.846V161.984H128.747C148.995 161.984 159.445 153.608 159.445 153.608L151.934 168.749H92.1704L92.3336 68.7209ZM607.178 68.7209H648.326L653.551 80.3181C653.551 80.3181 647.676 74.1977 634.937 74.1977H621.382V109.473H637.714C643.756 109.473 645.549 108.99 647.837 106.735V118.654C647.837 118.654 646.205 115.111 637.714 115.111H621.382V161.984H631.345C649.142 161.984 656.167 156.668 656.167 156.668L647.182 168.749H607.178V68.7209ZM139.197 68.7209H154.873L188.673 142.011L195.694 126.708L169.895 68.7209H184.754L203.533 107.863L221.494 68.7209H229.169L207.778 118.494L218.718 142.011L251.539 68.7209H260.52L215.453 169.555L199.777 136.856L184.591 169.716L139.197 68.7209ZM401.763 65.177C436.707 65.177 457.934 89.4996 457.934 116.561C457.934 151.353 438.829 173.42 402.58 173.42C366.33 173.42 344.776 146.521 344.776 119.621C344.776 89.3388 367.636 65.177 401.763 65.177ZM359.799 117.366C359.799 140.883 373.188 166.494 403.559 166.494C431.645 166.494 442.749 143.782 442.749 118.01C442.749 97.3922 428.542 71.1372 400.947 71.1372C381.843 71.1372 359.799 86.117 359.799 117.366ZM469.854 68.7209H493.694C506.268 68.7209 516.718 75.8081 516.718 89.1775C516.718 104.802 505.124 108.829 497.123 111.406C511.492 113.822 516.881 120.587 516.881 139.756C516.881 158.923 521.779 165.85 526.189 165.85C529.618 165.85 532.23 163.595 533.21 162.145L535.169 163.434C534.516 164.4 530.597 170.521 521.29 170.521C511.982 170.521 504.961 162.145 504.961 142.171C504.961 113.5 497.123 112.856 490.755 112.856V110.762C490.918 110.762 504.145 107.863 504.145 91.7546C504.145 76.6135 494.837 74.1977 491.082 74.1977H484.224V168.91H469.528L469.854 68.7209ZM662.697 68.7209H686.536C699.108 68.7209 709.559 75.8081 709.559 89.1775C709.559 104.802 697.964 108.829 689.968 111.406C704.334 113.822 709.726 120.587 709.726 139.756C709.726 158.923 714.623 165.85 719.032 165.85C722.459 165.85 725.074 163.595 726.052 162.145L728.012 163.434C727.357 164.4 723.442 170.521 714.135 170.521C704.822 170.521 697.803 162.145 697.803 142.171C697.803 113.5 689.968 112.856 683.599 112.856V110.762C683.76 110.762 696.987 107.863 696.987 91.7546C696.987 76.6135 687.68 74.1977 683.926 74.1977H677.068V168.91H662.369L662.697 68.7209ZM583.011 139.434C583.011 158.601 587.909 165.528 592.318 165.528C595.75 165.528 598.36 163.273 599.343 161.823L601.303 163.111C600.647 164.078 596.727 170.199 587.42 170.199C578.113 170.199 571.094 161.823 571.094 141.849V137.823C571.094 125.903 570.439 116.721 568.479 110.762C566.846 106.091 560.971 102.547 558.517 102.547H555.417V168.588H540.721L540.884 68.3988H555.417V97.8756L582.034 68.3988H591.502L563.42 99.4865C577.786 101.903 582.85 112.534 582.85 135.406V139.434H583.011ZM353.757 6.54547H361.431V24.586H379.067V6.54547H386.741V48.4253H379.067V27.8075H361.431V48.4253H353.757V6.54547ZM401.274 6.54547H420.868L423.318 12.6664C423.318 12.6664 419.398 9.76699 416.132 9.76699H408.948V24.425H415.316C418.908 24.425 419.889 22.8142 419.889 22.8142V29.5794C419.889 29.5794 418.745 27.6465 415.316 27.6465H408.948V45.3648H417.929C424.787 45.3648 427.563 41.8212 427.563 41.8212L424.134 48.5863H401.11V6.54547H401.274ZM328.611 9.76699H328.447V48.4253H320.446V9.76699H316.364C309.996 9.76699 304.934 14.2771 304.934 14.2771L307.22 6.70656H341.837L344.123 14.2771C344.123 14.2771 339.061 9.76699 332.693 9.76699H328.611ZM323.875 168.749H308.363V117.044L280.114 68.7209H289.259L316.037 114.628L342.98 68.7209H352.124L323.875 117.044V168.749Z" fill="#121212" stroke="black" stroke-width="0.1"/>
</g>
</svg>
