<svg width="145" height="36" viewBox="0 0 145 36" fill="none" xmlns="http://www.w3.org/2000/svg">
<g id="new-yorker">
<path id="Vector" fill-rule="evenodd" clip-rule="evenodd" d="M1.84327 13.8022H4.25129L14.4613 26.5978V13.8022H16.0346V33.7241L3.38441 17.6662V33.4707H1.77905L1.84327 13.8022ZM18.7316 13.8022H26.0199L27.0473 16.0826C27.0473 16.0826 25.8272 14.8791 23.5477 14.8791H21.7818V21.8154H24.7357C26.2447 21.8154 26.4694 21.657 27.0473 21.0868V24.0007C27.0473 24.0007 26.4052 23.0188 24.7357 23.0188H21.7818V32.1405H25.8914C29.8728 32.1405 31.9276 30.4935 31.9276 30.4935L30.4507 33.4707H18.6995L18.7316 13.8022ZM119.965 13.8022H128.056L129.083 16.0826C129.083 16.0826 127.928 14.8791 125.423 14.8791H122.758V21.8154H125.969C127.157 21.8154 127.51 21.7203 127.96 21.2769V23.6206C127.96 23.6206 127.639 22.9239 125.969 22.9239H122.758V32.1405H124.717C128.216 32.1405 129.598 31.0953 129.598 31.0953L127.831 33.4707H119.965V13.8022ZM27.9464 13.8022H31.0287L37.6748 28.2131L39.0553 25.2042L33.9824 13.8022H36.9042L40.5965 21.4986L44.1283 13.8022H45.6374L41.4313 23.589L43.5825 28.2131L50.036 13.8022H51.8019L42.9404 33.6291L39.8581 27.1996L36.8721 33.6608L27.9464 13.8022ZM79.5745 13.1054C86.4455 13.1054 90.6193 17.8879 90.6193 23.2089C90.6193 30.0501 86.8628 34.3892 79.735 34.3892C72.6073 34.3892 68.3691 29.1 68.3691 23.8107C68.3691 17.8563 72.8641 13.1054 79.5745 13.1054ZM71.323 23.3673C71.323 27.9914 73.9558 33.0273 79.9277 33.0273C85.4501 33.0273 87.6334 28.5615 87.6334 23.4939C87.6334 19.4398 84.8401 14.2773 79.414 14.2773C75.6575 14.2773 71.323 17.2228 71.323 23.3673ZM92.9632 13.8022H97.6509C100.123 13.8022 102.178 15.1958 102.178 17.8246C102.178 20.8968 99.8983 21.6886 98.3251 22.1954C101.15 22.6705 102.21 24.0007 102.21 27.7697C102.21 31.5387 103.173 32.9006 104.04 32.9006C104.714 32.9006 105.228 32.4572 105.421 32.1722L105.806 32.4255C105.678 32.6156 104.907 33.8192 103.077 33.8192C101.247 33.8192 99.8662 32.1722 99.8662 28.2448C99.8662 22.6071 98.3251 22.4805 97.0729 22.4805V22.0687C97.105 22.0687 99.7057 21.4986 99.7057 18.3313C99.7057 15.3541 97.8756 14.8791 97.1371 14.8791H95.7886V33.5024H92.899L92.9632 13.8022ZM130.882 13.8022H135.569C138.041 13.8022 140.096 15.1958 140.096 17.8246C140.096 20.8968 137.816 21.6886 136.244 22.1954C139.069 22.6705 140.129 24.0007 140.129 27.7697C140.129 31.5387 141.092 32.9006 141.959 32.9006C142.633 32.9006 143.147 32.4572 143.339 32.1722L143.724 32.4255C143.596 32.6156 142.826 33.8192 140.996 33.8192C139.165 33.8192 137.785 32.1722 137.785 28.2448C137.785 22.6071 136.244 22.4805 134.992 22.4805V22.0687C135.023 22.0687 137.624 21.4986 137.624 18.3313C137.624 15.3541 135.794 14.8791 135.056 14.8791H133.708V33.5024H130.817L130.882 13.8022ZM115.213 27.7064C115.213 31.4754 116.176 32.8373 117.043 32.8373C117.718 32.8373 118.231 32.3939 118.424 32.1089L118.81 32.3622C118.681 32.5523 117.91 33.7557 116.08 33.7557C114.25 33.7557 112.87 32.1089 112.87 28.1814V27.3897C112.87 25.0459 112.741 23.2405 112.356 22.0687C112.035 21.1503 110.879 20.4534 110.397 20.4534H109.787V33.4391H106.898L106.93 13.7389H109.787V19.5349L115.021 13.7389H116.883L111.361 19.8516C114.186 20.3268 115.181 22.4171 115.181 26.9145V27.7064H115.213ZM70.1351 1.57672H71.644V5.12401H75.1117V1.57672H76.6207V9.81152H75.1117V5.75746H71.644V9.81152H70.1351V1.57672ZM79.4782 1.57672H83.3311L83.8127 2.78027C83.8127 2.78027 83.042 2.21017 82.3999 2.21017H80.9872V5.09235H82.2394C82.9457 5.09235 83.1385 4.77562 83.1385 4.77562V6.10586C83.1385 6.10586 82.9136 5.7258 82.2394 5.7258H80.9872V9.20974H82.7531C84.1016 9.20974 84.6475 8.51296 84.6475 8.51296L83.9732 9.84319H79.4461V1.57672H79.4782ZM65.1906 2.21017H65.1585V9.81152H63.5852V2.21017H62.7825C61.5303 2.21017 60.5351 3.09699 60.5351 3.09699L60.9845 1.6084H67.7912L68.2407 3.09699C68.2407 3.09699 67.2454 2.21017 65.9932 2.21017H65.1906ZM64.2594 33.4707H61.2093V23.304L55.6548 13.8022H57.4528L62.7183 22.8288L68.0159 13.8022H69.8139L64.2594 23.304V33.4707Z" fill="#121212" stroke="black" stroke-width="0.1"/>
</g>
</svg>
