<svg width="553" height="99" viewBox="0 0 553 99" fill="none" xmlns="http://www.w3.org/2000/svg">
<g id="pitchfork" clip-path="url(#clip0_4_39)">
<path id="Vector" d="M0.0648193 88.6617C7.22808 88.6617 10.1409 85.2828 10.1409 77.6005V21.8044C10.1409 14.1178 7.75036 10.7431 0.0648193 10.7431V3.05228H41.1761C63.6425 3.05228 78.4573 13.1931 78.4573 30.9439C78.4573 47.2971 65.0182 58.8313 40.692 58.8313H33.9746V77.1019C33.9746 85.7515 38.276 88.1631 50.2331 88.1631V95.8583H0.0648193V88.6489V88.6617ZM33.9958 10.2702V52.1205H37.8259C49.3032 52.1205 55.5153 43.4709 55.5153 30.9524C55.5153 17.9653 49.3032 10.2702 37.3545 10.2702H33.9958ZM79.4636 88.6617C86.1811 88.6617 88.5419 85.7771 88.5419 78.5208V52.5934C88.5419 48.7416 85.6758 46.3385 81.8245 46.8242H79.4636V38.6007L104.796 30.9098H111.013V78.0265C111.013 85.2359 113.395 88.1674 120.091 88.1674V95.8583H78.9371V88.6489H79.4636V88.6617ZM99.9598 4.01949C106.826 4.01949 112.388 9.61828 112.388 16.5251C112.388 23.432 106.826 29.0265 99.9598 29.0265C98.326 29.0243 96.7087 28.6992 95.2001 28.0697C93.6915 27.4402 92.3212 26.5188 91.1675 25.3579C90.0138 24.197 89.0993 22.8195 88.4761 21.304C87.8529 19.7885 87.5334 18.1646 87.5356 16.5251C87.52 14.8798 87.8307 13.2478 88.4496 11.7241C89.0685 10.2003 89.9832 8.81537 91.1406 7.64975C92.2958 6.48609 93.671 5.56558 95.1854 4.9422C96.6998 4.31883 98.323 4.00512 99.9598 4.01949ZM126.248 43.4581H117.649V38.1618C127.725 35.2772 140.12 27.1006 143.933 15.0807H148.718V35.2218H164.493V43.4027H148.718V74.6604C148.718 82.3513 153.016 84.7971 157.313 84.7971C160.198 84.8111 163.025 83.9772 165.444 82.3982L167.826 86.723C164 92.9737 154.918 97.7842 145.84 97.7842C132.405 97.7842 126.248 89.6033 126.248 76.1475V43.4751V43.4581ZM200.373 30.9524C208.576 31.0291 216.631 33.1766 223.795 37.2031L215.663 59.3298H210.402C208.971 45.8101 202.759 40.5735 196.063 40.5735C187.936 40.5735 183.155 47.7829 183.155 57.4039C183.155 71.8312 193.231 79.0406 203.706 79.0406C211.837 79.0406 216.135 75.6618 219.001 69.4196L223.782 71.3455C220.916 86.2585 214.22 97.797 196.063 97.797C179.333 97.797 167.38 85.7771 167.38 67.0207C167.86 44.8983 180.815 30.9738 200.36 30.9738" fill="black"/>
<path id="Vector_2" d="M221.841 88.6617C228.563 88.6617 230.924 85.7771 230.924 78.5208V22.7758C230.924 18.924 228.058 17.0066 224.207 17.0066H221.34V8.34427L248.592 1.59079H253.369V44.3955C256.728 35.2602 263.445 30.88 272.494 30.88C284.438 30.88 292.565 37.6377 292.565 51.558V78.0308C292.565 85.2402 294.952 88.1717 301.644 88.1717V95.8625H263.904V88.1674C269.636 88.1674 269.636 84.7885 269.636 78.5506V52.1247C269.636 46.3555 266.77 43.4751 261.509 43.4751C259.46 43.4684 257.474 44.1874 255.901 45.5053C254.328 46.8233 253.269 48.6558 252.911 50.6803V78.5719C252.911 84.8226 253.395 88.193 258.643 88.193V95.8838H220.895V88.6744H221.846L221.841 88.6617ZM305.495 88.6617C312.212 88.6617 314.577 85.7771 314.577 78.5208V43.4538H305.491V38.1661C312.658 38.1661 315.053 36.2402 315.053 30.9567C315.053 18.4553 326.051 1.67175 348.513 1.67175C355.68 1.67175 363.34 4.07062 370.024 6.96375L360.461 30.9567L355.68 29.998C356.164 17.0109 351.85 8.83427 344.207 8.83427C337.991 8.83427 334.645 14.1263 334.645 20.8499C334.645 26.6191 336.076 31.4297 337.031 35.2815H350.462V43.4624H337.511V78.0308C337.511 85.2402 339.897 88.1717 346.589 88.1717V95.8625H305.491V88.6531L305.495 88.6617Z" fill="black"/>
<path id="Vector_3" d="M349.944 64.1276C349.944 42.4866 365.234 30.4582 382.924 30.4582C400.613 30.4582 415.903 42.4738 415.903 64.1276C415.903 85.7728 400.613 97.797 382.924 97.797C365.234 97.797 349.944 85.7771 349.944 64.1276ZM375.276 64.1276C375.276 85.2913 377.191 91.542 382.919 91.542C388.647 91.542 390.571 85.2913 390.571 64.1276C390.571 42.9596 388.656 36.7089 382.924 36.7089C377.191 37.1946 375.276 43.4666 375.276 64.1276ZM417.334 88.6617C424.056 88.6617 426.421 85.7771 426.421 78.5208V53.5521C426.421 49.696 423.551 47.2971 419.699 47.2971H416.833V39.1163L440.739 31.9111H447.452V42.052C447.452 47.344 446.973 55.0349 446.973 57.9195H447.452C449.367 38.6817 457.966 30.5008 468.008 30.5008C469.303 30.3943 470.607 30.5562 471.838 30.9865V53.0749C463.711 51.6347 449.367 52.1205 449.367 67.0207V78.0308C449.367 85.2402 451.754 88.1717 458.446 88.1717V95.8625H417.339V88.6532L417.334 88.6617Z" fill="black"/>
<path id="Vector_4" d="M469.923 88.6617C476.64 88.6617 479.001 85.7771 479.001 78.5208V22.7758C479.001 18.924 476.135 17.0066 472.284 17.0066H469.418V8.34427L497.137 1.59079H501.918V60.263H502.869L513.866 54.9667C519.127 52.5678 520.079 50.1604 520.079 46.7901C520.079 42.4653 516.72 40.0324 511.48 40.0324V32.3969H544.965V39.1546C537.798 47.8042 531.106 51.1703 523.458 55.0264L538.278 75.2229C543.063 81.4736 545.929 88.21 550.706 88.21V95.9051H522.495L502.903 64.1617H501.952V80.0334C501.952 85.3254 502.432 87.7243 507.684 87.7243V95.4194H469.923V88.6617Z" fill="black"/>
</g>
<defs>
<clipPath id="clip0_4_39">
<rect width="552" height="98" fill="white" transform="translate(0.0648193 0.482971)"/>
</clipPath>
</defs>
</svg>
