<svg width="198" height="36" viewBox="0 0 198 36" fill="none" xmlns="http://www.w3.org/2000/svg">
<g id="pitchfork" clip-path="url(#clip0_4_39)">
<path id="Vector" d="M0.193787 31.9754C2.75209 31.9754 3.7924 30.7686 3.7924 28.0249V8.09775C3.7924 5.35253 2.93862 4.14731 0.193787 4.14731V1.40057H14.8764C22.9001 1.40057 28.1911 5.02231 28.1911 11.3619C28.1911 17.2023 23.3914 21.3217 14.7035 21.3217H12.3044V27.8469C12.3044 30.936 13.8406 31.7973 18.111 31.7973V34.5456H0.193787V31.9708V31.9754ZM12.312 3.9784V18.9249H13.6799C17.7789 18.9249 19.9975 15.8358 19.9975 11.3649C19.9975 6.72666 17.7789 3.9784 13.5115 3.9784H12.312ZM28.5505 31.9754C30.9496 31.9754 31.7928 30.9451 31.7928 28.3536V19.0938C31.7928 17.7182 30.7691 16.8599 29.3937 17.0334H28.5505V14.0964L37.5979 11.3497H39.818V28.1771C39.818 30.7519 40.6687 31.7988 43.0602 31.7988V34.5456H28.3625V31.9708H28.5505V31.9754ZM35.8706 1.74601C38.3227 1.74601 40.3093 3.74557 40.3093 6.21231C40.3093 8.67905 38.3227 10.6771 35.8706 10.6771C35.2871 10.6763 34.7094 10.5602 34.1707 10.3354C33.6319 10.1106 33.1425 9.78146 32.7305 9.36687C32.3184 8.95228 31.9918 8.46031 31.7692 7.91905C31.5467 7.37779 31.4325 6.79784 31.4333 6.21231C31.4278 5.62469 31.5387 5.04182 31.7598 4.49764C31.9808 3.95346 32.3075 3.45882 32.7208 3.04253C33.1334 2.62694 33.6246 2.29818 34.1654 2.07555C34.7063 1.85291 35.286 1.74088 35.8706 1.74601ZM45.2591 15.8312H42.1882V13.9397C45.7869 12.9095 50.2135 9.98927 51.5753 5.69644H53.2844V12.8897H58.9181V15.8114H53.2844V26.9749C53.2844 29.7217 54.819 30.5951 56.3537 30.5951C57.3843 30.6002 58.3939 30.3023 59.2578 29.7384L60.1085 31.283C58.7422 33.5154 55.4984 35.2334 52.2562 35.2334C47.458 35.2334 45.2591 32.3117 45.2591 27.506V15.8373V15.8312ZM71.7324 11.3649C74.6622 11.3923 77.539 12.1593 80.0973 13.5973L77.1932 21.4997H75.3143C74.8033 16.6712 72.5846 14.801 70.1931 14.801C67.2906 14.801 65.583 17.3758 65.583 20.8119C65.583 25.9645 69.1817 28.5393 72.9228 28.5393C75.8269 28.5393 77.3616 27.3325 78.3852 25.1032L80.0927 25.791C79.0691 31.1171 76.6776 35.238 70.1931 35.238C64.2182 35.238 59.9493 30.9451 59.9493 24.2464C60.1207 16.3456 64.7475 11.3725 71.7278 11.3725" fill="black"/>
<path id="Vector_2" d="M79.3997 31.9754C81.8003 31.9754 82.6435 30.9451 82.6435 28.3536V8.4447C82.6435 7.06905 81.6199 6.38427 80.2444 6.38427H79.2208V3.29057L88.9536 0.878616H90.6596V16.166C91.8592 12.9034 94.2582 11.3391 97.4899 11.3391C101.756 11.3391 104.658 13.7525 104.658 18.7241V28.1786C104.658 30.7534 105.511 31.8004 107.901 31.8004V34.5471H94.422V31.7988C96.4693 31.7988 96.4693 30.5921 96.4693 28.3643V18.9264C96.4693 16.866 95.4456 15.8373 93.5667 15.8373C92.8349 15.8349 92.1257 16.0917 91.564 16.5624C91.0022 17.0331 90.624 17.6876 90.4958 18.4106V28.3719C90.4958 30.6043 90.6687 31.808 92.5431 31.808V34.5547H79.0616V31.9799H79.4012L79.3997 31.9754ZM109.276 31.9754C111.675 31.9754 112.52 30.9451 112.52 28.3536V15.8297H109.274V13.9412C111.834 13.9412 112.69 13.2534 112.69 11.3664C112.69 6.90166 116.617 0.907529 124.639 0.907529C127.199 0.907529 129.935 1.76427 132.322 2.79753L128.907 11.3664L127.199 11.0241C127.372 6.38579 125.831 3.46557 123.102 3.46557C120.882 3.46557 119.687 5.35557 119.687 7.75688C119.687 9.81731 120.198 11.5354 120.539 12.911H125.336V15.8327H120.71V28.1786C120.71 30.7534 121.563 31.8004 123.953 31.8004V34.5471H109.274V31.9723L109.276 31.9754Z" fill="black"/>
<path id="Vector_3" d="M125.151 23.2132C125.151 15.4843 130.611 11.1884 136.929 11.1884C143.247 11.1884 148.708 15.4797 148.708 23.2132C148.708 30.9436 143.247 35.238 136.929 35.238C130.611 35.238 125.151 30.9451 125.151 23.2132ZM134.198 23.2132C134.198 30.7717 134.882 33.0041 136.928 33.0041C138.973 33.0041 139.66 30.7717 139.66 23.2132C139.66 15.6532 138.976 13.4208 136.929 13.4208C134.882 13.5943 134.198 15.8343 134.198 23.2132ZM149.219 31.9754C151.619 31.9754 152.464 30.9451 152.464 28.3536V19.4362C152.464 18.0591 151.439 17.2023 150.063 17.2023H149.04V14.2806L157.577 11.7073H159.975V15.3291C159.975 17.2191 159.804 19.9658 159.804 20.996H159.975C160.659 14.1254 163.73 11.2036 167.316 11.2036C167.779 11.1656 168.244 11.2234 168.684 11.3771V19.2658C165.782 18.7514 160.659 18.9249 160.659 24.2464V28.1786C160.659 30.7534 161.511 31.8004 163.901 31.8004V34.5471H149.22V31.9723L149.219 31.9754Z" fill="black"/>
<path id="Vector_4" d="M168 31.9754C170.399 31.9754 171.243 30.9451 171.243 28.3536V8.4447C171.243 7.06905 170.219 6.38427 168.843 6.38427H167.82V3.29057L177.719 0.878616H179.427V21.833H179.767L183.694 19.9414C185.573 19.0847 185.913 18.2249 185.913 17.0212C185.913 15.4767 184.713 14.6077 182.842 14.6077V11.8808H194.801V14.2943C192.241 17.3834 189.851 18.5856 187.12 19.9627L192.413 27.1758C194.122 29.4082 195.145 31.8141 196.851 31.8141V34.5623H186.776L179.779 23.2254H179.439V28.8938C179.439 30.7838 179.61 31.6406 181.486 31.6406V34.3888H168V31.9754Z" fill="black"/>
</g>
<defs>
<clipPath id="clip0_4_39">
<rect width="197.143" height="35" fill="white" transform="translate(0.193787 0.482971)"/>
</clipPath>
</defs>
</svg>
