<svg width="107" height="36" viewBox="0 0 107 36" fill="none" xmlns="http://www.w3.org/2000/svg">
<g id="self" clip-path="url(#clip0_4_44)">
<path id="Vector" d="M103.546 0.685971H85.4443C83.5932 0.685971 82.9868 1.34817 82.9868 3.35717V32.7194C82.9868 34.5814 83.6475 35.1876 85.6464 35.1876H87.5352C89.5354 35.1876 90.1947 34.5618 90.1947 32.7194V21.189H101.42C103.272 21.189 103.877 20.5268 103.877 18.5192V17.2298C103.877 15.2208 103.254 14.5586 101.42 14.5586H90.2129V7.64817H103.547C105.401 7.64817 106.005 6.98597 106.005 4.97837V3.37537C106.005 1.34817 105.398 0.685971 103.546 0.685971ZM76.1636 28.2436H67.5422C65.489 28.2436 64.4059 27.93 63.6909 27.2678C62.8657 26.4936 62.6092 25.4058 62.6092 23.3982V3.35717C62.6092 1.34817 61.9861 0.685971 60.1517 0.685971H57.8406C55.9867 0.685971 55.3831 1.34817 55.3831 3.35717V24.1178C55.3831 27.8754 56.0982 30.3982 57.7848 32.2588C59.675 34.2678 62.4071 35.1876 66.809 35.1876H76.1441C77.998 35.1876 78.603 34.5254 78.603 32.5178V30.9148C78.6211 28.9072 78.0161 28.2436 76.1636 28.2436ZM49.459 28.2436H40.0124C37.9592 28.2436 36.8761 27.93 36.161 27.2678C35.3358 26.4936 35.0794 25.4058 35.0794 23.3982V21.189H46.9276C48.7802 21.189 49.3851 20.5268 49.3851 18.5192V17.2298C49.3851 15.2208 48.762 14.5586 46.9276 14.5586H35.0794V7.64817H49.0352C50.8877 7.64817 51.4927 6.98597 51.4927 4.97837V3.37537C51.4927 1.36777 50.8696 0.704171 49.0352 0.704171H30.3289C28.4764 0.704171 27.8714 1.36777 27.8714 3.37537V24.136C27.8714 27.8936 28.5865 30.4178 30.2745 32.2784C32.1633 34.286 34.8954 35.2072 39.2974 35.2072H49.459C51.3115 35.2072 51.9165 34.5436 51.9165 32.536V30.933C51.9165 28.9072 51.3115 28.2436 49.459 28.2436ZM8.35663 10.577C8.35663 8.71497 10.4113 7.42697 13.7859 7.42697C16.9222 7.42697 19.2696 8.08917 20.8656 8.08917C22.0017 8.08917 22.3501 7.46337 22.3501 6.22857V3.98297C22.3501 2.34357 22.1494 1.77237 20.3513 1.31177C18.4625 0.796571 15.8392 0.482971 13.3259 0.482971C6.50551 0.482971 0.855979 4.49817 0.855979 11.0936C0.855979 22.4784 16.9041 20.1572 16.9041 25.1118C16.9041 27.0648 14.8509 28.4648 10.7974 28.4648C8.54063 28.4648 5.25796 27.8936 3.25909 27.3224C2.69037 27.1754 2.37813 27.1194 2.08541 27.1194C1.11246 27.1194 0.747253 27.7466 0.747253 28.9254V31.6512C0.747253 33.1436 1.15009 33.6042 2.80049 34.1754C5.05584 34.9482 8.65075 35.4088 11.4205 35.4088C19.8397 35.4088 24.3518 31.136 24.3518 24.633C24.3699 13.3588 8.35663 15.6254 8.35663 10.577Z" fill="black"/>
</g>
<defs>
<clipPath id="clip0_4_44">
<rect width="105.938" height="35" fill="white" transform="translate(0.708252 0.482971)"/>
</clipPath>
</defs>
</svg>
