<svg width="340" height="113" viewBox="0 0 340 113" fill="none" xmlns="http://www.w3.org/2000/svg">
<g id="self" clip-path="url(#clip0_4_44)">
<path id="Vector" d="M329.145 1.63257H271.22C265.297 1.63257 263.356 3.75161 263.356 10.1804V104.139C263.356 110.098 265.471 112.038 271.867 112.038H277.911C284.312 112.038 286.422 110.035 286.422 104.139V67.2422H322.342C328.27 67.2422 330.206 65.1231 330.206 58.6988V54.5727C330.206 48.1439 328.212 46.0249 322.342 46.0249H286.48V23.9116H329.149C335.082 23.9116 337.013 21.7926 337.013 15.3683V10.2387C337.013 3.75161 335.073 1.63257 329.145 1.63257ZM241.522 89.8169H213.934C207.363 89.8169 203.898 88.8134 201.609 86.6943C198.969 84.2169 198.148 80.7359 198.148 74.3116V10.1804C198.148 3.75161 196.154 1.63257 190.284 1.63257H182.888C176.956 1.63257 175.025 3.75161 175.025 10.1804V76.6143C175.025 88.6387 177.313 96.7116 182.71 102.666C188.758 109.094 197.501 112.038 211.587 112.038H241.46C247.392 112.038 249.328 109.919 249.328 103.494V98.3647C249.386 91.9404 247.45 89.8169 241.522 89.8169ZM156.067 89.8169H125.838C119.268 89.8169 115.802 88.8134 113.514 86.6943C110.873 84.2169 110.052 80.7359 110.052 74.3116V67.2422H147.967C153.895 67.2422 155.831 65.1231 155.831 58.6988V54.5727C155.831 48.1439 153.837 46.0249 147.967 46.0249H110.052V23.9116H154.711C160.639 23.9116 162.575 21.7926 162.575 15.3683V10.2387C162.575 3.81433 160.581 1.69081 154.711 1.69081H94.851C88.923 1.69081 86.9871 3.81433 86.9871 10.2387V76.6726C86.9871 88.6969 89.2754 96.7743 94.6771 102.728C100.721 109.153 109.464 112.1 123.55 112.1H156.067C161.995 112.1 163.931 109.977 163.931 103.553V98.423C163.931 91.9404 161.995 89.8169 156.067 89.8169ZM24.5397 33.2838C24.5397 27.3254 31.1146 23.2038 41.9135 23.2038C51.9497 23.2038 59.4612 25.3228 64.5685 25.3228C68.2038 25.3228 69.319 23.3203 69.319 19.3689V12.183C69.319 6.93689 68.6767 5.10905 62.9226 3.63513C56.8786 1.98649 48.4838 0.982971 40.4415 0.982971C18.6162 0.982971 0.537649 13.8316 0.537649 34.9369C0.537649 71.3683 51.8917 63.9404 51.8917 79.7951C51.8917 86.0447 45.3213 90.5247 32.3501 90.5247C25.1285 90.5247 14.624 88.6969 8.2276 86.869C6.4077 86.3986 5.40854 86.2194 4.47183 86.2194C1.35839 86.2194 0.189728 88.2265 0.189728 91.9987V100.721C0.189728 105.497 1.47882 106.971 6.76008 108.799C13.9772 111.272 25.4809 112.746 34.344 112.746C61.2856 112.746 75.7243 99.0726 75.7243 78.263C75.7823 42.1855 24.5397 49.4387 24.5397 33.2838Z" fill="black"/>
</g>
<defs>
<clipPath id="clip0_4_44">
<rect width="339" height="112" fill="white" transform="translate(0.0648193 0.982971)"/>
</clipPath>
</defs>
</svg>
