<svg width="127" height="36" viewBox="0 0 127 36" fill="none" xmlns="http://www.w3.org/2000/svg">
<g id="tatler" clip-path="url(#clip0_4_118)">
<path id="Vector" d="M124.925 34.9181L118.65 13.5823C120.573 12.9727 122.491 11.8226 123.484 10.2642C124.657 8.42315 124.845 5.67592 122.761 3.94264C120.822 2.32926 117.505 2.39631 116.029 2.39631H108.482V2.95917H109.942V34.9181H108.501V35.483H116.046V34.9181H114.605V2.95917H116.029C120.33 2.97543 121.793 8.33577 119.678 11.2211C117.915 13.625 114.677 14.1351 114.677 14.1351L120.312 34.9181H118.794V35.483H126.411V34.9181H124.925ZM97.2503 2.39022H87.0703V2.9551H88.5138V34.9161H87.0703V35.483H98.3309V28.5418H97.7568V34.9161H93.1805V14.8483H95.7886V18.8574H96.3627V10.2824H95.7886V14.2814H93.1805V2.9551H97.7568V9.3294H98.3309V2.39022H97.2503ZM65.8579 2.39022V2.9551H67.2949V34.9161H65.8559V35.483H77.1167V28.5418H76.5444V34.9161H71.9618V2.9551H73.4029V2.39022H65.8579ZM42.3316 2.39022V9.3294H42.9039V2.97746H46.1422V34.9161H44.7032V35.483H52.2482V34.9161H50.8091V2.97746H54.0495V9.3294H54.6218V2.39022H42.3316ZM25.0059 14.6329L26.4182 23.0229H23.5031L25.0059 14.6329ZM20.8125 34.9161H19.3611V35.483H22.8958V34.9181H21.3848L23.392 23.5918H26.5129L28.4192 34.9161H26.8546V35.483H34.3996V34.9161H33.08L27.0152 1.35797H26.7394L20.8125 34.9161ZM0.00976562 2.39022V9.3294H0.582072V2.97746H3.8224V34.9161H2.38134V35.483H9.92633V34.9161H8.48731V2.97746H11.7276V9.3294H12.3V2.39022H0.00976562Z" fill="black"/>
</g>
<defs>
<clipPath id="clip0_4_118">
<rect width="126.412" height="35" fill="white" transform="translate(0.00976562 0.482971)"/>
</clipPath>
</defs>
</svg>
