<svg width="308" height="86" viewBox="0 0 308 86" fill="none" xmlns="http://www.w3.org/2000/svg">
<g id="tatler" clip-path="url(#clip0_4_118)">
<path id="Vector" d="M303.43 84.611L288.191 32.7956C292.862 31.3152 297.52 28.5221 299.931 24.7372C302.78 20.2662 303.236 13.5944 298.175 9.38497C293.465 5.46675 285.411 5.62958 281.827 5.62958H263.499V6.99653H267.044V84.611H263.543V85.9829H281.867V84.611H278.367V6.99653H281.827C292.271 7.03602 295.825 20.054 290.687 27.0613C286.406 32.8993 278.542 34.138 278.542 34.138L292.226 84.611H288.54V85.9829H307.039V84.611H303.43ZM236.22 5.61479H211.498V6.98665H215.003V84.6061H211.498V85.9829H238.845V69.1257H237.45V84.6061H226.337V35.8701H232.671V45.6064H234.065V24.7816H232.671V34.4933H226.337V6.98665H237.45V22.4671H238.845V5.61479H236.22ZM159.982 5.61479V6.98665H163.472V84.6061H159.977V85.9829H187.325V69.1257H185.935V84.6061H174.806V6.98665H178.305V5.61479H159.982ZM102.847 5.61479V22.4671H104.236V7.04095H112.101V84.6061H108.606V85.9829H126.93V84.6061H123.435V7.04095H131.304V22.4671H132.694V5.61479H102.847ZM60.7698 35.3469L64.1997 55.7227H57.1201L60.7698 35.3469ZM50.5857 84.6061H47.061V85.9829H55.6452V84.611H51.9755L56.8502 57.1044H64.4295L69.0592 84.6061H65.2595V85.9829H83.5831V84.6061H80.3784L65.6494 3.10791H64.9795L50.5857 84.6061ZM0.0648193 5.61479V22.4671H1.45471V7.04095H9.32407V84.6061H5.82435V85.9829H24.1479V84.6061H20.6531V7.04095H28.5224V22.4671H29.9125V5.61479H0.0648193Z" fill="black"/>
</g>
<defs>
<clipPath id="clip0_4_118">
<rect width="307" height="85" fill="white" transform="translate(0.0648193 0.98291)"/>
</clipPath>
</defs>
</svg>
