<svg width="234" height="36" viewBox="0 0 234 36" fill="none" xmlns="http://www.w3.org/2000/svg">
<g id="teen-vogue" clip-path="url(#clip0_4_46)">
<path id="Vector" d="M14.2512 8.77473H19.8414L21.5188 1.36704H1.74515L0.120239 8.77473H4.51663L0.811165 25.3557C0.623202 26.486 0.371721 27.6793 0.371721 28.8103C0.371721 32.0646 1.82746 33.9151 3.7907 34.8854H14.6835L16.2617 27.9307H14.3776C12.6185 27.8679 10.735 27.7428 10.735 25.0419C10.735 24.4139 10.9864 23.2207 11.1744 22.2782L14.2512 8.77473Z" fill="#ED1D24"/>
<path id="Vector_2" d="M24.0816 34.7078H40.2451C44.4613 32.6804 46.5458 29.2815 47.9633 26.989L39.8614 24.1002C38.919 25.7335 37.0349 28.936 31.9475 28.936C29.749 28.936 27.9277 28.1187 26.7345 26.4238C25.7305 24.9791 25.667 23.5972 25.667 21.0228H49.2187C49.3445 19.5781 49.4702 18.1962 49.4702 16.7515C49.4702 6.13742 42.0587 1.99251 34.5226 1.99251C21.6478 1.99186 16.1839 13.234 16.1839 20.8335C16.1839 26.1846 18.5108 31.9279 24.0816 34.7078ZM34.649 8.77473C35.8416 8.77473 37.0349 9.08843 38.0401 9.65362C40.741 11.1612 40.8032 13.7357 40.8032 14.9295H26.986C28.0541 12.5431 29.8132 8.77473 34.649 8.77473Z" fill="#ED1D24"/>
<path id="Vector_3" d="M83.0268 16.7515C83.0268 6.13742 75.6159 1.99251 68.0792 1.99251C55.2044 1.99251 49.7405 13.2346 49.7405 20.8342C49.7405 26.1833 52.0654 31.924 57.6337 34.7045H73.8082C78.0205 32.6771 80.103 29.2808 81.5199 26.989L73.418 24.1002C72.4756 25.7335 70.5921 28.936 65.5048 28.936C63.3062 28.936 61.485 28.1187 60.2924 26.4238C59.2871 24.9791 59.2249 23.5972 59.2249 21.0228H82.7766C82.9011 19.5781 83.0268 18.1956 83.0268 16.7515ZM60.5425 14.9302C61.6107 12.5431 63.3691 8.77473 68.205 8.77473C69.3975 8.77473 70.5914 9.08843 71.5961 9.65362C74.2969 11.1612 74.3598 13.7357 74.3598 14.9295H60.5425V14.9302Z" fill="#ED1D24"/>
<path id="Vector_4" d="M105.575 2.30621C100.614 2.30621 97.7871 5.25788 96.1551 7.01631L97.0968 3.12223H87.3623L80.186 34.7045H89.8602L93.6415 18.2591C94.2074 15.6833 95.0234 13.1089 96.5938 11.5378C97.5978 10.5338 98.9797 9.77936 100.487 9.77936C101.681 9.77936 104.131 10.4081 104.131 13.4233C104.131 14.4279 103.942 15.3703 103.753 16.4371L99.714 34.7045H109.392L114.053 14.3021C114.242 13.1089 114.493 11.915 114.493 10.7224C114.494 5.19501 110.475 2.30621 105.575 2.30621Z" fill="#ED1D24"/>
<g id="Group">
<path id="Vector_5" d="M225.59 25.3258C224.965 20.527 223.832 18.1774 220.43 17.7373C219.849 17.7386 218.475 17.7399 218.013 17.7412C218.014 18.6357 218.01 30.0165 218.015 33.9825C219.818 33.9858 220.289 33.978 222.085 33.9845C226.799 33.6883 232.345 30.0593 233.453 22.3768C233.448 26.2469 233.454 30.2187 233.453 34.3669L209.226 34.3772L209.228 33.9812L212.825 33.9832C212.828 23.058 212.82 12.9657 212.822 2.2427L210.265 2.23881C210.276 10.9026 210.276 17.9985 210.268 27.0013C210.077 29.6347 208.977 31.1819 207.848 32.6097C206.363 34.3325 204.612 34.7765 203.753 34.993C198.674 36.1259 192.919 35.0533 190.353 31.2635C189.683 30.0632 189.273 29.4124 189.21 25.3738L189.214 2.24529L186.217 2.23557L186.212 1.85575C190.064 1.86807 193.508 1.86483 197.441 1.86158L197.438 2.24075L194.397 2.24464L194.392 29.7423C194.314 31.1922 195.329 33.0239 197.928 34.5088C199.377 35.1472 201.723 34.9897 203.126 34.7279C204.197 34.597 204.867 34.2884 205.793 33.8386C207.635 32.9338 209.94 29.461 209.893 27.0246C209.889 17.6459 209.883 2.23233 209.883 2.23233L206.022 2.23881C206.01 1.8201 206.03 2.22066 206.025 1.85899L232.074 1.86158L232.076 12.696C231.777 11.3719 231.554 9.30946 230.431 7.27816C228.524 3.56621 226.16 2.1176 221.999 2.24334L218.017 2.24205L218.006 17.3588C218.445 17.3588 219.909 17.3685 220.443 17.3582C223.913 17.0315 225.028 15.1933 225.58 10.7957L225.59 25.3258Z" fill="#252525"/>
<path id="Vector_6" d="M188.435 21.3255C187.654 21.319 187.102 21.3222 186.492 21.319C186.496 25.1256 186.496 29.8622 186.495 34.1342C185.721 32.7893 184.829 32.0413 182.873 32.6039C180.127 33.9145 176.828 35.271 174.973 35.2244C172.986 35.2762 170.988 34.5736 169.16 33.6844C162.696 29.3288 160.329 21.2043 162.005 13.3571C163.216 8.35927 166.794 2.79816 172.056 1.1227C177.32 -0.797768 180.874 4.72186 184.454 0.83427C184.457 3.61418 184.457 11.4159 184.457 12.5405V12.9313C183.255 8.5764 181.247 2.93233 176.3 1.24973C173.294 0.603529 170.612 1.95168 169.346 4.25001C166.647 10.1877 166.48 25.7037 169.855 32.121C170.28 33.092 172.137 34.9638 174.975 34.8296C177.811 34.7039 181.316 32.9098 181.316 30.3393C181.317 27.2204 181.317 24.6673 181.307 21.3261C180.788 21.3255 179.624 21.3248 179.358 21.3216C179.36 21.1382 179.351 21.1453 179.357 20.934L188.439 20.9385L188.435 21.3255Z" fill="#252525"/>
<path id="Vector_7" d="M153.655 33.0336C150.842 34.9534 147.375 35.9626 143.735 35.1537C139.184 34.1951 135.036 29.9141 133.518 25.578C131.533 19.1665 132.289 11.1282 136.693 6.05899C140.156 2.61927 144.366 0.425934 149.344 1.50251C153.849 2.48316 158.556 7.08566 159.781 11.5307C162.333 19.2741 160.286 28.039 153.655 33.0336ZM151.345 3.3264C149.803 1.65677 146.529 1.09547 143.94 2.10658C139.291 4.52806 138.941 10.7626 138.532 15.9757C138.255 19.5145 138.152 28.763 141.958 33.556C143.506 35.0986 146.527 35.3378 148.462 34.7648C154.223 32.637 154.448 26.0952 154.855 20.6819L154.858 20.5665C155.164 14.5413 154.507 7.1576 151.345 3.3264Z" fill="#252525"/>
<path id="Vector_8" d="M138.543 2.23232C138.455 2.25955 135.735 2.23038 135.367 2.24205C132.017 12.86 128.464 24.0652 125.12 34.6047C124.419 32.9144 123.812 31.3491 123.125 29.4895L112.959 2.23427C111.811 2.23751 111.498 2.24529 110.596 2.23297L110.587 1.85964L121.012 1.86482L121.006 2.23945L118.534 2.2401L127.221 25.7212L127.373 26.1736C129.862 18.3913 132.476 10.2162 135.027 2.24269C133.861 2.23232 132.613 2.23881 131.559 2.2414L131.563 1.86223L138.535 1.85445L138.543 2.23232Z" fill="#252525"/>
</g>
</g>
<defs>
<clipPath id="clip0_4_46">
<rect width="233.333" height="35" fill="white" transform="translate(0.109863 0.482971)"/>
</clipPath>
</defs>
</svg>
