<svg width="621" height="94" viewBox="0 0 621 94" fill="none" xmlns="http://www.w3.org/2000/svg">
<g id="teen-vogue" clip-path="url(#clip0_4_46)">
<path id="Vector" d="M37.6403 23.0154H52.4944L56.9515 3.33208H4.40999L0.0923767 23.0154H11.7742L1.92827 67.0733C1.42882 70.0768 0.760599 73.2474 0.760599 76.2527C0.760599 84.9 4.62871 89.8169 9.84532 92.3951H38.789L42.9826 73.9156H37.9761C33.302 73.7486 28.2972 73.4162 28.2972 66.2397C28.2972 64.5709 28.9654 61.4002 29.4649 58.8961L37.6403 23.0154Z" fill="#ED1D24"/>
<path id="Vector_2" d="M63.7612 91.9232H106.71C117.913 86.5361 123.452 77.5048 127.218 71.4133L105.69 63.7373C103.186 68.0773 98.1798 76.5868 84.6621 76.5868C78.8203 76.5868 73.9809 74.4151 70.8103 69.9115C68.1425 66.0726 67.9738 62.4009 67.9738 55.5602H130.554C130.888 51.7214 131.222 48.0496 131.222 44.2107C131.222 16.0076 111.529 4.99403 91.5045 4.99403C57.2943 4.9923 42.7759 34.8642 42.7759 55.0573C42.7759 69.276 48.9587 84.5366 63.7612 91.9232ZM91.8403 23.0154C95.0092 23.0154 98.1798 23.8489 100.851 25.3507C108.027 29.3566 108.193 36.1972 108.193 39.3696H71.4785C74.3167 33.0284 78.9908 23.0154 91.8403 23.0154Z" fill="#ED1D24"/>
<path id="Vector_3" d="M220.387 44.2107C220.387 16.0076 200.695 4.99403 180.669 4.99403C146.459 4.99403 131.941 34.866 131.941 55.059C131.941 69.2725 138.118 84.5262 152.914 91.9146H195.892C207.085 86.5275 212.618 77.503 216.383 71.4133L194.855 63.7373C192.351 68.0773 187.346 76.5868 173.828 76.5868C167.987 76.5868 163.147 74.4151 159.978 69.9115C157.307 66.0726 157.142 62.4009 157.142 55.5602H219.722C220.053 51.7214 220.387 48.0479 220.387 44.2107ZM160.643 39.3713C163.481 33.0284 168.154 23.0154 181.003 23.0154C184.172 23.0154 187.344 23.8489 190.014 25.3507C197.19 29.3566 197.357 36.1972 197.357 39.3696H160.643V39.3713Z" fill="#ED1D24"/>
<path id="Vector_4" d="M280.301 5.82758C267.119 5.82758 259.607 13.6706 255.271 18.343L257.773 7.99586H231.907L212.838 91.9146H238.544L248.592 48.2166C250.095 41.3725 252.264 34.5319 256.437 30.3572C259.104 27.6895 262.776 25.6848 266.782 25.6848C269.954 25.6848 276.463 27.3554 276.463 35.3671C276.463 38.0366 275.961 40.5407 275.46 43.3755L264.727 91.9146H290.442L302.828 37.7025C303.329 34.5319 303.997 31.3595 303.997 28.1906C304.001 13.5035 293.32 5.82758 280.301 5.82758Z" fill="#ED1D24"/>
<g id="Group">
<path id="Vector_5" d="M599.197 66.994C597.538 54.2427 594.528 47.9996 585.486 46.8302C583.943 46.8337 580.292 46.8371 579.064 46.8406C579.067 49.2173 579.057 79.4578 579.071 89.996C583.86 90.0046 585.112 89.984 589.885 90.0012C602.41 89.2141 617.147 79.5714 620.091 59.1579C620.077 69.4413 620.094 79.9951 620.091 91.0173L555.716 91.0449L555.723 89.9926L565.279 89.9977C565.286 60.968 565.265 34.1512 565.272 5.6588L558.478 5.64847C558.506 28.6694 558.506 47.5243 558.485 71.446C557.977 78.4434 555.054 82.5543 552.054 86.3484C548.109 90.926 543.457 92.1057 541.173 92.681C527.678 95.6914 512.386 92.8411 505.568 82.7713C503.789 79.5818 502.699 77.8526 502.53 67.1215L502.54 5.66569L494.579 5.63986L494.565 4.63064C504.8 4.66336 513.95 4.65475 524.401 4.64614L524.394 5.65364L516.315 5.66397L516.301 78.7293C516.093 82.5819 518.79 87.4489 525.696 91.3945C529.547 93.0909 535.779 92.6724 539.508 91.9766C542.353 91.6287 544.134 90.8089 546.595 89.6137C551.489 87.2095 557.614 77.9818 557.49 71.508C557.479 46.5874 557.462 5.63125 557.462 5.63125L547.203 5.64847C547.172 4.53592 547.223 5.60025 547.21 4.63925L616.427 4.64614L616.431 33.4348C615.637 29.9163 615.045 24.4362 612.062 19.0387C606.993 9.17558 600.712 5.32642 589.656 5.66053L579.076 5.65708L579.045 45.8245C580.213 45.8245 584.101 45.8503 585.52 45.8227C594.741 44.9547 597.704 40.0705 599.171 28.3852L599.197 66.994Z" fill="#252525"/>
<path id="Vector_6" d="M500.472 56.3645C498.397 56.3473 496.929 56.3559 495.309 56.3472C495.319 66.4619 495.319 79.0479 495.316 90.399C493.261 86.8254 490.889 84.838 485.692 86.3329C478.396 89.8152 469.63 93.4198 464.701 93.2958C459.421 93.4336 454.113 91.5667 449.255 89.2038C432.079 77.6305 425.79 56.0424 430.243 35.1915C433.462 21.9114 442.969 7.13475 456.951 2.6828C470.938 -2.42014 480.38 12.2463 489.892 1.91642C489.903 9.30303 489.903 30.0334 489.903 33.0215V34.06C486.708 22.4884 481.373 7.49125 468.227 3.02036C460.241 1.3033 453.114 4.88553 449.749 10.9925C442.578 26.7698 442.133 67.9981 451.101 85.0498C452.231 87.6297 457.165 92.6035 464.707 92.247C472.241 91.9129 481.555 87.1457 481.555 80.3154C481.559 72.0281 481.559 65.2443 481.531 56.3662C480.151 56.3645 477.06 56.3628 476.354 56.3541C476.357 55.8668 476.333 55.8857 476.351 55.3242L500.482 55.3363L500.472 56.3645Z" fill="#252525"/>
<path id="Vector_7" d="M408.056 87.4747C400.581 92.5759 391.369 95.2574 381.697 93.1081C369.605 90.5609 358.582 79.1856 354.548 67.664C349.275 50.6277 351.283 29.2687 362.987 15.7992C372.187 6.65941 383.375 0.831416 396.601 3.69203C408.572 6.29775 421.079 18.5272 424.333 30.3382C431.115 50.9136 425.676 74.2032 408.056 87.4747ZM401.918 8.53836C397.821 4.10192 389.122 2.61047 382.243 5.29714C369.888 11.7314 368.96 28.2974 367.873 42.1493C367.136 51.5526 366.864 76.127 376.975 88.8628C381.089 92.9617 389.115 93.5972 394.257 92.0747C409.566 86.4207 410.164 69.0383 411.244 54.6543L411.254 54.3478C412.067 38.338 410.321 18.7184 401.918 8.53836Z" fill="#252525"/>
<path id="Vector_8" d="M367.9 5.63125C367.668 5.70358 360.44 5.62608 359.462 5.65708C350.561 33.8705 341.12 63.6443 332.235 91.6494C330.372 87.1578 328.76 82.9986 326.934 78.0576L299.921 5.63642C296.871 5.64503 296.039 5.66569 293.642 5.63297L293.619 4.64097L321.32 4.65475L321.302 5.65019L314.734 5.65192L337.818 68.0446L338.221 69.2467C344.835 48.568 351.78 26.8456 358.559 5.6588C355.461 5.63125 352.144 5.64847 349.345 5.65536L349.356 4.64786L367.88 4.62719L367.9 5.63125Z" fill="#252525"/>
</g>
</g>
<defs>
<clipPath id="clip0_4_46">
<rect width="620" height="93" fill="white" transform="translate(0.0648193 0.982971)"/>
</clipPath>
</defs>
</svg>
