<svg width="111" height="36" viewBox="0 0 111 36" fill="none" xmlns="http://www.w3.org/2000/svg">
<g id="them" clip-path="url(#clip0_4_59)">
<path id="Vector" d="M0.516602 10.0922H4.43792V6.15649L14.5153 0.833191V10.0922H18.8836V18.7545H14.5153V21.6921C14.5153 25.6258 14.7137 25.6755 18.8829 25.6755V34.9857H15.2598C6.37379 34.9857 4.43513 32.2967 4.43513 22.588V18.7545H0.516602V10.0922Z" fill="black"/>
<path id="Vector_2" d="M20.1351 0.482971H30.063V13.0789C31.4528 10.8886 33.5877 9.59422 36.1186 9.59422C40.9338 9.59422 44.3593 12.7805 44.3593 18.4561V34.9864H34.0842V21.1941C34.0842 19.352 33.4878 18.4561 32.1986 18.4561C30.9094 18.4561 30.2132 19.4024 30.2132 21.1941V34.9857H20.1351V0.482971Z" fill="black"/>
<path id="Vector_3" d="M45.6114 22.5382C45.6114 15.5192 50.8729 9.59422 58.7658 9.59422C66.51 9.59422 71.9202 14.9715 71.9202 22.4395V25.6755H55.2908C56.0855 27.2165 57.4752 27.8658 58.865 27.8658C60.3546 27.8658 61.0998 27.4679 61.9923 26.5713H71.8706C69.6869 32.2449 66.1126 35.483 58.865 35.483C50.178 35.483 45.6114 29.8578 45.6114 22.5382ZM55.3383 19.1538H62.588C61.8931 17.8586 60.6025 17.2114 59.0144 17.2114C57.4264 17.2114 56.1351 17.9091 55.3383 19.1538Z" fill="black"/>
<path id="Vector_4" d="M73.1724 10.0922H83.2491V13.5811C84.7388 10.9419 87.0203 9.59772 89.8019 9.59772C92.9292 9.59772 95.1137 10.8921 96.2548 13.3801C97.6941 10.9404 99.9778 9.59772 102.808 9.59772C107.626 9.59772 110.8 12.784 110.8 18.4596V34.9899H100.623V21.1941C100.623 19.352 100.177 18.4561 98.8855 18.4561C97.5943 18.4561 97.0495 19.4024 97.0495 21.1941V34.9857H86.873V21.1941C86.873 19.352 86.426 18.4561 85.1354 18.4561C83.8448 18.4561 83.2987 19.4024 83.2987 21.1941V34.9857H73.1724V10.0922Z" fill="black"/>
</g>
<defs>
<clipPath id="clip0_4_59">
<rect width="110.283" height="35" fill="white" transform="translate(0.516602 0.482971)"/>
</clipPath>
</defs>
</svg>
