<svg width="335" height="107" viewBox="0 0 335 107" fill="none" xmlns="http://www.w3.org/2000/svg">
<g id="them" clip-path="url(#clip0_4_59)">
<path id="Vector" d="M0.0648193 30.0853H11.9408V18.1656L42.461 2.04364V30.0853H55.6906V56.3196H42.461V65.2164C42.461 77.1297 43.0616 77.2803 55.6885 77.2803V105.477H44.7156C17.8037 105.477 11.9324 97.3331 11.9324 67.9296V56.3196H0.0648193V30.0853Z" fill="black"/>
<path id="Vector_2" d="M59.4808 0.982971H89.5483V39.1306C93.7572 32.4972 100.223 28.577 107.888 28.577C122.471 28.577 132.845 38.2269 132.845 55.4159V105.479H101.727V63.7081C101.727 58.1291 99.9205 55.4159 96.0161 55.4159C92.1117 55.4159 90.003 58.2818 90.003 63.7081V105.477H59.4808V0.982971Z" fill="black"/>
<path id="Vector_3" d="M136.638 67.7789C136.638 46.5212 152.572 28.577 176.477 28.577C199.931 28.577 216.316 44.8624 216.316 67.4798V77.2803H165.952C168.359 81.9472 172.568 83.9137 176.777 83.9137C181.288 83.9137 183.545 82.7087 186.248 79.9935H216.166C209.552 97.1761 198.727 106.983 176.777 106.983C150.468 106.983 136.638 89.9467 136.638 67.7789ZM166.096 57.5287H188.052C185.948 53.6064 182.039 51.6463 177.23 51.6463C172.42 51.6463 168.509 53.7592 166.096 57.5287Z" fill="black"/>
<path id="Vector_4" d="M220.108 30.0853H250.626V40.6516C255.138 32.6584 262.047 28.5876 270.472 28.5876C279.943 28.5876 286.559 32.5078 290.015 40.0427C294.374 32.6542 301.29 28.5876 309.86 28.5876C324.454 28.5876 334.065 38.2375 334.065 55.4265V105.49H303.244V63.7081C303.244 58.1291 301.893 55.4159 297.982 55.4159C294.071 55.4159 292.422 58.2818 292.422 63.7081V105.477H261.601V63.7081C261.601 58.1291 260.248 55.4159 256.339 55.4159C252.43 55.4159 250.776 58.2818 250.776 63.7081V105.477H220.108V30.0853Z" fill="black"/>
</g>
<defs>
<clipPath id="clip0_4_59">
<rect width="334" height="106" fill="white" transform="translate(0.0648193 0.982971)"/>
</clipPath>
</defs>
</svg>
