<svg width="122" height="36" viewBox="0 0 122 36" fill="none" xmlns="http://www.w3.org/2000/svg">
<g id="traveler" clip-path="url(#clip0_4_13)">
<path id="Vector" d="M10.6887 1.35797H10.9792V1.06631L10.6887 1.35797Z" fill="black"/>
<path id="Vector_2" d="M10.8242 1.06631V4.33297H16.1892V35.3663H21.128V4.33297H26.2024V1.06631H10.8242Z" fill="black"/>
<path id="Vector_3" d="M23.2585 9.71908H27.7712V11.1385C27.7712 11.1385 30.3084 9.01908 32.8457 9.44686V13.9774H31.2962C31.2962 13.9774 27.9068 14.1135 28.0424 16.3885V35.2302H23.2391V9.71908H23.2585ZM45.8222 9.58297H50.7804L53.7437 26.0135L56.4165 9.71908H59.5154L54.7121 35.3663H50.8966L45.8222 9.58297Z" fill="black"/>
<path id="Vector_4" d="M67.8436 30.408V24.7496H72.7824C72.7824 24.7496 74.0607 35.2302 65.8681 35.5219C57.5398 35.8135 58.5276 20.3552 58.5276 20.3552C58.5276 20.3552 57.9659 10.3024 65.7325 9.44686C65.7325 9.44686 73.6346 8.88297 72.9374 22.9024H63.6214V30.6996C63.6214 30.6996 63.9119 33.6746 65.8874 33.6746C67.8436 33.5191 67.8436 30.408 67.8436 30.408ZM67.708 14.9691C67.5724 11.2941 65.5969 11.2941 65.5969 11.2941C63.4858 11.2941 63.4858 14.9691 63.4858 14.9691V20.783H67.5725C67.708 20.6274 67.8436 18.6441 67.708 14.9691ZM88.4511 30.408V24.7496H93.39C93.39 24.7496 94.6683 35.2302 86.4756 35.5219C78.1474 35.8135 79.1351 20.3552 79.1351 20.3552C79.1351 20.3552 78.5735 10.3024 86.34 9.44686C86.34 9.44686 94.2422 8.88297 93.5449 22.9024H84.2289V30.6996C84.2289 30.6996 84.5194 33.6746 86.495 33.6746C88.3156 33.5191 88.4511 30.408 88.4511 30.408ZM88.3156 14.9691C88.18 11.2941 86.2044 11.2941 86.2044 11.2941C84.0933 11.2941 84.0933 14.9691 84.0933 14.9691V20.783H88.18C88.3156 20.6274 88.3156 18.6441 88.3156 14.9691ZM73.6346 35.3663H78.2829V0.65797H73.6346V35.3663ZM94.2422 9.42741H98.7549V10.8469C98.7549 10.8469 101.292 8.72741 103.829 9.15519V13.6857H102.28C102.28 13.6857 99.0261 13.8219 99.0261 16.0969V35.3663H94.2228V9.42741H94.2422ZM33.1362 17.3802C33.1362 17.3802 32.1484 9.58297 39.76 9.44686C39.76 9.44686 46.2483 9.01908 46.2483 17.3802V35.3663H41.8711V33.9469C41.8711 33.9469 40.1861 35.6385 37.494 35.6385C34.8212 35.6385 33.5429 33.7913 33.2524 33.0913C32.4002 31.6719 32.129 26.2857 33.5429 24.0302C33.5429 24.0302 34.5307 22.4746 36.7967 20.9191C37.9201 20.2191 38.6367 19.6357 39.1984 19.3635C39.4889 19.2274 39.76 18.9357 39.8956 18.7996C39.8956 18.7996 41.445 17.6719 41.5806 17.2441V13.8219C41.5806 13.8219 41.445 11.4107 39.7407 11.4107C38.0363 11.4107 37.7651 13.958 37.7651 13.958V17.3607H33.1362V17.3802ZM39.6244 32.2552C41.3095 32.2552 41.6 29.9802 41.6 29.9802V20.1996C41.3095 20.4913 40.6122 20.8996 39.76 21.3274C38.9078 21.8913 38.075 22.3191 37.7845 22.6107C37.3584 23.1746 37.2228 23.8941 37.2228 23.8941V30.1357C37.3584 30.2719 37.7845 32.2552 39.6244 32.2552ZM31.7223 3.20519C31.4318 2.21353 30.8701 1.92186 30.444 1.92186C29.1657 1.92186 28.8946 3.76908 28.8946 4.60519C28.8946 5.88853 29.3207 7.15241 30.3084 7.15241C30.444 7.15241 31.4318 7.15241 31.8579 5.86908L33.1362 6.29686C33.0006 6.72464 33.0006 6.99686 32.5745 7.58019C32.1484 8.14408 31.5867 8.70797 30.4634 8.70797C29.1851 8.70797 27.5001 7.85241 27.5001 5.03297C27.4807 2.34964 28.8946 1.0663 30.444 1.0663C32.284 1.0663 32.8457 2.75797 32.8457 3.04964L31.7223 3.20519ZM35.5378 8.43575C36.6611 8.43575 37.8039 7.58019 37.8039 5.59686C37.8039 4.31353 37.3778 2.91353 35.5378 2.91353C34.4145 2.91353 33.4267 3.90519 33.4267 5.75241C33.2717 7.73575 34.55 8.43575 35.5378 8.43575ZM35.5378 7.44408C34.55 7.44408 34.55 6.02464 34.55 5.59686C34.55 4.7413 34.6856 3.74964 35.5378 3.74964C36.39 3.74964 36.5256 5.03297 36.5256 5.4413C36.3706 5.88853 36.3706 7.44408 35.5378 7.44408ZM42.1617 8.29964H40.8834V4.46908C40.8834 4.17741 40.8834 3.90519 40.4573 3.90519C40.0312 3.90519 39.76 4.19686 39.3339 4.60519V8.28019H38.0556V2.91353H39.3339V3.61353C39.6244 3.32186 40.1861 2.75797 41.0189 2.75797C41.7162 2.75797 42.1423 4.17741 42.1423 4.17741V8.29964H42.1617ZM46.9649 8.29964V0.65797H45.6866V3.49686C45.125 2.79686 44.5633 2.79686 44.4083 2.79686C43.285 2.79686 42.5684 4.08019 42.5684 5.48019C42.5684 7.03575 43.2656 8.16353 44.4083 8.16353C45.1056 8.16353 45.5317 7.59964 45.6866 7.46353V8.02741H46.9649V8.29964ZM44.8344 4.06075C45.2605 4.06075 45.5317 4.35241 45.6866 4.62464V6.89964C45.551 7.03575 45.2605 7.46353 44.8344 7.46353C43.9822 7.46353 43.8467 6.33575 43.8467 5.90797C43.8467 5.32464 43.8467 4.06075 44.8344 4.06075ZM49.5021 2.34964L51.1871 0.794082H49.7733L48.495 2.34964H49.5021ZM48.6499 5.88853C48.6499 7.17186 49.3472 7.30797 49.6377 7.30797C50.1994 7.30797 50.4899 6.88019 50.6255 6.60797L51.6132 7.03575C51.4777 7.32741 50.916 8.45519 49.6377 8.45519C48.3594 8.45519 47.3716 7.46353 47.3716 5.6163C47.3716 4.06075 48.3594 2.93297 49.6377 2.93297C50.761 2.93297 51.3227 3.63297 51.6132 4.35241C51.7488 4.9163 51.7488 5.34408 51.7488 5.90797H48.6499V5.88853ZM50.6255 5.05241C50.6255 4.06075 49.9282 3.76908 49.6377 3.76908C49.2116 3.76908 48.6499 4.06075 48.6499 5.05241H50.6255ZM55.8548 0.794082L58.6825 5.75241V0.794082H59.9608V8.29964H58.6825L55.8548 3.04964V8.29964H54.5765V0.794082H55.8548ZM64.6091 8.16353C64.4736 7.87186 64.4736 7.46353 64.4736 7.17186V4.76075C64.4736 3.3413 63.3502 3.06908 62.6336 3.06908C61.9364 3.06908 61.2198 3.36075 60.6581 4.06075L61.3553 4.76075C61.6458 4.33297 62.0526 4.06075 62.4787 4.06075C62.9048 4.06075 63.3309 4.35241 63.3309 4.9163V5.05241C61.917 5.18853 60.5031 5.75241 60.5031 7.03575C60.5031 7.8913 61.2004 8.45519 62.0526 8.45519C62.7498 8.45519 63.1759 8.02741 63.4664 7.8913C63.4664 8.02741 63.4664 8.18297 63.602 8.45519H64.5898L64.6091 8.16353ZM61.6458 6.74408C61.6458 5.88853 62.9241 5.6163 63.3309 5.6163V6.89964C63.1953 7.03575 62.6336 7.46353 62.2075 7.46353C61.917 7.30797 61.6458 7.17186 61.6458 6.74408ZM67.9985 4.19686C67.4369 3.76908 67.1464 3.76908 66.8752 3.76908C66.4491 3.76908 66.178 4.06075 66.178 4.33297C66.178 4.76075 66.6041 4.89686 67.1657 5.03297C67.863 5.16908 69.0057 5.46075 69.0057 6.58853C69.0057 7.28853 68.444 8.28019 66.8946 8.28019C65.7712 8.28019 65.2096 7.7163 64.919 7.28853L65.6163 6.72464C65.9068 7.0163 66.3135 7.28853 66.8946 7.28853C67.3207 7.28853 67.7468 7.15241 67.7468 6.72464C67.7468 6.29686 67.3207 6.16075 66.759 6.02464C66.1973 5.88853 64.919 5.59686 64.919 4.33297C64.919 3.47741 65.7712 2.6413 66.759 2.6413C67.6112 2.6413 68.3084 3.06908 68.599 3.3413L67.9985 4.19686ZM70.9618 1.22186V2.91353H71.814V3.90519H70.9618V6.74408C70.9618 7.17186 71.3879 7.17186 71.814 7.30797V8.43575C71.1168 8.43575 70.6907 8.43575 70.2646 8.14408C69.8385 7.85241 69.7029 7.28853 69.7029 6.72464V3.90519H68.9863V2.91353H69.6836V1.22186H70.9618Z" fill="black"/>
</g>
<defs>
<clipPath id="clip0_4_13">
<rect width="120.524" height="35" fill="white" transform="translate(0.589661 0.482971)"/>
</clipPath>
</defs>
</svg>
