<svg width="428" height="125" viewBox="0 0 428 125" fill="none" xmlns="http://www.w3.org/2000/svg">
<g id="traveler" clip-path="url(#clip0_4_13)">
<path id="Vector" d="M35.8442 4.08289H36.8734V3.04956L35.8442 4.08289Z" fill="black"/>
<path id="Vector_2" d="M36.3245 3.04956V14.6229H55.3317V124.57H72.8293V14.6229H90.8072V3.04956H36.3245Z" fill="black"/>
<path id="Vector_3" d="M80.3773 33.7051H96.3653V38.734C96.3653 38.734 105.354 31.2251 114.343 32.7407V48.7918H108.854C108.854 48.7918 96.8456 49.274 97.3259 57.334V124.087H80.3087V33.7051H80.3773ZM160.317 33.2229H177.883L188.382 91.434L197.851 33.7051H208.83L191.813 124.57H178.295L160.317 33.2229Z" fill="black"/>
<path id="Vector_4" d="M238.336 107.003V86.9562H255.834C255.834 86.9562 260.362 124.087 231.337 125.121C201.831 126.154 205.331 71.3873 205.331 71.3873C205.331 71.3873 203.341 35.7718 230.857 32.7407C230.857 32.7407 258.853 30.7429 256.382 80.4118H223.377V108.036C223.377 108.036 224.406 118.576 231.406 118.576C238.336 118.025 238.336 107.003 238.336 107.003ZM237.856 52.3051C237.375 39.2851 230.376 39.2851 230.376 39.2851C222.897 39.2851 222.897 52.3051 222.897 52.3051V72.9029H237.375C237.856 72.3518 238.336 65.3251 237.856 52.3051ZM311.345 107.003V86.9562H328.843C328.843 86.9562 333.372 124.087 304.346 125.121C274.841 126.154 278.34 71.3873 278.34 71.3873C278.34 71.3873 276.35 35.7718 303.866 32.7407C303.866 32.7407 331.862 30.7429 329.392 80.4118H296.387V108.036C296.387 108.036 297.416 118.576 304.415 118.576C310.865 118.025 311.345 107.003 311.345 107.003ZM310.865 52.3051C310.385 39.2851 303.386 39.2851 303.386 39.2851C295.906 39.2851 295.906 52.3051 295.906 52.3051V72.9029H310.385C310.865 72.3518 310.865 65.3251 310.865 52.3051ZM258.853 124.57H275.321V1.60291H258.853V124.57ZM331.862 32.6718H347.85V37.7007C347.85 37.7007 356.839 30.1918 365.828 31.7073V47.7585H360.339C360.339 47.7585 348.811 48.2407 348.811 56.3007V124.57H331.794V32.6718H331.862ZM115.372 60.8473C115.372 60.8473 111.873 33.2229 138.84 32.7407C138.84 32.7407 161.827 31.2251 161.827 60.8473V124.57H146.319V119.541C146.319 119.541 140.349 125.534 130.812 125.534C121.342 125.534 116.813 118.99 115.784 116.51C112.765 111.481 111.804 92.3985 116.813 84.4073C116.813 84.4073 120.313 78.8962 128.341 73.3851C132.321 70.9051 134.86 68.8385 136.85 67.874C137.879 67.3918 138.84 66.3585 139.32 65.8762C139.32 65.8762 144.81 61.8807 145.29 60.3651V48.2407C145.29 48.2407 144.81 39.6985 138.771 39.6985C132.733 39.6985 131.772 48.7229 131.772 48.7229V60.7785H115.372V60.8473ZM138.359 113.547C144.329 113.547 145.359 105.487 145.359 105.487V70.8362C144.329 71.8696 141.859 73.3162 138.84 74.8318C135.821 76.8296 132.87 78.3451 131.841 79.3785C130.331 81.3762 129.851 83.9251 129.851 83.9251V106.038C130.331 106.521 131.841 113.547 138.359 113.547ZM110.363 10.6273C109.334 7.11402 107.344 6.08068 105.835 6.08068C101.306 6.08068 100.345 12.6251 100.345 15.5873C100.345 20.134 101.855 24.6118 105.354 24.6118C105.835 24.6118 109.334 24.6118 110.844 20.0651L115.372 21.5807C114.892 23.0962 114.892 24.0607 113.383 26.1273C111.873 28.1251 109.883 30.1229 105.903 30.1229C101.374 30.1229 95.4046 27.0918 95.4046 17.1029C95.336 7.59624 100.345 3.04957 105.835 3.04957C112.353 3.04957 114.343 9.0429 114.343 10.0762L110.363 10.6273ZM123.881 29.1585C127.861 29.1585 131.909 26.1273 131.909 19.1007C131.909 14.554 130.4 9.59402 123.881 9.59402C119.901 9.59402 116.402 13.1073 116.402 19.6518C115.853 26.6785 120.382 29.1585 123.881 29.1585ZM123.881 25.6451C120.382 25.6451 120.382 20.6162 120.382 19.1007C120.382 16.0696 120.862 12.5562 123.881 12.5562C126.9 12.5562 127.381 17.1029 127.381 18.5496C126.832 20.134 126.832 25.6451 123.881 25.6451ZM147.348 28.6762H142.82V15.1051C142.82 14.0718 142.82 13.1073 141.31 13.1073C139.8 13.1073 138.84 14.1407 137.33 15.5873V28.6073H132.801V9.59402H137.33V12.074C138.359 11.0407 140.349 9.0429 143.3 9.0429C145.77 9.0429 147.28 14.0718 147.28 14.0718V28.6762H147.348ZM164.366 28.6762V1.60291H159.837V11.6607C157.847 9.18068 155.857 9.18068 155.308 9.18068C151.328 9.18068 148.789 13.7273 148.789 18.6873C148.789 24.1985 151.26 28.194 155.308 28.194C157.778 28.194 159.288 26.1962 159.837 25.714V27.7118H164.366V28.6762ZM156.818 13.6585C158.327 13.6585 159.288 14.6918 159.837 15.6562V23.7162C159.357 24.1985 158.327 25.714 156.818 25.714C153.799 25.714 153.318 21.7185 153.318 20.2029C153.318 18.1362 153.318 13.6585 156.818 13.6585ZM173.355 7.59624L179.324 2.08513H174.315L169.787 7.59624H173.355ZM170.335 20.134C170.335 24.6807 172.806 25.1629 173.835 25.1629C175.825 25.1629 176.854 23.6473 177.335 22.6829L180.834 24.1985C180.354 25.2318 178.364 29.2273 173.835 29.2273C169.306 29.2273 165.807 25.714 165.807 19.1696C165.807 13.6585 169.306 9.66291 173.835 9.66291C177.815 9.66291 179.805 12.1429 180.834 14.6918C181.314 16.6896 181.314 18.2051 181.314 20.2029H170.335V20.134ZM177.335 17.1718C177.335 13.6585 174.864 12.6251 173.835 12.6251C172.325 12.6251 170.335 13.6585 170.335 17.1718H177.335ZM195.861 2.08513L205.88 19.6518V2.08513H210.408V28.6762H205.88L195.861 10.0762V28.6762H191.333V2.08513H195.861ZM226.877 28.194C226.396 27.1607 226.396 25.714 226.396 24.6807V16.1385C226.396 11.1096 222.417 10.1451 219.878 10.1451C217.407 10.1451 214.869 11.1785 212.879 13.6585L215.349 16.1385C216.378 14.6229 217.819 13.6585 219.329 13.6585C220.838 13.6585 222.348 14.6918 222.348 16.6896V17.1718C217.339 17.654 212.33 19.6518 212.33 24.1985C212.33 27.2296 214.8 29.2273 217.819 29.2273C220.289 29.2273 221.799 27.7118 222.828 27.2296C222.828 27.7118 222.828 28.2629 223.309 29.2273H226.808L226.877 28.194ZM216.378 23.1651C216.378 20.134 220.907 19.1696 222.348 19.1696V23.7162C221.868 24.1985 219.878 25.714 218.368 25.714C217.339 25.1629 216.378 24.6807 216.378 23.1651ZM238.885 14.1407C236.895 12.6251 235.866 12.6251 234.905 12.6251C233.395 12.6251 232.435 13.6585 232.435 14.6229C232.435 16.1385 233.944 16.6207 235.934 17.1029C238.405 17.5851 242.453 18.6185 242.453 22.614C242.453 25.094 240.463 28.6073 234.974 28.6073C230.994 28.6073 229.004 26.6096 227.975 25.094L230.445 23.0962C231.474 24.1296 232.915 25.094 234.974 25.094C236.483 25.094 237.993 24.6118 237.993 23.0962C237.993 21.5807 236.483 21.0985 234.493 20.6162C232.503 20.134 227.975 19.1007 227.975 14.6229C227.975 11.5918 230.994 8.62957 234.493 8.62957C237.513 8.62957 239.983 10.1451 241.012 11.1096L238.885 14.1407ZM249.383 3.60068V9.59402H252.403V13.1073H249.383V23.1651C249.383 24.6807 250.893 24.6807 252.403 25.1629V29.1585C249.932 29.1585 248.423 29.1585 246.913 28.1251C245.404 27.0918 244.923 25.094 244.923 23.0962V13.1073H242.384V9.59402H244.855V3.60068H249.383Z" fill="black"/>
</g>
<defs>
<clipPath id="clip0_4_13">
<rect width="427" height="124" fill="white" transform="translate(0.0648193 0.98291)"/>
</clipPath>
</defs>
</svg>
