<svg width="161" height="36" viewBox="0 0 161 36" fill="none" xmlns="http://www.w3.org/2000/svg">
<g id="vanity-faire" clip-path="url(#clip0_4_69)">
<g id="Clip path group">
<mask id="mask0_4_69" style="mask-type:luminance" maskUnits="userSpaceOnUse" x="0" y="0" width="161" height="36">
<g id="clip0">
<path id="Vector" d="M160.229 0.482971H0.33667V35.483H160.229V0.482971Z" fill="white"/>
</g>
</mask>
<g mask="url(#mask0_4_69)">
<g id="Group">
<path id="Vector_2" d="M6.58777 35.483H10.3911L16.0774 1.15894H17.546V0.482971H12.6882V1.15894H15.1736L10.73 28.3478L6.7384 1.15894H8.92249V0.482971H0.33667V1.15894H1.39107L6.58777 35.483Z" fill="#E7131A"/>
<path id="Vector_3" d="M18.2612 23.9164L20.8971 7.61816L23.5708 23.9164H18.2612ZM14.0812 34.807V35.483H18.7884V34.807H16.416L18.1105 24.6675H23.6838L25.3784 34.807H23.1566V35.483H31.78V34.807H30.7256L25.0394 0.482971H21.2737L15.5498 34.807H14.0812Z" fill="#E7131A"/>
<path id="Vector_4" d="M32.5716 34.807V35.483H36.9022V34.807H34.5674V4.08812L44.9985 35.483H48.011V1.15894H49.5552V0.482971H44.8102V1.15894H47.1072V25.1182L38.8227 0.482971H32.1197V1.15894H33.6636V34.807H32.5716Z" fill="#E7131A"/>
<path id="Vector_5" d="M50.5335 34.807V35.483H58.8182V34.807H57.3874V1.15894H58.8182V0.482971H50.5335V1.15894H51.9643V34.807H50.5335Z" fill="#E7131A"/>
<path id="Vector_6" d="M64.1278 34.807V35.483H72.8268V34.807H71.1698V1.15894H74.3331L76.4039 10.998H77.082V0.482971H59.8726V10.998H60.5502L62.659 1.15894H65.7847V34.807H64.1278Z" fill="#E7131A"/>
<path id="Vector_7" d="M82.2029 34.807V35.483H90.9014V34.807H89.2445V19.1096L93.387 1.15894H94.6296V0.482971H90.0732V1.15894H92.4833L88.7551 17.1944L84.048 1.15894H86.345V0.482971H77.7215V1.15894H78.7759L83.8598 19.1096V34.807H82.2029Z" fill="#E7131A"/>
<path id="Vector_8" d="M99.714 34.807V35.483H108.714V34.807H106.568V17.6075H109.882L111.011 22.0012H111.689V12.3499H111.011L109.882 16.7813H106.568V1.15894H111.802L114.061 9.64607H114.739V0.482971H99.714V1.15894H101.145V34.807H99.714Z" fill="#E7131A"/>
<path id="Vector_9" d="M116.735 23.9164L119.371 7.61816L122.045 23.9164H116.735ZM112.555 34.807V35.483H117.262V34.807H114.89L116.585 24.6675H122.12L123.815 34.807H121.593V35.483H130.216V34.807H129.162L123.514 0.482971H119.748L114.024 34.807H112.555Z" fill="#E7131A"/>
<path id="Vector_10" d="M131.045 34.807V35.483H139.368V34.807H137.899V1.15894H139.368V0.482971H131.045V1.15894H132.514V34.807H131.045Z" fill="#E7131A"/>
<path id="Vector_11" d="M148.028 1.19649C150.664 1.19649 152.622 2.51087 152.622 8.40678V11.1858C152.622 16.1053 151.266 17.9454 148.404 17.9454H147.275V1.19649H148.028ZM140.383 34.807V35.483H149.383V34.807H147.237V18.659H148.781L153.789 35.5205H160.228V34.8446H159.287L153.752 17.1192C154.844 16.5184 158.082 14.528 158.082 9.60849C158.082 3.14928 153.789 0.482971 148.065 0.482971H140.383V1.15894H141.852V34.807H140.383Z" fill="#E7131A"/>
</g>
</g>
</g>
</g>
<defs>
<clipPath id="clip0_4_69">
<rect width="159.892" height="35" fill="white" transform="translate(0.33667 0.482971)"/>
</clipPath>
</defs>
</svg>
