<svg width="636" height="140" viewBox="0 0 636 140" fill="none" xmlns="http://www.w3.org/2000/svg">
<g id="vanity-faire" clip-path="url(#clip0_4_69)">
<g id="Clip path group">
<mask id="mask0_4_69" style="mask-type:luminance" maskUnits="userSpaceOnUse" x="0" y="0" width="636" height="140">
<g id="clip0">
<path id="Vector" d="M635.065 0.982971H0.0648193V139.983H635.065V0.982971Z" fill="white"/>
</g>
</mask>
<g mask="url(#mask0_4_69)">
<g id="Group">
<path id="Vector_2" d="M24.8906 139.983H39.9953L62.5779 3.66752H68.4104V0.982971H49.118V3.66752H58.9886L41.3414 111.646L25.4888 3.66752H34.1628V0.982971H0.0648193V3.66752H4.2523L24.8906 139.983Z" fill="#E7131A"/>
<path id="Vector_3" d="M71.2506 94.0473L81.7192 29.3199L92.3375 94.0473H71.2506ZM54.6502 137.298V139.983H73.3444V137.298H63.9226L70.6524 97.0302H92.7862L99.5161 137.298H90.6925V139.983H124.94V137.298H120.752L98.17 0.982971H83.2148L60.4827 137.298H54.6502Z" fill="#E7131A"/>
<path id="Vector_4" d="M128.084 137.298V139.983H145.282V137.298H136.01V15.3006L177.436 139.983H189.4V3.66752H195.533V0.982971H176.688V3.66752H185.811V98.8199L152.909 0.982971H126.289V3.66752H132.421V137.298H128.084Z" fill="#E7131A"/>
<path id="Vector_5" d="M199.418 137.298V139.983H232.32V137.298H226.638V3.66752H232.32V0.982971H199.418V3.66752H205.1V137.298H199.418Z" fill="#E7131A"/>
<path id="Vector_6" d="M253.407 137.298V139.983H287.954V137.298H281.374V3.66752H293.936L302.16 42.7426H304.853V0.982971H236.507V42.7426H239.198L247.573 3.66752H259.987V137.298H253.407Z" fill="#E7131A"/>
<path id="Vector_7" d="M325.191 137.298V139.983H359.736V137.298H353.156V74.9572L369.608 3.66752H374.543V0.982971H356.447V3.66752H366.018L351.212 67.351L332.518 3.66752H341.641V0.982971H307.393V3.66752H311.581L331.771 74.9572V137.298H325.191Z" fill="#E7131A"/>
<path id="Vector_8" d="M394.735 137.298V139.983H430.479V137.298H421.955V68.9916H435.115L439.601 86.4411H442.294V48.1117H439.601L435.115 65.7104H421.955V3.66752H442.741L451.714 37.3736H454.407V0.982971H394.735V3.66752H400.419V137.298H394.735Z" fill="#E7131A"/>
<path id="Vector_9" d="M462.333 94.0473L472.801 29.3199L483.42 94.0473H462.333ZM445.732 137.298V139.983H464.426V137.298H455.006L461.735 97.0302H483.718L490.449 137.298H481.625V139.983H515.873V137.298H511.685L489.253 0.982971H474.298L451.565 137.298H445.732Z" fill="#E7131A"/>
<path id="Vector_10" d="M519.164 137.298V139.983H552.217V137.298H546.384V3.66752H552.217V0.982971H519.164V3.66752H524.997V137.298H519.164Z" fill="#E7131A"/>
<path id="Vector_11" d="M586.609 3.81666C597.077 3.81666 604.854 9.03661 604.854 32.4518V43.4884C604.854 63.0258 599.47 70.3337 588.104 70.3337H583.618V3.81666H586.609ZM556.249 137.298V139.983H591.993V137.298H583.467V73.1676H589.6L609.491 140.132H635.063V137.448H631.325L609.342 67.0528C613.678 64.6664 626.539 56.7619 626.539 37.2243C626.539 11.572 609.491 0.982971 586.758 0.982971H556.249V3.66752H562.082V137.298H556.249Z" fill="#E7131A"/>
</g>
</g>
</g>
</g>
<defs>
<clipPath id="clip0_4_69">
<rect width="635" height="139" fill="white" transform="translate(0.0648193 0.982971)"/>
</clipPath>
</defs>
</svg>
