<svg width="137" height="36" viewBox="0 0 137 36" fill="none" xmlns="http://www.w3.org/2000/svg">
<g id="vogue" clip-path="url(#clip0_4_84)">
<path id="Vector" fill-rule="evenodd" clip-rule="evenodd" d="M82.6592 21.1081H85.1961V20.7732H74.7376V21.1081H77.43V28.4965C77.43 31.9116 75.9613 35.0366 71.2885 35.126C67.9285 35.1705 66.1037 33.2733 65.1246 30.6394C64.0565 27.8268 63.6783 24.8581 63.6783 18.1393C63.6783 13.8312 64.0788 7.44727 65.5475 4.59013C66.2372 3.25084 67.5056 0.88476 71.2217 0.88476C75.8946 0.90708 78.6093 4.72406 80.6121 12.7152H80.7233V0.482971H80.6121C79.633 2.84904 75.9392 1.68833 75.9392 1.68833C75.4987 1.54903 75.1116 1.418 74.7576 1.29813C73.4666 0.860969 72.6141 0.572257 71.1994 0.572257C65.4361 0.572257 57.5144 6.44282 57.5144 18.5634C57.5144 28.4519 63.4336 35.4608 71.5332 35.4608C73.2794 35.4608 74.665 34.7977 75.996 34.1607C77.2262 33.572 78.41 33.0054 79.7886 33.0054C80.6788 33.0054 82.3478 33.5633 82.6148 35.0144H82.6816L82.6592 21.1081ZM109.05 1.79979H111.787H112.477H115.058V34.4785H112.121V34.8357H136.153V22.5588H135.998C135.445 34.789 121.937 34.5517 120.711 34.5048V17.9829C120.855 17.9829 121.003 17.9818 121.152 17.9808C123.987 17.9603 127.55 17.9346 128.12 25.0588H128.232V10.6614H128.098C127.341 17.5811 123.514 17.6257 120.688 17.6257V1.86675C121.118 1.86675 121.55 1.86023 121.984 1.85369C127.167 1.77557 132.508 1.69506 134.685 12.715H134.818V1.46497H112.477H111.81H111.787H105.624V1.79979H108.65V26.2196C108.539 32.3579 104.111 35.1481 100.684 35.0366C94.4085 34.8133 93.6964 28.8535 93.6964 27.6257V1.79979H96.7006V1.46497H85.0181V1.79979H88.1113V24.6346C88.1113 30.7507 91.2043 35.483 100.261 35.483C106.336 35.483 109.117 30.4159 109.05 26.2196V1.79979ZM22.9127 1.77747V1.46497H29.0319V1.77747H26.3841L16.4818 35.0142H16.3038L3.8427 1.77747H0.816406V1.46497H11.8757V1.77747H9.22769L18.3955 27.2909L26.0057 1.77747H22.9127ZM48.3243 17.9608C48.3243 20.3269 48.1462 27.8716 46.1657 31.6215C44.942 34.0323 42.8057 35.0368 40.3136 35.0368C37.8214 35.0368 35.6852 34.0099 34.4612 31.6215C32.5031 27.8716 32.3028 20.3269 32.3028 17.9608C32.3028 15.5947 32.4808 8.29555 34.4612 4.3893C35.6405 1.97857 37.8214 0.974105 40.3136 0.974105C42.8057 0.974105 44.9864 2.0009 46.1657 4.3893C48.1462 8.29555 48.3243 15.617 48.3243 17.9608ZM54.6438 17.9608C54.6438 7.49198 47.145 0.639282 40.3136 0.639282C33.4821 0.639282 25.9831 7.49198 25.9831 17.9608C25.9831 28.4295 33.7268 35.3717 40.3136 35.3717C46.9224 35.3717 54.6438 28.4295 54.6438 17.9608Z" fill="black"/>
</g>
<defs>
<clipPath id="clip0_4_84">
<rect width="135.377" height="35" fill="white" transform="translate(0.816406 0.482971)"/>
</clipPath>
</defs>
</svg>
