<svg width="616" height="160" viewBox="0 0 616 160" fill="none" xmlns="http://www.w3.org/2000/svg">
<g id="vogue" clip-path="url(#clip0_4_84)">
<path id="Vector" fill-rule="evenodd" clip-rule="evenodd" d="M372.365 94.1798H383.889V92.6587H336.378V94.1798H348.609V127.744C348.609 143.259 341.937 157.455 320.709 157.861C305.445 158.064 297.155 149.445 292.708 137.479C287.855 124.702 286.137 111.216 286.137 80.6931C286.137 61.1222 287.957 32.1208 294.629 19.1412C297.762 13.057 303.524 2.30824 320.406 2.30824C341.634 2.40964 353.967 19.7496 363.065 56.0521H363.57V0.482971H363.065C358.617 11.2317 341.837 5.95876 341.837 5.95876C339.836 5.32592 338.077 4.73066 336.469 4.1861C330.604 2.20016 326.731 0.888584 320.305 0.888584C294.123 0.888584 258.136 27.5577 258.136 82.6197C258.136 127.542 285.026 159.382 321.821 159.382C329.754 159.382 336.048 156.37 342.095 153.476C347.684 150.802 353.061 148.228 359.324 148.228C363.368 148.228 370.95 150.762 372.163 157.354H372.467L372.365 94.1798ZM492.256 6.46509H504.69H507.824H519.55V154.92H506.207V156.543H615.381V100.77H614.674C612.164 156.331 550.8 155.253 545.227 155.039V79.9825C545.885 79.9825 546.555 79.9778 547.234 79.9729C560.112 79.8799 576.296 79.7631 578.889 112.127H579.394V46.7223H578.787C575.35 78.1573 557.963 78.3601 545.125 78.3601V6.7693C547.077 6.7693 549.041 6.73967 551.012 6.70997C574.559 6.35505 598.821 5.98931 608.709 56.0513H609.316V4.94403H507.824H504.791H504.69H476.689V6.46509H490.437V117.401C489.932 145.286 469.815 157.962 454.247 157.455C425.74 156.441 422.506 129.366 422.506 123.789V6.46509H436.153V4.94403H383.081V6.46509H397.133V110.2C397.133 137.985 411.184 159.483 452.327 159.483C479.924 159.483 492.56 136.464 492.256 117.401V6.46509ZM100.945 6.36368V4.94403H128.744V6.36368H116.715L71.7307 157.353H70.922L14.3128 6.36368H0.564819V4.94403H50.8055V6.36368H38.7761L80.4243 122.267L114.996 6.36368H100.945ZM216.386 79.8822C216.386 90.6309 215.577 124.906 206.58 141.941C201.021 152.893 191.316 157.456 179.995 157.456C168.673 157.456 158.969 152.791 153.408 141.941C144.513 124.906 143.603 90.6309 143.603 79.8822C143.603 69.1333 144.411 35.9744 153.408 18.2289C158.766 7.27727 168.673 2.71412 179.995 2.71412C191.316 2.71412 201.223 7.37868 206.58 18.2289C215.577 35.9744 216.386 69.2348 216.386 79.8822ZM245.095 79.8822C245.095 32.3239 211.029 1.19307 179.995 1.19307C148.961 1.19307 114.894 32.3239 114.894 79.8822C114.894 127.44 150.072 158.977 179.995 158.977C210.018 158.977 245.095 127.44 245.095 79.8822Z" fill="black"/>
</g>
<defs>
<clipPath id="clip0_4_84">
<rect width="615" height="159" fill="white" transform="translate(0.564819 0.482971)"/>
</clipPath>
</defs>
</svg>
