<svg width="176" height="36" viewBox="0 0 176 36" fill="none" xmlns="http://www.w3.org/2000/svg">
<g id="wired" clip-path="url(#clip0_4_88)">
<path id="Vector" d="M148.023 5.90797V30.058H159.899C163.217 30.058 165.138 29.533 166.536 28.308C168.282 26.733 169.155 23.933 169.155 17.983C169.155 12.033 168.282 9.23297 166.536 7.65797C165.138 6.43297 163.217 5.90797 159.899 5.90797H148.023ZM164.265 17.983C164.265 23.233 163.916 24.458 162.868 25.158C162.17 25.683 161.296 25.858 159.55 25.858H152.913V9.93297H159.55C161.296 9.93297 162.17 9.93297 162.868 10.633C163.916 11.508 164.265 12.733 164.265 17.983ZM175.268 35.3962H140.426V0.482971H175.268V35.3962ZM111.96 9.93297V5.90797H132.568V13.608H128.201V9.93297H119.818V15.708H126.454V19.558H119.818V26.033H128.377V21.833H132.742V30.058H111.962V26.033H115.279V9.93297H111.96ZM93.2737 23.758C93.2737 26.383 93.4469 28.308 93.7962 29.883H98.5129C98.3369 28.658 98.1637 26.383 98.1637 23.408C97.9876 19.908 96.9398 19.383 94.4948 18.858C97.289 18.333 98.5129 17.108 98.5129 12.733C98.5129 9.23297 97.9876 7.83297 96.9398 6.95797C96.2412 6.25797 95.0201 5.90797 93.0976 5.90797H78.4276V30.058H83.3176V20.608H90.1301C91.5272 20.608 92.0498 20.783 92.5751 21.133C93.1004 21.483 93.2737 22.008 93.2737 23.758ZM83.3176 16.758V10.108H91.1779C92.2258 10.108 92.5751 10.283 92.7483 10.458C93.0976 10.808 93.4469 11.333 93.4469 13.433C93.4469 15.533 93.0976 16.233 92.7483 16.583C92.5751 16.758 92.2258 16.933 91.1779 16.933L83.3176 16.758ZM105.499 35.3962H70.5701V0.482971H105.411V35.3962H105.499ZM61.4887 26.033V30.058H44.8962V26.033H50.834V9.93297H44.8962V5.90797H61.4873V9.93297H55.5494V26.033H61.4887ZM33.4578 5.90797H28.9171L25.5989 24.983L21.7567 7.30797C21.5821 6.08297 21.0581 5.90797 20.0103 5.90797H17.5653C16.5174 5.90797 15.9935 6.25797 15.8189 7.30797L11.9767 24.983L8.6585 5.90797H3.7685L8.48386 28.833C8.6585 29.883 9.00778 30.058 10.2303 30.058H13.5485C14.5964 30.058 14.9456 29.883 15.2949 28.833L18.9624 12.208L22.6299 28.833C22.8046 29.883 23.1539 30.058 24.3764 30.058H27.5199C28.5678 30.058 29.0917 29.883 29.2664 28.833L33.4578 5.90797ZM35.9028 35.3962H0.974213V0.482971H35.8162V35.3962H35.9028Z" fill="black"/>
</g>
<defs>
<clipPath id="clip0_4_88">
<rect width="174.643" height="35" fill="white" transform="translate(0.799561 0.482971)"/>
</clipPath>
</defs>
</svg>
