<svg width="490" height="99" viewBox="0 0 490 99" fill="none" xmlns="http://www.w3.org/2000/svg">
<g id="wired" clip-path="url(#clip0_4_88)">
<path id="Vector" d="M412.292 16.173V83.793H445.544C454.835 83.793 460.214 82.323 464.126 78.893C469.016 74.483 471.461 66.643 471.461 49.983C471.461 33.323 469.016 25.483 464.126 21.073C460.214 17.643 454.835 16.173 445.544 16.173H412.292ZM457.769 49.983C457.769 64.683 456.791 68.113 453.857 70.073C451.901 71.543 449.456 72.033 444.566 72.033H425.984V27.443H444.566C449.456 27.443 451.901 27.443 453.857 29.403C456.791 31.853 457.769 35.283 457.769 49.983ZM488.576 98.7399H391.018V0.982971H488.576V98.7399ZM311.315 27.443V16.173H369.017V37.733H356.788V27.443H333.316V43.613H351.898V54.393H333.316V72.523H357.281V60.763H369.502V83.793H311.319V72.523H320.606V27.443H311.315ZM258.992 66.153C258.992 73.503 259.477 78.893 260.455 83.303H273.662C273.169 79.873 272.684 73.503 272.684 65.173C272.191 55.373 269.257 53.903 262.411 52.433C270.235 50.963 273.662 47.533 273.662 35.283C273.662 25.483 272.191 21.563 269.257 19.113C267.301 17.153 263.882 16.173 258.499 16.173H217.423V83.793H231.115V57.333H250.19C254.102 57.333 255.565 57.823 257.036 58.803C258.507 59.783 258.992 61.253 258.992 66.153ZM231.115 46.553V27.933H253.124C256.058 27.933 257.036 28.423 257.521 28.913C258.499 29.893 259.477 31.363 259.477 37.243C259.477 43.123 258.499 45.083 257.521 46.063C257.036 46.553 256.058 47.043 253.124 47.043L231.115 46.553ZM293.222 98.7399H195.422V0.982971H292.976V98.7399H293.222ZM169.994 72.523V83.793H123.535V72.523H140.161V27.443H123.535V16.173H169.99V27.443H153.364V72.523H169.994ZM91.5078 16.173H78.7938L69.5028 69.583L58.7448 20.093C58.2558 16.663 56.7888 16.173 53.8548 16.173H47.0088C44.0748 16.173 42.6078 17.153 42.1188 20.093L31.3608 69.583L22.0698 16.173H8.37782L21.5808 80.363C22.0698 83.303 23.0478 83.793 26.4708 83.793H35.7618C38.6958 83.793 39.6738 83.303 40.6518 80.363L50.9208 33.813L61.1898 80.363C61.6788 83.303 62.6568 83.793 66.0798 83.793H74.8818C77.8158 83.793 79.2828 83.303 79.7718 80.363L91.5078 16.173ZM98.3538 98.7399H0.553819V0.982971H98.1113V98.7399H98.3538Z" fill="black"/>
</g>
<defs>
<clipPath id="clip0_4_88">
<rect width="489" height="98" fill="white" transform="translate(0.0648193 0.982971)"/>
</clipPath>
</defs>
</svg>
