<svg width="196" height="196" viewBox="0 0 196 196" fill="none" xmlns="http://www.w3.org/2000/svg">
<g clip-path="url(#clip0_141_273)">
<rect width="196" height="196" rx="16" fill="#333333"/>
<rect x="0.6586" y="-17.1072" width="109.482" height="109.482" transform="rotate(12.5283 0.6586 -17.1072)" fill="#687E93"/>
<rect x="86" y="5.38925" width="109.482" height="109.482" transform="rotate(-11.8004 86 5.38925)" fill="#758A37"/>
<rect x="-11.0023" y="96.9361" width="109.482" height="109.482" transform="rotate(0.357759 -11.0023 96.9361)" fill="#C69460"/>
<rect x="107.431" y="87" width="109.482" height="109.482" transform="rotate(7.04667 107.431 87)" fill="#88657F"/>
<rect x="32" y="32" width="131" height="131" rx="65.5" fill="#B07D85" stroke="white" stroke-width="8"/>
<path d="M95.416 138.957C65.7493 138.957 51.3907 117.834 51.3907 97.7796C51.3907 73.5716 71.0893 55.8902 96.484 55.8902C106.096 55.8902 115.708 57.9076 125.201 62.1796V67.5196C116.539 63.4849 106.215 60.8742 96.7213 60.8742C74.2933 60.8742 57.0867 75.5889 57.0867 97.7796C57.0867 116.648 70.9707 133.973 95.772 133.973C104.079 133.973 113.216 132.905 121.523 129.701V99.7969H97.4333V94.8129H126.863V133.024C117.725 137.414 106.927 138.957 95.416 138.957ZM96.128 128.514C76.0733 128.514 63.2573 116.292 63.2573 97.7796C63.2573 79.7422 75.9547 66.3329 97.0773 66.3329C106.215 66.3329 116.539 68.9436 125.201 73.4529V78.7929C116.539 74.1649 106.689 71.3169 97.0773 71.3169C78.0907 71.3169 68.9533 83.4209 68.9533 97.7796C68.9533 112.376 77.8533 123.768 96.128 123.768C100.875 123.768 105.859 123.056 110.249 121.75V109.765H97.4333V105.018H115.708V125.429C109.537 127.565 102.536 128.514 96.128 128.514Z" fill="white"/>
</g>
<defs>
<clipPath id="clip0_141_273">
<rect width="196" height="196" rx="16" fill="white"/>
</clipPath>
</defs>
</svg>
