<svg width="32" height="32" viewBox="0 0 32 32" fill="none" xmlns="http://www.w3.org/2000/svg">
<g clip-path="url(#clip0_142_52)">
<rect width="32" height="32" rx="16" fill="#B07D85"/>
<rect x="2.64721" y="2.19195" width="26.5423" height="26.5423" rx="13.2712" fill="#B07D85" stroke="white" stroke-width="1.62091"/>
<path d="M21.3878 8.69952V10.5749C19.5845 9.517 17.5889 8.964 15.7376 8.964C11.9387 8.964 9.00543 11.8492 9.00543 15.6962C9.00543 19.7355 11.7945 22.5726 15.8819 22.5726C17.2523 22.5726 18.2381 22.3562 19.9212 21.7311V17.7399H16.5791V16.153H21.7244V22.8371C19.849 23.7507 18.0217 24.1835 15.8819 24.1835C10.0153 24.1835 7.13004 20.0721 7.13004 15.8645C7.13004 11.2 10.5683 7.35309 15.8097 7.35309C17.6851 7.35309 19.2239 7.73778 21.3878 8.69952Z" fill="white"/>
</g>
<defs>
<clipPath id="clip0_142_52">
<rect width="32" height="32" rx="16" fill="white"/>
</clipPath>
</defs>
</svg>
