<svg width="48" height="48" viewBox="0 0 48 48" fill="none" xmlns="http://www.w3.org/2000/svg">
<g clip-path="url(#clip0_142_51)">
<rect width="48" height="48" rx="24" fill="#FDB7D5"/>
<rect x="3.97082" y="3.28795" width="39.8135" height="39.8135" rx="19.9068" fill="#FDB7D5" stroke="white" stroke-width="2.43136"/>
<path d="M32.0817 13.5493V16.3624C29.3768 14.7755 26.3834 13.946 23.6064 13.946C17.9081 13.946 13.5081 18.2738 13.5081 24.0443C13.5081 30.1032 17.6917 34.3589 23.8228 34.3589C25.8785 34.3589 27.3572 34.0343 29.8817 33.0966V27.1098H24.8687V24.7295H32.5866V34.7556C29.7735 36.1261 27.0326 36.7753 23.8228 36.7753C15.0229 36.7753 10.6951 30.6081 10.6951 24.2967C10.6951 17.3001 15.8524 11.5297 23.7146 11.5297C26.5277 11.5297 28.8358 12.1067 32.0817 13.5493Z" fill="white"/>
</g>
<defs>
<clipPath id="clip0_142_51">
<rect width="48" height="48" rx="24" fill="white"/>
</clipPath>
</defs>
</svg>
