<svg width="16" height="16" viewBox="0 0 16 16" fill="none" xmlns="http://www.w3.org/2000/svg">
<g clip-path="url(#clip0_142_52)">
<rect width="16" height="16" rx="8" fill="#B07D85"/>
<rect x="1.32361" y="1.09596" width="13.2712" height="13.2712" rx="6.63558" fill="#B07D85" stroke="white" stroke-width="0.810453"/>
<path d="M10.6939 4.13858V5.07627C9.79227 4.54732 8.79447 4.27082 7.8688 4.27082C5.96936 4.27082 4.50271 5.71342 4.50271 7.6369C4.50271 9.65655 5.89723 11.0751 7.94093 11.0751C8.62616 11.0751 9.11906 10.9669 9.96058 10.6543V8.65874H8.28956V7.86531H10.8622V11.2073C9.92451 11.6642 9.01086 11.8806 7.94093 11.8806C5.00763 11.8806 3.56502 9.82485 3.56502 7.72105C3.56502 5.38884 5.28413 3.46536 7.90486 3.46536C8.84256 3.46536 9.61195 3.65771 10.6939 4.13858Z" fill="white"/>
</g>
<defs>
<clipPath id="clip0_142_52">
<rect width="16" height="16" rx="8" fill="white"/>
</clipPath>
</defs>
</svg>
